<svg width="25" height="23" viewBox="0 0 25 23" fill="none" xmlns="http://www.w3.org/2000/svg">
<path d="M12.4753 4.17188V21.7558V4.17188Z" fill="white"/>
<path d="M12.4753 4.17188V21.7558" stroke="white" stroke-width="1.5"/>
<path d="M4.35187 7.82422L8.99385 8.98518M4.35187 12.4681L8.99385 13.629M20.5988 12.4681L15.9568 13.629M20.5988 3.76086V8.41631C20.5988 8.73673 20.5988 8.89695 20.4885 8.96196C20.3783 9.02581 20.2286 8.95383 19.9269 8.81104L18.4855 8.12607C18.3834 8.07731 18.3323 8.05409 18.2778 8.05409C18.2233 8.05409 18.1722 8.07731 18.0701 8.12607L16.6287 8.81104C16.327 8.95383 16.1761 9.02581 16.0671 8.96196C15.9568 8.89579 15.9568 8.73557 15.9568 8.41631V5.44425" stroke="white" stroke-width="1.5" stroke-linecap="round"/>
<path d="M17.6975 1.42503L17.448 0.589136V0.590298L17.6975 1.42503ZM24.9506 9.60979C24.9506 9.37886 24.8589 9.15739 24.6957 8.9941C24.5325 8.83081 24.3111 8.73907 24.0803 8.73907C23.8494 8.73907 23.628 8.83081 23.4648 8.9941C23.3016 9.15739 23.2099 9.37886 23.2099 9.60979H24.9506ZM23.2099 5.50232C23.2099 5.73324 23.3016 5.95472 23.4648 6.11801C23.628 6.2813 23.8494 6.37303 24.0803 6.37303C24.3111 6.37303 24.5325 6.2813 24.6957 6.11801C24.8589 5.95472 24.9506 5.73324 24.9506 5.50232H23.2099ZM0 9.64694C0 9.87787 0.0916996 10.0993 0.254926 10.2626C0.418152 10.4259 0.639534 10.5177 0.870371 10.5177C1.10121 10.5177 1.32259 10.4259 1.48582 10.2626C1.64904 10.0993 1.74074 9.87787 1.74074 9.64694H0ZM1.74074 13.629C1.74074 13.3981 1.64904 13.1766 1.48582 13.0133C1.32259 12.85 1.10121 12.7583 0.870371 12.7583C0.639534 12.7583 0.418152 12.85 0.254926 13.0133C0.0916996 13.1766 0 13.3981 0 13.629H1.74074ZM21.8243 0.00865677C20.5025 0.0550951 18.7768 0.192089 17.448 0.590298L17.9471 2.2586C19.0495 1.92888 20.586 1.79537 21.8846 1.7501L21.8243 0.00865677ZM17.448 0.590298C16.2933 0.936263 14.9948 1.61078 13.9816 2.19706L14.8543 3.70515C15.8408 3.13396 16.9954 2.54419 17.9471 2.2586L17.448 0.590298ZM3.11709 1.81395C4.23813 1.88361 5.50771 2.01712 6.45119 2.26672L6.8945 0.582171C5.78043 0.287287 4.36926 0.146811 3.22385 0.0759925L3.11709 1.81395ZM6.45119 2.26672C7.56759 2.56161 8.94161 3.20594 10.0754 3.80499L10.8878 2.26556C9.73307 1.6549 8.21282 0.930459 6.8945 0.582171L6.45119 2.26672ZM14.7731 21.4423C15.9232 20.8293 17.3482 20.1536 18.4994 19.8483L18.0561 18.1649C16.6984 18.5236 15.1247 19.2817 13.955 19.9063L14.7731 21.4423ZM18.4994 19.8483C19.4313 19.6033 20.6835 19.4687 21.7964 19.399L21.6873 17.661C20.55 17.733 19.1598 17.8735 18.0561 18.1649L18.4994 19.8483ZM10.9957 19.9063C9.82591 19.2817 8.25344 18.5236 6.8945 18.1649L6.45119 19.8483C7.6024 20.1525 9.02749 20.8293 10.1764 21.4423L10.9957 19.9063ZM6.8945 18.1649C5.79203 17.8747 4.39944 17.733 3.26215 17.661L3.15423 19.399C4.26714 19.4687 5.52047 19.6033 6.45119 19.8483L6.8945 18.1649ZM23.2099 16.117C23.2099 16.9122 22.5507 17.6076 21.6873 17.661L21.7964 19.399C23.507 19.2922 24.9506 17.9002 24.9506 16.117H23.2099ZM24.9506 3.10261C24.9506 1.40297 23.5987 -0.0528741 21.8243 0.00865677L21.8846 1.7501C22.5983 1.72455 23.2099 2.31084 23.2099 3.10145L24.9506 3.10261ZM0 16.117C0 17.9002 1.44366 19.2922 3.15423 19.399L3.26215 17.661C2.39874 17.6076 1.74074 16.9122 1.74074 16.117H0ZM13.955 19.9063C13.4991 20.1479 12.9911 20.273 12.4753 20.273C11.9595 20.273 11.4515 20.1479 10.9957 19.9063L10.1775 21.4423C10.8852 21.818 11.6742 22.0144 12.4753 22.0144C13.2765 22.0144 14.0654 21.818 14.7731 21.4423L13.955 19.9063ZM13.9816 2.19706C13.5134 2.4676 12.9845 2.6156 12.4439 2.62737C11.9033 2.63914 11.3685 2.5143 10.8889 2.2644L10.0754 3.80499C10.8158 4.19285 11.6422 4.38593 12.4777 4.36847C13.3133 4.35101 14.1308 4.12359 14.8543 3.70515L13.9816 2.19706ZM1.74074 3.17808C1.74074 2.36889 2.38134 1.76983 3.11709 1.81395L3.22385 0.0759925C1.4158 -0.0342986 0 1.43896 0 3.17808H1.74074ZM24.9506 16.117V9.60979H23.2099V16.117H24.9506ZM24.9506 5.50232V3.10261L23.2099 3.10145V5.50232H24.9506ZM1.74074 9.64694V3.17808H0V9.64926L1.74074 9.64694ZM1.74074 16.117V13.629H0V16.117H1.74074Z" fill="white"/>
</svg>
