<svg width="17" height="24" viewBox="0 0 17 24" fill="none" xmlns="http://www.w3.org/2000/svg">
<path fill-rule="evenodd" clip-rule="evenodd" d="M3.4138 3.55833H5.8276V20.4617H3.4138C2.77362 20.4617 2.15966 20.2073 1.70699 19.7544C1.25431 19.3016 1 18.6874 1 18.0469V5.97309C1 5.33266 1.25431 4.71845 1.70699 4.2656C2.15966 3.81274 2.77362 3.55833 3.4138 3.55833ZM9.08865 1.15925L13.9163 2.97033C14.3765 3.1429 14.773 3.4519 15.053 3.85601C15.3329 4.26012 15.4829 4.74009 15.4828 5.23176V18.7883C15.4829 19.2799 15.3329 19.7599 15.053 20.164C14.773 20.5681 14.3765 20.8771 13.9163 21.0497L9.08865 22.8608C8.72344 22.9977 8.3305 23.0441 7.94346 22.9959C7.55642 22.9478 7.18681 22.8065 6.86626 22.5842C6.54572 22.3619 6.2838 22.0653 6.10291 21.7196C5.92202 21.3739 5.82756 20.9895 5.8276 20.5993V3.42068C5.82756 3.0305 5.92202 2.64612 6.10291 2.30044C6.2838 1.95477 6.54572 1.65809 6.86626 1.4358C7.18681 1.21351 7.55642 1.07224 7.94346 1.02408C8.3305 0.97592 8.72344 1.0223 9.08865 1.15925Z" stroke="white" stroke-width="1.5" stroke-linecap="round" stroke-linejoin="round"/>
<path d="M8.24142 13.2164C8.90797 13.2164 9.44832 12.6761 9.44832 12.0095C9.44832 11.343 8.90797 10.8026 8.24142 10.8026C7.57486 10.8026 7.03452 11.343 7.03452 12.0095C7.03452 12.6761 7.57486 13.2164 8.24142 13.2164Z" fill="white"/>
</svg>
