<svg width="412" height="70" viewBox="0 0 412 70" fill="none" xmlns="http://www.w3.org/2000/svg">
<path d="M13.16 19.9102C9.47 19.9102 6.47 17.4702 6.47 14.4702C6.47 11.4702 9.47 9.00023 13.16 9.00023C14.6507 8.98862 16.1129 9.40887 17.37 10.2102C17.401 10.2335 17.4262 10.2637 17.4436 10.2984C17.461 10.3331 17.47 10.3714 17.47 10.4102C17.47 10.449 17.461 10.4873 17.4436 10.522C17.4262 10.5568 17.401 10.5869 17.37 10.6102C16.3817 11.2637 15.6392 12.2278 15.26 13.3502C15.2431 13.4003 15.2108 13.4437 15.1676 13.4743C15.1245 13.5048 15.0728 13.5209 15.02 13.5202C13.76 13.5202 12.9 14.0602 12.9 14.5202C12.9 14.9802 13.76 15.5202 15 15.5202C15.0556 15.5184 15.1104 15.5337 15.1569 15.5641C15.2034 15.5945 15.2394 15.6386 15.26 15.6902C15.611 16.7506 16.2905 17.6718 17.2 18.3202C17.233 18.3421 17.2601 18.3718 17.2788 18.4067C17.2975 18.4416 17.3073 18.4806 17.3073 18.5202C17.3073 18.5598 17.2975 18.5988 17.2788 18.6337C17.2601 18.6686 17.233 18.6983 17.2 18.7202C15.9928 19.4469 14.609 19.8274 13.2 19.8202L13.16 19.9102ZM13.16 9.52023C9.75 9.52023 7 11.7402 7 14.4702C7 17.2002 9.78 19.4702 13.2 19.4702C14.4061 19.4791 15.5953 19.187 16.66 18.6202C15.8552 17.9702 15.2431 17.1127 14.89 16.1402C13.49 16.0902 12.45 15.4402 12.45 14.6302C12.45 13.8202 13.51 13.1602 14.89 13.1202C15.2748 12.0804 15.952 11.174 16.84 10.5102C15.7294 9.88493 14.4745 9.56087 13.2 9.57023L13.16 9.52023Z" fill="#0079C3"/>
<path d="M44.19 19.91C42.8142 19.9333 41.4573 19.588 40.26 18.91C40.2248 18.8886 40.1957 18.8585 40.1756 18.8226C40.1554 18.7867 40.1448 18.7462 40.1448 18.705C40.1448 18.6638 40.1554 18.6233 40.1756 18.5874C40.1957 18.5515 40.2248 18.5214 40.26 18.5C41.2006 17.8438 41.9026 16.8998 42.26 15.81C42.2763 15.7615 42.3072 15.7193 42.3483 15.6889C42.3894 15.6585 42.4389 15.6414 42.49 15.64C43.55 15.64 44.49 15.14 44.49 14.64C44.49 14.14 43.59 13.64 42.49 13.64C42.4389 13.6386 42.3894 13.6215 42.3483 13.5911C42.3072 13.5607 42.2763 13.5185 42.26 13.47C41.8698 12.3147 41.0972 11.327 40.07 10.67C40.0357 10.6468 40.0077 10.6155 39.9885 10.5789C39.9693 10.5422 39.9595 10.5014 39.96 10.46C39.9603 10.4202 39.9705 10.381 39.9897 10.3461C40.0089 10.3112 40.0365 10.2816 40.07 10.26C41.294 9.45345 42.7242 9.01606 44.19 9C47.88 9 50.88 11.44 50.88 14.44C50.88 17.44 47.88 19.88 44.19 19.88V19.91ZM40.83 18.63C41.8697 19.162 43.0221 19.4363 44.19 19.43C47.61 19.43 50.39 17.21 50.39 14.43C50.39 11.65 47.61 9.48 44.19 9.48C42.9532 9.46856 41.7343 9.77502 40.65 10.37C41.5654 11.0432 42.2613 11.9722 42.65 13.04C43.95 13.13 44.92 13.76 44.92 14.54C44.92 15.32 43.92 15.95 42.66 16.04C42.2963 17.0421 41.6588 17.9221 40.82 18.58L40.83 18.63Z" fill="#0079C3"/>
<path d="M26.55 8.26H26.47C26.4052 8.23918 26.3506 8.19464 26.3172 8.1353C26.2839 8.07596 26.2741 8.00621 26.29 7.94L27.22 5.13L24.86 3.43C24.8284 3.40728 24.8027 3.3772 24.7853 3.34236C24.7679 3.30751 24.7592 3.26895 24.76 3.23C24.7568 3.16048 24.7796 3.09226 24.824 3.03865C24.8684 2.98504 24.9311 2.94987 25 2.94H27.92L28.84 0.149999C28.8633 0.103719 28.8991 0.0648274 28.9432 0.0376544C28.9874 0.0104814 29.0382 -0.00390625 29.09 -0.00390625C29.1418 -0.00390625 29.1926 0.0104814 29.2368 0.0376544C29.2809 0.0648274 29.3167 0.103719 29.34 0.149999L30.26 2.94H33.18C33.2446 2.93995 33.3067 2.96491 33.3533 3.00965C33.3999 3.05439 33.4274 3.11544 33.43 3.18C33.4303 3.22319 33.4215 3.26596 33.4043 3.30556C33.3871 3.34517 33.3618 3.38074 33.33 3.41L31 5.12L31.93 7.93C31.9495 7.99105 31.9448 8.05725 31.9169 8.11494C31.889 8.17263 31.84 8.2174 31.78 8.24C31.7406 8.25735 31.698 8.26632 31.655 8.26632C31.612 8.26632 31.5694 8.25735 31.53 8.24L29.13 6.51L26.73 8.24C26.6844 8.25391 26.6356 8.25391 26.59 8.24L26.55 8.26ZM29.09 5.94C29.1356 5.92608 29.1844 5.92608 29.23 5.94L31.23 7.36L30.47 5.06C30.4542 5.01128 30.4545 4.9588 30.4707 4.91022C30.4869 4.86164 30.5182 4.81952 30.56 4.79L32.5 3.39H30.08C30.0289 3.38859 29.9794 3.37154 29.9383 3.34114C29.8972 3.31074 29.8663 3.26846 29.85 3.22L29.09 0.999999L28.33 3.3C28.3137 3.34846 28.2828 3.39074 28.2417 3.42114C28.2006 3.45154 28.1511 3.46859 28.1 3.47H25.71L27.65 4.87C27.6918 4.89952 27.7231 4.94164 27.7393 4.99022C27.7555 5.0388 27.7558 5.09128 27.74 5.14L27 7.4L29 5.98C29.0456 5.96608 29.0944 5.96608 29.14 5.98L29.09 5.94Z" fill="#0079C3"/>
<path d="M29 70.0003C28.9365 69.9994 28.8757 69.9744 28.83 69.9303C28.77 69.8703 22.89 64.4003 15.38 63.9303C2.47 63.1303 2.48 57.4203 2.49 52.3803V31.0003C1.7354 30.6421 1.09957 30.0747 0.658144 29.3656C0.216718 28.6565 -0.0117224 27.8355 -1.64995e-06 27.0003C-1.64995e-06 24.3203 1.56 22.5303 3.89 22.5303C6.22 22.5303 14.49 26.5303 15.29 26.9203H42.71C43.51 26.5203 51.56 22.5303 54.11 22.5303C56.44 22.5303 58 24.3303 58 27.0003C58.0114 27.8341 57.7839 28.6539 57.3445 29.3627C56.905 30.0714 56.272 30.6397 55.52 31.0003V55.1303C55.52 57.5303 55.52 63.1303 42.62 63.9403C35.11 64.4103 29.23 69.8803 29.17 69.9403C29.1228 69.9807 29.0622 70.0021 29 70.0003ZM3.89 23.0003C1.54 23.0003 0.489998 25.0003 0.489998 27.0003C0.46839 27.7758 0.6798 28.5401 1.09692 29.1943C1.51405 29.8485 2.11773 30.3626 2.83 30.6703C2.87472 30.6898 2.91275 30.722 2.9394 30.7628C2.96606 30.8037 2.98017 30.8515 2.98 30.9003V52.4003C2.98 57.4603 2.98 62.6903 15.41 63.4603C22.41 63.8903 27.97 68.5303 29 69.4603C30 68.5503 35.61 63.9203 42.59 63.4603C55 62.6803 55 57.3903 55 55.1303V30.8903C54.9985 30.8412 55.012 30.7928 55.0389 30.7517C55.0657 30.7106 55.1045 30.6787 55.15 30.6603C55.8644 30.3563 56.4712 29.8451 56.8919 29.1926C57.3126 28.5401 57.5279 27.7764 57.51 27.0003C57.51 25.0003 56.46 23.0003 54.11 23.0003C51.6 23.0003 43 27.3303 42.88 27.3703H42.77H15.23H15.12C15 27.3303 6.32 23.0003 3.89 23.0003Z" fill="#0079C3"/>
<path d="M29 67.0005C28.9459 67.0005 28.8933 66.983 28.85 66.9505C28.79 66.9505 22.68 62.2005 16.23 61.8005C5.13 61.1105 5.14 56.2005 5.14 51.8605V26.2905C5.14029 26.2507 5.1505 26.2115 5.1697 26.1766C5.18891 26.1417 5.2165 26.1121 5.25 26.0905C5.28554 26.0721 5.32498 26.0625 5.365 26.0625C5.40502 26.0625 5.44446 26.0721 5.48 26.0905L15.04 29.8205H43.04L52.51 26.1105C52.5455 26.0921 52.585 26.0825 52.625 26.0825C52.665 26.0825 52.7045 26.0921 52.74 26.1105C52.7735 26.1321 52.8011 26.1617 52.8203 26.1966C52.8395 26.2315 52.8497 26.2707 52.85 26.3105V51.8105C52.85 56.1505 52.85 61.0605 41.76 61.7505C35.32 62.1505 29.21 66.8505 29.15 66.9005C29.1142 66.9513 29.0607 66.987 29 67.0005ZM5.64 26.6505V51.8105C5.64 56.1305 5.64 60.6005 16.27 61.2605C22.27 61.6305 28.01 65.6605 29.01 66.4005C30.01 65.6705 35.72 61.6405 41.74 61.2605C52.38 60.6005 52.37 56.1305 52.37 51.8105V26.6505L43.14 30.2505L15 30.2605L5.64 26.6505Z" fill="#0079C3"/>
<path d="M15.35 27.1596H15.29C15.2589 27.1516 15.2297 27.1373 15.2042 27.1177C15.1786 27.0982 15.1573 27.0736 15.1415 27.0457C15.1256 27.0177 15.1155 26.9868 15.1118 26.9548C15.1082 26.9229 15.1109 26.8905 15.12 26.8596C15.29 26.2396 15.46 25.7096 15.6 25.2596C16.01 23.9996 16.21 23.3696 15.79 22.6496C15.15 21.5596 14.23 19.7296 14.22 19.7096C14.2036 19.6534 14.2075 19.5933 14.2309 19.5396C14.2543 19.486 14.2958 19.4422 14.3482 19.416C14.4006 19.3899 14.4605 19.3829 14.5174 19.3963C14.5744 19.4098 14.6249 19.4428 14.66 19.4896C14.66 19.4896 15.58 21.3296 16.22 22.4096C16.75 23.3196 16.5 24.1096 16.08 25.4096C15.94 25.8596 15.77 26.4096 15.6 26.9796C15.5864 27.0325 15.5552 27.0791 15.5116 27.1118C15.468 27.1445 15.4145 27.1614 15.36 27.1596H15.35Z" fill="#0079C3"/>
<path d="M42.26 27.1604C42.2048 27.168 42.1487 27.1563 42.1013 27.1271C42.0538 27.0979 42.018 27.0531 42 27.0004C41.83 26.3904 41.67 25.8704 41.52 25.4204C41.1 24.1104 40.84 23.3204 41.38 22.4204C42.01 21.3404 42.93 19.5204 42.94 19.5004C42.9751 19.4536 43.0256 19.4205 43.0826 19.4071C43.1395 19.3936 43.1994 19.4006 43.2518 19.4268C43.3042 19.453 43.3457 19.4967 43.3691 19.5504C43.3925 19.604 43.3964 19.6642 43.38 19.7204C43.38 19.7204 42.45 21.5704 41.81 22.6604C41.39 23.3804 41.59 24.0104 42 25.2704C42.15 25.7204 42.31 26.2704 42.48 26.8704C42.4891 26.9013 42.4918 26.9336 42.4882 26.9656C42.4845 26.9975 42.4744 27.0284 42.4585 27.0564C42.4427 27.0844 42.4214 27.1089 42.3958 27.1285C42.3703 27.1481 42.3411 27.1623 42.31 27.1704L42.26 27.1604Z" fill="#0079C3"/>
<path d="M39.13 23.4099H18.48C18.415 23.4099 18.3527 23.3841 18.3068 23.3382C18.2608 23.2922 18.235 23.2299 18.235 23.1649C18.235 23.0999 18.2608 23.0376 18.3068 22.9917C18.3527 22.9457 18.415 22.9199 18.48 22.9199H39.13C39.195 22.9199 39.2573 22.9457 39.3032 22.9917C39.3492 23.0376 39.375 23.0999 39.375 23.1649C39.375 23.2299 39.3492 23.2922 39.3032 23.3382C39.2573 23.3841 39.195 23.4099 39.13 23.4099Z" fill="#0079C3"/>
<path d="M39.13 21.8504H18.48C18.415 21.8504 18.3527 21.8245 18.3068 21.7786C18.2608 21.7326 18.235 21.6703 18.235 21.6054C18.235 21.5404 18.2608 21.4781 18.3068 21.4321C18.3527 21.3862 18.415 21.3604 18.48 21.3604H39.13C39.195 21.3604 39.2573 21.3862 39.3032 21.4321C39.3492 21.4781 39.375 21.5404 39.375 21.6054C39.375 21.6703 39.3492 21.7326 39.3032 21.7786C39.2573 21.8245 39.195 21.8504 39.13 21.8504Z" fill="#0079C3"/>
<path d="M14.37 11.8998C14.6738 11.8998 14.92 11.6536 14.92 11.3498C14.92 11.046 14.6738 10.7998 14.37 10.7998C14.0662 10.7998 13.82 11.046 13.82 11.3498C13.82 11.6536 14.0662 11.8998 14.37 11.8998Z" fill="#0079C3"/>
<path d="M12.09 11.8998C12.3938 11.8998 12.64 11.6536 12.64 11.3498C12.64 11.046 12.3938 10.7998 12.09 10.7998C11.7862 10.7998 11.54 11.046 11.54 11.3498C11.54 11.6536 11.7862 11.8998 12.09 11.8998Z" fill="#0079C3"/>
<path d="M10.13 12.8598C10.4338 12.8598 10.68 12.6135 10.68 12.3098C10.68 12.006 10.4338 11.7598 10.13 11.7598C9.82624 11.7598 9.58 12.006 9.58 12.3098C9.58 12.6135 9.82624 12.8598 10.13 12.8598Z" fill="#0079C3"/>
<path d="M8.99 14.8998C9.29376 14.8998 9.54 14.6536 9.54 14.3498C9.54 14.046 9.29376 13.7998 8.99 13.7998C8.68624 13.7998 8.44 14.046 8.44 14.3498C8.44 14.6536 8.68624 14.8998 8.99 14.8998Z" fill="#0079C3"/>
<path d="M10.13 17.0297C10.4338 17.0297 10.68 16.7834 10.68 16.4797C10.68 16.1759 10.4338 15.9297 10.13 15.9297C9.82624 15.9297 9.58 16.1759 9.58 16.4797C9.58 16.7834 9.82624 17.0297 10.13 17.0297Z" fill="#0079C3"/>
<path d="M12.09 18.35C12.3938 18.35 12.64 18.1038 12.64 17.8C12.64 17.4962 12.3938 17.25 12.09 17.25C11.7862 17.25 11.54 17.4962 11.54 17.8C11.54 18.1038 11.7862 18.35 12.09 18.35Z" fill="#0079C3"/>
<path d="M14.37 18.4398C14.6738 18.4398 14.92 18.1936 14.92 17.8898C14.92 17.5861 14.6738 17.3398 14.37 17.3398C14.0662 17.3398 13.82 17.5861 13.82 17.8898C13.82 18.1936 14.0662 18.4398 14.37 18.4398Z" fill="#0079C3"/>
<path d="M42.99 11.8998C43.2938 11.8998 43.54 11.6536 43.54 11.3498C43.54 11.046 43.2938 10.7998 42.99 10.7998C42.6862 10.7998 42.44 11.046 42.44 11.3498C42.44 11.6536 42.6862 11.8998 42.99 11.8998Z" fill="#0079C3"/>
<path d="M45.27 11.8998C45.5738 11.8998 45.82 11.6536 45.82 11.3498C45.82 11.046 45.5738 10.7998 45.27 10.7998C44.9662 10.7998 44.72 11.046 44.72 11.3498C44.72 11.6536 44.9662 11.8998 45.27 11.8998Z" fill="#0079C3"/>
<path d="M47.23 12.8598C47.5338 12.8598 47.78 12.6135 47.78 12.3098C47.78 12.006 47.5338 11.7598 47.23 11.7598C46.9262 11.7598 46.68 12.006 46.68 12.3098C46.68 12.6135 46.9262 12.8598 47.23 12.8598Z" fill="#0079C3"/>
<path d="M48.37 14.8998C48.6738 14.8998 48.92 14.6536 48.92 14.3498C48.92 14.046 48.6738 13.7998 48.37 13.7998C48.0662 13.7998 47.82 14.046 47.82 14.3498C47.82 14.6536 48.0662 14.8998 48.37 14.8998Z" fill="#0079C3"/>
<path d="M47.23 17.0297C47.5338 17.0297 47.78 16.7834 47.78 16.4797C47.78 16.1759 47.5338 15.9297 47.23 15.9297C46.9262 15.9297 46.68 16.1759 46.68 16.4797C46.68 16.7834 46.9262 17.0297 47.23 17.0297Z" fill="#0079C3"/>
<path d="M45.27 18.35C45.5738 18.35 45.82 18.1038 45.82 17.8C45.82 17.4962 45.5738 17.25 45.27 17.25C44.9662 17.25 44.72 17.4962 44.72 17.8C44.72 18.1038 44.9662 18.35 45.27 18.35Z" fill="#0079C3"/>
<path d="M42.99 18.4398C43.2938 18.4398 43.54 18.1936 43.54 17.8898C43.54 17.5861 43.2938 17.3398 42.99 17.3398C42.6862 17.3398 42.44 17.5861 42.44 17.8898C42.44 18.1936 42.6862 18.4398 42.99 18.4398Z" fill="#0079C3"/>
<path d="M23.94 11.8998C24.2438 11.8998 24.49 11.6536 24.49 11.3498C24.49 11.046 24.2438 10.7998 23.94 10.7998C23.6362 10.7998 23.39 11.046 23.39 11.3498C23.39 11.6536 23.6362 11.8998 23.94 11.8998Z" fill="#0079C3"/>
<path d="M21.27 11.8998C21.5738 11.8998 21.82 11.6536 21.82 11.3498C21.82 11.046 21.5738 10.7998 21.27 10.7998C20.9662 10.7998 20.72 11.046 20.72 11.3498C20.72 11.6536 20.9662 11.8998 21.27 11.8998Z" fill="#0079C3"/>
<path d="M18.79 12.64C19.0938 12.64 19.34 12.3938 19.34 12.09C19.34 11.7863 19.0938 11.54 18.79 11.54C18.4862 11.54 18.24 11.7863 18.24 12.09C18.24 12.3938 18.4862 12.64 18.79 12.64Z" fill="#0079C3"/>
<path d="M17.32 15.1801C17.6238 15.1801 17.87 14.9338 17.87 14.6301C17.87 14.3263 17.6238 14.0801 17.32 14.0801C17.0162 14.0801 16.77 14.3263 16.77 14.6301C16.77 14.9338 17.0162 15.1801 17.32 15.1801Z" fill="#0079C3"/>
<path d="M18.79 17.3998C19.0938 17.3998 19.34 17.1536 19.34 16.8498C19.34 16.546 19.0938 16.2998 18.79 16.2998C18.4862 16.2998 18.24 16.546 18.24 16.8498C18.24 17.1536 18.4862 17.3998 18.79 17.3998Z" fill="#0079C3"/>
<path d="M19.59 25.7602C19.8938 25.7602 20.14 25.5139 20.14 25.2102C20.14 24.9064 19.8938 24.6602 19.59 24.6602C19.2862 24.6602 19.04 24.9064 19.04 25.2102C19.04 25.5139 19.2862 25.7602 19.59 25.7602Z" fill="#0079C3"/>
<path d="M21.95 25.7602C22.2538 25.7602 22.5 25.5139 22.5 25.2102C22.5 24.9064 22.2538 24.6602 21.95 24.6602C21.6462 24.6602 21.4 24.9064 21.4 25.2102C21.4 25.5139 21.6462 25.7602 21.95 25.7602Z" fill="#0079C3"/>
<path d="M24.31 25.7602C24.6138 25.7602 24.86 25.5139 24.86 25.2102C24.86 24.9064 24.6138 24.6602 24.31 24.6602C24.0062 24.6602 23.76 24.9064 23.76 25.2102C23.76 25.5139 24.0062 25.7602 24.31 25.7602Z" fill="#0079C3"/>
<path d="M26.67 25.7602C26.9738 25.7602 27.22 25.5139 27.22 25.2102C27.22 24.9064 26.9738 24.6602 26.67 24.6602C26.3662 24.6602 26.12 24.9064 26.12 25.2102C26.12 25.5139 26.3662 25.7602 26.67 25.7602Z" fill="#0079C3"/>
<path d="M29.03 25.7602C29.3338 25.7602 29.58 25.5139 29.58 25.2102C29.58 24.9064 29.3338 24.6602 29.03 24.6602C28.7262 24.6602 28.48 24.9064 28.48 25.2102C28.48 25.5139 28.7262 25.7602 29.03 25.7602Z" fill="#0079C3"/>
<path d="M31.39 25.7602C31.6938 25.7602 31.94 25.5139 31.94 25.2102C31.94 24.9064 31.6938 24.6602 31.39 24.6602C31.0862 24.6602 30.84 24.9064 30.84 25.2102C30.84 25.5139 31.0862 25.7602 31.39 25.7602Z" fill="#0079C3"/>
<path d="M33.75 25.7602C34.0538 25.7602 34.3 25.5139 34.3 25.2102C34.3 24.9064 34.0538 24.6602 33.75 24.6602C33.4462 24.6602 33.2 24.9064 33.2 25.2102C33.2 25.5139 33.4462 25.7602 33.75 25.7602Z" fill="#0079C3"/>
<path d="M36.11 25.7602C36.4138 25.7602 36.66 25.5139 36.66 25.2102C36.66 24.9064 36.4138 24.6602 36.11 24.6602C35.8062 24.6602 35.56 24.9064 35.56 25.2102C35.56 25.5139 35.8062 25.7602 36.11 25.7602Z" fill="#0079C3"/>
<path d="M38.47 25.7602C38.7738 25.7602 39.02 25.5139 39.02 25.2102C39.02 24.9064 38.7738 24.6602 38.47 24.6602C38.1662 24.6602 37.92 24.9064 37.92 25.2102C37.92 25.5139 38.1662 25.7602 38.47 25.7602Z" fill="#0079C3"/>
<path d="M21.27 18.5902C21.5738 18.5902 21.82 18.344 21.82 18.0402C21.82 17.7365 21.5738 17.4902 21.27 17.4902C20.9662 17.4902 20.72 17.7365 20.72 18.0402C20.72 18.344 20.9662 18.5902 21.27 18.5902Z" fill="#0079C3"/>
<path d="M23.94 18.2201C24.2438 18.2201 24.49 17.9739 24.49 17.6701C24.49 17.3664 24.2438 17.1201 23.94 17.1201C23.6362 17.1201 23.39 17.3664 23.39 17.6701C23.39 17.9739 23.6362 18.2201 23.94 18.2201Z" fill="#0079C3"/>
<path d="M33.58 11.8998C33.8838 11.8998 34.13 11.6536 34.13 11.3498C34.13 11.046 33.8838 10.7998 33.58 10.7998C33.2762 10.7998 33.03 11.046 33.03 11.3498C33.03 11.6536 33.2762 11.8998 33.58 11.8998Z" fill="#0079C3"/>
<path d="M36.25 11.8998C36.5538 11.8998 36.8 11.6536 36.8 11.3498C36.8 11.046 36.5538 10.7998 36.25 10.7998C35.9462 10.7998 35.7 11.046 35.7 11.3498C35.7 11.6536 35.9462 11.8998 36.25 11.8998Z" fill="#0079C3"/>
<path d="M38.73 12.64C39.0338 12.64 39.28 12.3938 39.28 12.09C39.28 11.7863 39.0338 11.54 38.73 11.54C38.4262 11.54 38.18 11.7863 38.18 12.09C38.18 12.3938 38.4262 12.64 38.73 12.64Z" fill="#0079C3"/>
<path d="M40.21 15.1801C40.5138 15.1801 40.76 14.9338 40.76 14.6301C40.76 14.3263 40.5138 14.0801 40.21 14.0801C39.9062 14.0801 39.66 14.3263 39.66 14.6301C39.66 14.9338 39.9062 15.1801 40.21 15.1801Z" fill="#0079C3"/>
<path d="M38.73 17.3998C39.0338 17.3998 39.28 17.1536 39.28 16.8498C39.28 16.546 39.0338 16.2998 38.73 16.2998C38.4262 16.2998 38.18 16.546 38.18 16.8498C38.18 17.1536 38.4262 17.3998 38.73 17.3998Z" fill="#0079C3"/>
<path d="M36.25 18.5902C36.5538 18.5902 36.8 18.344 36.8 18.0402C36.8 17.7365 36.5538 17.4902 36.25 17.4902C35.9462 17.4902 35.7 17.7365 35.7 18.0402C35.7 18.344 35.9462 18.5902 36.25 18.5902Z" fill="#0079C3"/>
<path d="M33.58 18.2201C33.8838 18.2201 34.13 17.9739 34.13 17.6701C34.13 17.3664 33.8838 17.1201 33.58 17.1201C33.2762 17.1201 33.03 17.3664 33.03 17.6701C33.03 17.9739 33.2762 18.2201 33.58 18.2201Z" fill="#0079C3"/>
<path d="M22.56 20.5499C18.16 20.5499 14.56 17.8699 14.56 14.5499C14.56 11.2299 18.14 8.54992 22.56 8.54992C24.0311 8.5428 25.4857 8.86034 26.82 9.47992C26.8591 9.49769 26.8927 9.52561 26.9173 9.56079C26.942 9.59597 26.9567 9.63711 26.96 9.67992L27.24 13.1999C27.2432 13.2372 27.2376 13.2747 27.2237 13.3094C27.2098 13.3441 27.188 13.3751 27.16 13.3999C27.1318 13.4252 27.0983 13.4437 27.0619 13.4541C27.0255 13.4645 26.9873 13.4665 26.95 13.4599C24.86 13.1299 23.35 13.8799 23.35 14.5099C23.35 15.1399 24.46 15.6399 26.05 15.6399C26.4157 15.6415 26.7807 15.608 27.14 15.5399C27.1714 15.5255 27.2055 15.5181 27.24 15.5181C27.2745 15.5181 27.3086 15.5255 27.34 15.5399C27.3685 15.5611 27.3921 15.5881 27.4094 15.6191C27.4266 15.6502 27.4371 15.6845 27.44 15.7199L27.69 18.9999C27.6941 19.0457 27.685 19.0918 27.6638 19.1325C27.6425 19.1733 27.6099 19.2071 27.57 19.2299C26.0526 20.1131 24.3257 20.5725 22.57 20.5599L22.56 20.5499ZM22.56 9.10992C18.43 9.10992 15.08 11.5699 15.08 14.5899C15.08 17.6099 18.43 20.0699 22.56 20.0699C24.1794 20.0838 25.7747 19.6772 27.19 18.8899L27 16.1299C26.6954 16.1754 26.3879 16.1988 26.08 16.1999C24.29 16.1999 22.89 15.4899 22.89 14.5799C22.89 13.6699 24.6 12.7599 26.72 12.9999L26.48 9.91992C25.246 9.3726 23.9099 9.09312 22.56 9.09992V9.10992Z" fill="#0079C3"/>
<path d="M35 20.5502C33.3312 20.5678 31.6857 20.1582 30.22 19.3602C30.1756 19.3317 30.1413 19.2899 30.1221 19.2408C30.1029 19.1916 30.0997 19.1377 30.113 19.0866C30.1264 19.0356 30.1555 18.99 30.1963 18.9565C30.237 18.9231 30.2873 18.9033 30.34 18.9002H30.43L30.67 15.9002C30.6725 15.8672 30.6817 15.835 30.6972 15.8058C30.7127 15.7765 30.7341 15.7508 30.76 15.7302C30.8098 15.6873 30.8744 15.6657 30.94 15.6702H31.51C33.1 15.6702 34.21 15.0802 34.21 14.5402C34.21 14.0002 33.1 13.4102 31.51 13.4102H31.2C31.1338 13.427 31.0642 13.4235 31 13.4002C31 13.3502 30.88 13.2802 30.88 13.2102L31.14 9.90017C31.0777 9.91343 31.0126 9.90139 30.9592 9.8667C30.9057 9.832 30.8683 9.7775 30.855 9.71517C30.8417 9.65284 30.8538 9.5878 30.8885 9.53436C30.9232 9.48091 30.9777 9.44343 31.04 9.43017C32.3045 8.89133 33.6655 8.61573 35.04 8.62017C39.44 8.62017 43.04 11.3002 43.04 14.6202C43.04 17.9402 39.46 20.6202 35.04 20.6202L35 20.5502ZM30.9 19.1602C32.1815 19.7651 33.583 20.0727 35 20.0602C39.12 20.0602 42.48 17.6002 42.48 14.5802C42.48 11.5602 39.09 9.11017 35 9.11017C33.8574 9.10861 32.7234 9.30832 31.65 9.70017L31.36 13.0002H31.47C33.26 13.0002 34.66 13.7102 34.66 14.6202C34.66 15.5302 33.26 16.2402 31.47 16.2402H31.1L30.87 19.2402L30.9 19.1602Z" fill="#0079C3"/>
<path d="M30.62 19.3904H27.45C27.387 19.3906 27.3263 19.367 27.2799 19.3244C27.2336 19.2817 27.205 19.2232 27.2 19.1604L26.45 9.67039C26.4471 9.63553 26.4519 9.60047 26.464 9.56765C26.4761 9.53483 26.4952 9.50505 26.52 9.48039C26.543 9.45556 26.5708 9.43567 26.6018 9.42192C26.6327 9.40816 26.6661 9.40084 26.7 9.40039H31.37C31.4039 9.40084 31.4373 9.40816 31.4682 9.42192C31.4991 9.43567 31.527 9.45556 31.55 9.48039C31.573 9.50592 31.5903 9.53609 31.6006 9.56887C31.611 9.60165 31.6142 9.63627 31.61 9.67039L30.86 19.1604C30.8574 19.2223 30.831 19.2808 30.7863 19.3237C30.7415 19.3665 30.682 19.3904 30.62 19.3904ZM27.68 18.9004H30.4L31.11 9.90039H27L27.71 18.9004H27.68Z" fill="#0079C3"/>
<path d="M29.07 12.3803C29.3738 12.3803 29.62 12.134 29.62 11.8303C29.62 11.5265 29.3738 11.2803 29.07 11.2803C28.7662 11.2803 28.52 11.5265 28.52 11.8303C28.52 12.134 28.7662 12.3803 29.07 12.3803Z" fill="#0079C3"/>
<path d="M29.07 15.0697C29.3738 15.0697 29.62 14.8235 29.62 14.5197C29.62 14.216 29.3738 13.9697 29.07 13.9697C28.7662 13.9697 28.52 14.216 28.52 14.5197C28.52 14.8235 28.7662 15.0697 29.07 15.0697Z" fill="#0079C3"/>
<path d="M29.07 17.7602C29.3738 17.7602 29.62 17.5139 29.62 17.2102C29.62 16.9064 29.3738 16.6602 29.07 16.6602C28.7662 16.6602 28.52 16.9064 28.52 17.2102C28.52 17.5139 28.7662 17.7602 29.07 17.7602Z" fill="#0079C3"/>
<path d="M9.84 43.4594C9.84 43.7394 9.71 43.8794 9.45 43.8794C9.19 43.8794 9.06 43.7394 9.06 43.4594V35.6094C9.04834 35.5266 9.05608 35.4422 9.08261 35.3629C9.10914 35.2835 9.15374 35.2114 9.21289 35.1523C9.27203 35.0932 9.34411 35.0486 9.42344 35.022C9.50276 34.9955 9.58717 34.9878 9.67 34.9994H11.34C11.4228 34.9878 11.5072 34.9955 11.5866 35.022C11.6659 35.0486 11.738 35.0932 11.7971 35.1523C11.8563 35.2114 11.9009 35.2835 11.9274 35.3629C11.9539 35.4422 11.9617 35.5266 11.95 35.6094C11.8493 36.0248 11.7017 36.4274 11.51 36.8094C11.3332 37.1737 11.1861 37.5515 11.07 37.9394C11.1098 38.0793 11.1669 38.2137 11.24 38.3394L11.54 38.9394C11.6421 39.1553 11.7257 39.3794 11.79 39.6094C11.8696 39.8823 11.91 40.1651 11.91 40.4494C11.9373 40.8363 11.8314 41.2209 11.61 41.5394C11.5215 41.6535 11.4077 41.7455 11.2775 41.8079C11.1473 41.8704 11.0044 41.9018 10.86 41.8994H10.58H10.33C10.2746 41.8935 10.2212 41.8751 10.1738 41.8457C10.1265 41.8162 10.0864 41.7764 10.0566 41.7293C10.0268 41.6822 10.008 41.629 10.0017 41.5736C9.99533 41.5182 10.0016 41.462 10.02 41.4094C10.0667 41.1761 10.2333 41.0894 10.52 41.1494H10.8C10.8442 41.1464 10.8867 41.1306 10.9222 41.104C10.9576 41.0773 10.9847 41.041 11 40.9994C11.0566 40.8391 11.0804 40.6691 11.07 40.4994C11.0703 40.1899 11.0196 39.8825 10.92 39.5894C10.8294 39.3104 10.7157 39.0395 10.58 38.7794L10.32 38.2994C10.27 38.2076 10.2459 38.1039 10.25 37.9994C10.3245 37.6779 10.4352 37.366 10.58 37.0694C10.8 36.5494 10.9667 36.1327 11.08 35.8194H9.84V43.4594ZM13.23 35.8694V37.2494H16.88C17.29 37.2494 17.49 37.4294 17.49 37.7994C17.4816 38.035 17.4515 38.2693 17.4 38.4994C17.3323 38.8384 17.2421 39.1724 17.13 39.4994C17.0008 39.8772 16.8437 40.2449 16.66 40.5994C16.4745 40.9731 16.2535 41.3281 16 41.6594C16.2382 41.9312 16.4991 42.1821 16.78 42.4094C17.0533 42.6294 17.3533 42.8494 17.68 43.0694C17.7307 43.0934 17.7758 43.1279 17.8123 43.1704C17.8488 43.213 17.876 43.2628 17.892 43.3165C17.908 43.3703 17.9126 43.4268 17.9053 43.4824C17.8981 43.5381 17.8792 43.5915 17.85 43.6394C17.8266 43.6886 17.7921 43.7316 17.7491 43.7651C17.7061 43.7986 17.656 43.8216 17.6026 43.8323C17.5492 43.843 17.494 43.841 17.4415 43.8266C17.389 43.8123 17.3405 43.7858 17.3 43.7494C16.9748 43.5407 16.664 43.3102 16.37 43.0594C16.0483 42.7892 15.7474 42.495 15.47 42.1794C15.1493 42.5158 14.794 42.8175 14.41 43.0794C14.0299 43.3395 13.6285 43.567 13.21 43.7594C13.164 43.783 13.1139 43.7974 13.0624 43.8017C13.0108 43.8059 12.959 43.8 12.9098 43.7842C12.8606 43.7684 12.815 43.7431 12.7755 43.7097C12.7361 43.6762 12.7036 43.6354 12.68 43.5894C12.6564 43.5435 12.642 43.4933 12.6378 43.4418C12.6335 43.3903 12.6394 43.3384 12.6552 43.2892C12.671 43.24 12.6963 43.1944 12.7298 43.1549C12.7632 43.1155 12.804 43.0831 12.85 43.0594C13.2484 42.882 13.6328 42.6747 14 42.4394C14.355 42.2011 14.6895 41.9335 15 41.6394C14.579 41.1513 14.2412 40.5972 14 39.9994C13.7699 39.3539 13.6221 38.6819 13.56 37.9994H13.18C13.2348 39.0429 13.1744 40.0892 13 41.1194C12.7994 41.9403 12.4613 42.7213 12 43.4294C11.975 43.4845 11.9378 43.5331 11.8913 43.5717C11.8448 43.6103 11.7901 43.6379 11.7314 43.6523C11.6727 43.6668 11.6114 43.6677 11.5523 43.6551C11.4932 43.6424 11.4377 43.6166 11.39 43.5794C11.1833 43.4327 11.1833 43.2261 11.39 42.9594C11.6247 42.5808 11.8191 42.1786 11.97 41.7594C12.1064 41.3713 12.2134 40.9736 12.29 40.5694C12.3629 40.0493 12.3997 39.5247 12.4 38.9994C12.4 38.3861 12.4 37.2727 12.4 35.6594C12.3883 35.5766 12.3961 35.4922 12.4226 35.4129C12.4491 35.3335 12.4937 35.2615 12.5529 35.2023C12.612 35.1432 12.6841 35.0986 12.7634 35.072C12.8428 35.0455 12.9272 35.0378 13.01 35.0494H17.31C17.59 35.0494 17.73 35.1794 17.73 35.4394C17.73 35.6994 17.59 35.8294 17.31 35.8294L13.23 35.8694ZM15.49 41.0794C15.8127 40.6289 16.0749 40.1381 16.27 39.6194C16.473 39.097 16.6172 38.5537 16.7 37.9994H14.39C14.4312 38.566 14.5489 39.1244 14.74 39.6594C14.9244 40.1677 15.1767 40.6487 15.49 41.0894V41.0794Z" fill="#0079C3"/>
<path d="M26 38.2601V38.4101C26 38.6701 25.86 38.8001 25.58 38.8001H21.55C21.27 38.8001 21.13 38.6701 21.13 38.4101V38.2501C20.6576 38.5936 20.1517 38.8885 19.62 39.1301C19.33 39.2501 19.12 39.1901 19.02 38.9501C18.92 38.7101 19.02 38.5301 19.3 38.4101C19.8239 38.1649 20.3286 37.8808 20.81 37.5601C21.2919 37.2466 21.7379 36.8811 22.14 36.4701H19.59C19.31 36.4701 19.17 36.3401 19.17 36.0801C19.17 35.8201 19.31 35.6901 19.59 35.6901H22.69C22.8337 35.4595 22.9607 35.2189 23.07 34.9701C23.0847 34.9154 23.1114 34.8647 23.1482 34.8216C23.185 34.7785 23.2309 34.7442 23.2827 34.7212C23.3345 34.6982 23.3907 34.6871 23.4474 34.6886C23.504 34.6902 23.5596 34.7043 23.61 34.7301C23.6651 34.7455 23.7157 34.7739 23.7577 34.8128C23.7996 34.8517 23.8317 34.9 23.8512 34.9538C23.8708 35.0075 23.8773 35.0652 23.8701 35.1219C23.8629 35.1787 23.8423 35.2329 23.81 35.2801L23.59 35.7001H27.59C27.87 35.7001 28.01 35.8301 28.01 36.0901C28.01 36.3501 27.87 36.4801 27.59 36.4801H25.11C25.4591 36.8585 25.8518 37.1942 26.28 37.4801C26.78 37.8303 27.3124 38.1317 27.87 38.3801C28.1633 38.5135 28.2567 38.7035 28.15 38.9501C28.0433 39.1968 27.8333 39.2401 27.52 39.0801C26.99 38.8524 26.4814 38.578 26 38.2601ZM21.22 41.2601C21.2585 41.2139 21.3066 41.1768 21.3611 41.1513C21.4155 41.1258 21.4749 41.1126 21.535 41.1126C21.5951 41.1126 21.6545 41.1258 21.7089 41.1513C21.7634 41.1768 21.8115 41.2139 21.85 41.2601C22.05 41.4468 22.05 41.6468 21.85 41.8601C21.5337 42.1505 21.1997 42.421 20.85 42.6701C20.4904 42.9247 20.1164 43.1584 19.73 43.3701C19.4367 43.5234 19.22 43.4835 19.08 43.2501C18.94 43.0168 19.0233 42.8268 19.33 42.6801C19.6751 42.4968 20.0091 42.2931 20.33 42.0701C20.655 41.8037 20.9623 41.5164 21.25 41.2101L21.22 41.2601ZM24.1 40.6101V43.1801C24.109 43.2831 24.0917 43.3867 24.0498 43.4811C24.0078 43.5756 23.9425 43.6578 23.86 43.7201C23.6422 43.847 23.3915 43.9062 23.14 43.8901C22.9469 43.9025 22.7531 43.9025 22.56 43.8901C22.3712 43.8651 22.1842 43.8284 22 43.7801C21.66 43.6801 21.54 43.5101 21.62 43.2701C21.7 43.0301 21.93 42.9201 22.26 43.0301C22.3977 43.0701 22.538 43.1002 22.68 43.1201C22.8265 43.1309 22.9735 43.1309 23.12 43.1201C23.25 43.1201 23.32 43.0601 23.32 42.9401V40.5601H19.59C19.31 40.5601 19.17 40.4301 19.17 40.1701C19.17 39.9101 19.31 39.7801 19.59 39.7801H27.59C27.87 39.7801 28.01 39.9101 28.01 40.1701C28.01 40.4301 27.87 40.5601 27.59 40.5601L24.1 40.6101ZM25.76 38.0001C25.1552 37.5685 24.6278 37.0377 24.2 36.4301H23.12C22.6394 37.0324 22.0734 37.5613 21.44 38.0001H25.76ZM25.37 41.7901C25.09 41.6435 25.0133 41.4601 25.14 41.2401C25.2667 41.0201 25.48 40.9701 25.78 41.0901C26.5638 41.4936 27.2958 41.9905 27.96 42.5701C28.2 42.7701 28.23 42.9701 28.06 43.1801C27.89 43.3901 27.68 43.3701 27.42 43.1801C27.16 42.9901 26.7 42.6201 26.42 42.3901C26.083 42.1771 25.7322 41.9867 25.37 41.8201V41.7901Z" fill="#0079C3"/>
<path d="M34.27 36.2496H37.54C37.6228 36.238 37.7072 36.2457 37.7866 36.2723C37.8659 36.2988 37.938 36.3434 37.9971 36.4025C38.0563 36.4617 38.1009 36.5338 38.1274 36.6131C38.1539 36.6924 38.1617 36.7768 38.15 36.8596V40.1297C38.1617 40.2125 38.1539 40.2969 38.1274 40.3762C38.1009 40.4555 38.0563 40.5276 37.9971 40.5868C37.938 40.6459 37.8659 40.6905 37.7866 40.717C37.7072 40.7436 37.6228 40.7513 37.54 40.7397H34.27V43.5196C34.27 43.7996 34.14 43.9396 33.88 43.9396C33.62 43.9396 33.49 43.7996 33.49 43.5196V40.7496H30.32C30.2372 40.7613 30.1528 40.7536 30.0734 40.727C29.9941 40.7005 29.922 40.6559 29.8629 40.5968C29.8037 40.5376 29.7591 40.4655 29.7326 40.3862C29.7061 40.3069 29.6983 40.2225 29.71 40.1396V36.8696C29.6983 36.7868 29.7061 36.7024 29.7326 36.6231C29.7591 36.5438 29.8037 36.4717 29.8629 36.4125C29.922 36.3534 29.9941 36.3088 30.0734 36.2823C30.1528 36.2557 30.2372 36.248 30.32 36.2596H33.48V35.0597C33.48 34.7797 33.61 34.6396 33.87 34.6396C34.13 34.6396 34.26 34.7797 34.26 35.0597L34.27 36.2496ZM30.49 39.9996H33.49V36.9996H30.49V39.9996ZM34.26 39.9996H37.36V36.9996H34.26V39.9996Z" fill="#0079C3"/>
<path d="M40.62 39.1896V36.5396C40.6083 36.4568 40.6161 36.3724 40.6426 36.2931C40.6691 36.2138 40.7137 36.1417 40.7729 36.0825C40.832 36.0234 40.9041 35.9788 40.9834 35.9523C41.0628 35.9257 41.1472 35.918 41.23 35.9296H43.8V35.0597C43.8 34.7797 43.93 34.6396 44.19 34.6396C44.45 34.6396 44.58 34.7797 44.58 35.0597V35.9296H47.26C47.3428 35.918 47.4272 35.9257 47.5066 35.9523C47.5859 35.9788 47.658 36.0234 47.7171 36.0825C47.7763 36.1417 47.8209 36.2138 47.8474 36.2931C47.8739 36.3724 47.8817 36.4568 47.87 36.5396V39.1996H48.5C48.78 39.1996 48.92 39.3296 48.92 39.5896C48.92 39.8496 48.78 39.9796 48.5 39.9796H44.78C45.0706 40.6951 45.5428 41.3224 46.15 41.7996C46.8528 42.3175 47.6322 42.7224 48.46 42.9996C48.77 43.1096 48.89 43.2896 48.8 43.5396C48.71 43.7896 48.51 43.8696 48.2 43.7696C47.3191 43.4986 46.4955 43.0681 45.77 42.4996C45.0844 41.9756 44.5411 41.2879 44.19 40.4996C43.8806 41.3174 43.3468 42.0314 42.65 42.5597C41.9349 43.1059 41.1293 43.5223 40.27 43.7896C39.97 43.8897 39.79 43.7896 39.7 43.5597C39.61 43.3297 39.7 43.1196 39.99 43.0196C40.7773 42.7756 41.5177 42.4003 42.18 41.9096C42.8232 41.4142 43.3207 40.7543 43.62 39.9996H40C39.72 39.9996 39.58 39.8696 39.58 39.6096C39.58 39.3496 39.72 39.2197 40 39.2197L40.62 39.1896ZM43.8 36.7096H41.4V39.1896H43.8V36.7096ZM47.09 36.7096H44.59V39.1896H47.1L47.09 36.7096Z" fill="#0079C3"/>
<path d="M25.15 54.5598L27.08 55.1698C26.8684 56.1098 26.3472 56.9514 25.6 57.5598C24.8371 58.1026 23.9156 58.3769 22.98 58.3398C22.379 58.3569 21.7813 58.2463 21.2262 58.0153C20.6711 57.7843 20.1714 57.4382 19.76 56.9998C18.8769 55.9958 18.4243 54.6847 18.5 53.3498C18.4151 51.9664 18.8704 50.6041 19.77 49.5498C20.1979 49.0985 20.7172 48.7437 21.2932 48.5092C21.8691 48.2747 22.4886 48.1658 23.11 48.1898C24.1743 48.1554 25.2104 48.5354 26 49.2498C26.4922 49.7506 26.838 50.3766 27 51.0598L25 51.5298C24.9169 51.062 24.67 50.6391 24.3036 50.3368C23.9371 50.0345 23.475 49.8725 23 49.8798C22.6639 49.8685 22.3295 49.9327 22.0214 50.0677C21.7134 50.2027 21.4395 50.405 21.22 50.6598C20.7007 51.3997 20.4598 52.2994 20.54 53.1998C20.4545 54.1337 20.6909 55.0688 21.21 55.8498C21.4225 56.1057 21.6906 56.3099 21.9938 56.4468C22.297 56.5837 22.6275 56.6497 22.96 56.6398C23.4633 56.6515 23.9525 56.4729 24.33 56.1398C24.7611 55.7113 25.0478 55.159 25.15 54.5598Z" fill="#0079C3"/>
<path d="M29.89 58.1701V48.3601H34.08C34.8557 48.3223 35.6323 48.4101 36.38 48.6201C36.8583 48.7949 37.2635 49.1261 37.53 49.5601C37.8349 50.0197 37.9983 50.5586 38 51.1101C38.0242 51.7776 37.7916 52.4289 37.35 52.9301C36.828 53.4544 36.1371 53.7768 35.4 53.8401C35.7945 54.0601 36.155 54.3363 36.47 54.6601C36.8925 55.156 37.2706 55.688 37.6 56.2501L38.8 58.1601H36.37L34.94 56.0001C34.6374 55.4995 34.3034 55.0185 33.94 54.5601C33.7761 54.3769 33.5702 54.2362 33.34 54.1501C33.0142 54.0627 32.677 54.0256 32.34 54.0401H31.94V58.1401L29.89 58.1701ZM31.89 52.5101H33.36C33.9593 52.5405 34.5601 52.5002 35.15 52.3901C35.3706 52.3228 35.5635 52.186 35.7 52.0001C35.8413 51.7799 35.9111 51.5215 35.9 51.2601C35.9118 50.9692 35.8156 50.6843 35.63 50.4601C35.4345 50.2449 35.1685 50.1066 34.88 50.0701C34.72 50.0701 34.2367 50.0701 33.43 50.0701H31.88L31.89 52.5101Z" fill="#0079C3"/>
<path d="M82.55 13.1798C81.4027 14.1611 80.1319 14.9881 78.77 15.6398V16.1698H85V16.9298H78.77V20.2098C78.77 21.2098 78.18 21.2098 77.55 21.2098H75.07L74.88 20.3198H77.36C77.85 20.3198 77.95 20.3198 77.95 19.8798V16.8798H71.45V16.1198H78V14.8798H78.65C79.6085 14.4328 80.5058 13.8648 81.32 13.1898H73.82V12.4598H82.6L82.55 13.1798ZM84.66 10.1798V13.2598H83.8V10.8798H72.67V13.2698H71.82V10.1798H81.24C81.7525 9.40595 82.1911 8.58568 82.55 7.72977L83.35 8.05977C83.0023 8.79283 82.6047 9.50116 82.16 10.1798H84.66ZM74.21 9.99977C73.8974 9.33676 73.5188 8.70692 73.08 8.11977L73.76 7.80977C74.234 8.39428 74.6493 9.02397 75 9.68976L74.21 9.99977ZM78.13 9.75977C77.7918 9.08824 77.4144 8.43713 77 7.80977L77.74 7.50977C78.1733 8.1112 78.5515 8.75045 78.87 9.41977L78.13 9.75977Z" fill="#222222"/>
<path d="M90.8 16.0696C90.1888 15.2575 89.6658 14.3825 89.24 13.4596V21.1996H88.47V13.7996C88.027 15.1904 87.3507 16.4957 86.47 17.6596L86 16.7796C87.1979 15.2078 88.0159 13.3801 88.39 11.4396H86.28V10.7096H88.48V7.59961H89.25V10.7096H91.13V11.4396H89.24V11.9996C89.7075 13.2574 90.4253 14.4072 91.35 15.3796L90.8 16.0696ZM90.47 20.3896C92.0819 20.0109 93.5716 19.2299 94.8 18.1196C93.8194 16.9599 93.0785 15.6174 92.62 14.1696L93.35 13.8896C93.7612 15.2388 94.4416 16.4906 95.35 17.5696C96.2564 16.5081 96.9369 15.273 97.35 13.9396L98.12 14.2196C97.6387 15.6546 96.8887 16.985 95.91 18.1396C97.1396 19.1605 98.5607 19.9254 100.09 20.3896L99.65 21.1896C98.0562 20.6943 96.596 19.8428 95.38 18.6996C94.1096 19.8698 92.587 20.732 90.93 21.2196L90.47 20.3896ZM91 13.3896C92.0163 12.7281 92.8845 11.8633 93.55 10.8496L94.25 11.2496C93.5438 12.3251 92.6414 13.258 91.59 13.9996L91 13.3896ZM95.8 7.59961V9.50961H99.8V10.2696H91.13V9.50961H95V7.59961H95.8ZM99.39 13.9996C98.3191 13.2098 97.3574 12.2818 96.53 11.2396L97.2 10.8496C97.9908 11.816 98.9092 12.6704 99.93 13.3896L99.39 13.9996Z" fill="#222222"/>
<path d="M103.47 13.9499C102.729 13.2661 101.898 12.6873 101 12.2299L101.4 11.5599C102.336 12.0084 103.21 12.5765 104 13.2499L103.47 13.9499ZM101 20.5199C102.245 18.8854 103.255 17.0846 104 15.1699L104.64 15.6999C103.862 17.6335 102.855 19.4667 101.64 21.1599L101 20.5199ZM104.28 10.1699C103.452 9.50016 102.554 8.92337 101.6 8.44988L102.03 7.77988C103.001 8.24329 103.92 8.80989 104.77 9.46988L104.28 10.1699ZM111.52 16.2499C112.803 17.6158 113.869 19.1706 114.68 20.8599L113.91 21.3199C113.72 20.8391 113.486 20.3771 113.21 19.9399C110.441 20.3224 107.654 20.5661 104.86 20.6699L104.7 19.8499C105.35 19.8499 105.49 19.8499 105.78 19.8499C106.708 18.1998 107.517 16.4854 108.2 14.7199H104.85V13.9599H109.29V10.7599H105.5V9.99988H109.31V7.62988H110.14V9.99988H114.23V10.7599H110.14V13.9499H114.71V14.7099H109.09C108.397 16.4484 107.609 18.1476 106.73 19.7999C111.48 19.5199 112.01 19.4899 112.87 19.3399C112.334 18.4043 111.708 17.5234 111 16.7099L111.52 16.2499Z" fill="#222222"/>
<path d="M123.22 7.59961V9.40961C123.242 11.7791 123.806 14.1122 124.87 16.2296C126.042 18.1049 127.744 19.5908 129.76 20.4996L129.11 21.2596C125.43 19.1096 123.53 16.8696 122.81 12.4096C122.618 14.3276 121.904 16.1563 120.746 17.6972C119.587 19.238 118.029 20.432 116.24 21.1496L115.71 20.4096C117.5 19.5496 119.85 18.1096 120.96 15.8096C121.818 13.7969 122.28 11.6374 122.32 9.44961V7.59961H123.22Z" fill="#222222"/>
<path d="M136.82 14.1499H131.41V10.2399H135.06V9.23992H130.6V7.91992H144.6V9.25992H140.14V10.2599H143.85V14.1799H138.39V15.3999H144.6V16.7599H139.48C141.039 18.0055 142.851 18.8962 144.79 19.3699L144 20.8599C141.848 20.1796 139.893 18.9891 138.3 17.3899V21.3899H136.79V17.3899C135.199 18.9434 133.292 20.1369 131.2 20.8899L130.41 19.4199C132.301 18.8519 134.069 17.9325 135.62 16.7099H130.56V15.3699H136.79L136.82 14.1499ZM132.82 11.4399V12.9399H135.01V11.4399H132.82ZM136.42 9.25992V10.2599H138.64V9.25992H136.42ZM136.42 11.4399V12.9399H138.64V11.4399H136.42ZM140.04 11.4399V12.9399H142.27V11.4399H140.04Z" fill="#222222"/>
<path d="M145.85 7.93945H158.9V20.0595C158.9 21.0595 158.25 21.3795 157.46 21.3795H154.92L154.7 19.8795H156.94C157.33 19.8795 157.4 19.6695 157.4 19.3895V9.38945H147.4V21.3895H145.89L145.85 7.93945ZM147.85 11.8395H149.85C149.695 11.1806 149.488 10.5352 149.23 9.90945L150.73 9.60945C150.86 9.99945 151.2 11.0295 151.4 11.8295H153.4C153.71 10.9695 153.84 10.5795 154.11 9.61945L155.59 9.91945C155.31 10.7895 155.2 11.1395 154.95 11.8295H156.89V13.1895H153.1V17.8195H154.7V13.9195H156.17V19.1995H148.61V13.9195H150V17.8395H151.65V13.2095H147.82L147.85 11.8395Z" fill="#222222"/>
<path d="M171.82 12.3596V13.5896C170.665 14.5674 169.38 15.3786 168 15.9996V16.1196H174.23V17.5696H168V20.2196C167.992 20.5417 167.862 20.8488 167.635 21.0775C167.408 21.3063 167.102 21.4395 166.78 21.4496H163.87L163.59 19.8796H166C166.42 19.8796 166.42 19.6696 166.42 19.4096V17.5396H160.21V16.0796H166.42V14.9296H167.07C167.866 14.6773 168.608 14.2807 169.26 13.7596H162.66V12.3596H171.82ZM162.55 9.83961C162.301 9.20418 162.004 8.589 161.66 7.99961L163.1 7.46961C163.572 8.15413 163.946 8.9014 164.21 9.68961L163.87 9.81961H166.87C166.596 9.15352 166.261 8.51414 165.87 7.90961L167.34 7.34961C167.798 8.07691 168.177 8.85136 168.47 9.65961L167.98 9.81961H170.38C170.776 9.03682 171.11 8.22436 171.38 7.38961L173.09 7.88961C172.805 8.55665 172.47 9.20173 172.09 9.81961H173.97V13.2196H172.47V11.2196H162.12V13.2196H160.62V9.83961H162.55Z" fill="#222222"/>
<path d="M188.41 8V21.39H187V20.78H177.15V21.39H175.7V8H188.41ZM182.71 10H185.9V10.93H182.71V11.54H186.42V12.49H177.65V11.54H181.33V10.93H178.2V10H181.33V9.23H177.12V19.46H187V9.23H182.74L182.71 10ZM186.37 16.13C185.944 16.5948 185.486 17.0292 185 17.43C185.49 17.6601 185.994 17.8572 186.51 18.02L185.77 19.13C184.544 18.7034 183.423 18.0217 182.48 17.13V19.13H181.15V17C180.283 17.8005 179.262 18.4164 178.15 18.81L177.6 17.62C178.775 17.2528 179.861 16.6468 180.79 15.84H178.15V13H185.89V15.8L186.37 16.13ZM179.48 14V14.83H184.55V14H179.48ZM182.71 15.81C183.103 16.1997 183.536 16.5482 184 16.85C184.31 16.55 184.71 16.15 185 15.8L182.71 15.81Z" fill="#222222"/>
<path d="M72.21 64.1895V56.1895H73V59.5495H77.8V56.2195H78.64V64.2195H77.8V60.3295H73V64.1895H72.21Z" fill="#808080"/>
<path d="M80.31 64.1895L83.31 56.1895H84.31L87.31 64.1895H86.39L85.5 61.8295H82.06L81.19 64.1895H80.31ZM82.31 61.0795H85.26L83.79 57.0795L82.31 61.0795Z" fill="#808080"/>
<path d="M88.94 64.1895V56.1895H90.21L94.31 63.0695V56.2195H95.14V64.2195H94L89.75 57.0995V64.2195L88.94 64.1895Z" fill="#808080"/>
<path d="M97.66 64.1895V56.1895H98.93L103 63.0995V56.2195H103.83V64.2195H102.68L98.43 57.0995V64.2195L97.66 64.1895Z" fill="#808080"/>
<path d="M105.44 64.1895L108.44 56.1895H109.44L112.44 64.1895H111.52L110.63 61.8295H107.15L106.28 64.1895H105.44ZM107.44 61.0795H110.39L108.92 57.0795L107.44 61.0795Z" fill="#808080"/>
<path d="M122.25 64.1189C121.682 64.2159 121.106 64.2627 120.53 64.2589C118.06 64.2589 116.34 63.1089 116.34 60.3389C116.315 59.7769 116.409 59.2158 116.615 58.6925C116.821 58.1692 117.136 57.6952 117.538 57.3017C117.94 56.9082 118.42 56.6039 118.948 56.4087C119.476 56.2135 120.039 56.1317 120.6 56.1689C121.129 56.1608 121.658 56.201 122.18 56.2889V57.0689C121.608 56.9758 121.029 56.9323 120.45 56.9389C120.012 56.9032 119.572 56.9639 119.161 57.1169C118.749 57.2698 118.376 57.5112 118.068 57.824C117.76 58.1368 117.525 58.5134 117.378 58.9272C117.232 59.341 117.178 59.7819 117.22 60.2189C117.22 62.6889 118.7 63.5289 120.68 63.5289C121.206 63.5238 121.731 63.477 122.25 63.3889V64.1189Z" fill="#808080"/>
<path d="M124.26 64.1895V56.1895H128.84V56.9995H125.11V59.6395H128.38V60.3895H125.11V63.3895H128.93V64.1695L124.26 64.1895Z" fill="#808080"/>
<path d="M130.89 64.1895V56.1895H132.16L136.26 63.0695V56.2195H137.09V64.2195H136L131.75 57.0995V64.2195L130.89 64.1895Z" fill="#808080"/>
<path d="M141.46 64.189V56.999H138.64V56.209H145.15V56.999H142.32V64.189H141.46Z" fill="#808080"/>
<path d="M146.77 64.1895V56.1895H149C150.52 56.1895 151.54 56.9295 151.54 58.3595C151.594 58.8687 151.47 59.3808 151.189 59.8091C150.908 60.2373 150.488 60.5554 150 60.7095L152.42 64.1895H151.36L149.18 60.9195H147.6V64.1895H146.77ZM148.93 60.1895C149.16 60.2192 149.394 60.1967 149.614 60.1235C149.834 60.0503 150.034 59.9285 150.2 59.767C150.367 59.6055 150.494 59.4085 150.574 59.1908C150.654 58.973 150.683 58.7401 150.66 58.5095C150.66 57.5095 150.03 57.0095 148.94 57.0095H147.6V60.1795L148.93 60.1895Z" fill="#808080"/>
<path d="M152.75 64.1895L155.75 56.1895H156.75L159.75 64.1895H158.83L158 61.8295H154.5L153.63 64.1895H152.75ZM154.75 61.0795H157.7L156.23 57.0795L154.75 61.0795Z" fill="#808080"/>
<path d="M161.46 64.1895V56.1895H162.31V63.3795H166.31V64.1595L161.46 64.1895Z" fill="#808080"/>
<path d="M175.68 64.1192C175.112 64.2162 174.536 64.2631 173.96 64.2592C171.49 64.2592 169.77 63.1092 169.77 60.3392C169.744 59.7791 169.836 59.2196 170.04 58.6973C170.244 58.1749 170.555 57.7013 170.954 57.3071C171.353 56.913 171.83 56.6071 172.355 56.4093C172.88 56.2116 173.44 56.1264 174 56.1592C174.529 56.1511 175.058 56.1913 175.58 56.2792V57.0592C175.008 56.9661 174.429 56.9227 173.85 56.9292C173.412 56.8935 172.972 56.9543 172.561 57.1072C172.149 57.2601 171.776 57.5015 171.468 57.8143C171.16 58.1271 170.925 58.5037 170.778 58.9175C170.632 59.3313 170.578 59.7723 170.62 60.2092C170.62 62.6792 172.1 63.5192 174.08 63.5192C174.606 63.5142 175.131 63.4674 175.65 63.3792L175.68 64.1192Z" fill="#808080"/>
<path d="M184.35 60.1791C184.35 62.8191 182.72 64.3691 180.63 64.3691C178.54 64.3691 176.9 63.1191 176.9 60.2991C176.9 57.6691 178.55 56.1191 180.63 56.1191C182.71 56.1191 184.35 57.3591 184.35 60.1791ZM177.77 60.3091C177.77 62.9291 179.29 63.6291 180.62 63.6291C181.95 63.6291 183.46 62.7691 183.46 60.1891C183.46 57.6091 181.95 56.8591 180.62 56.8591C179.29 56.8591 177.78 57.7191 177.78 60.3091H177.77Z" fill="#808080"/>
<path d="M186.05 64.1895V56.1895H186.9V63.3795H190.9V64.1595L186.05 64.1895Z" fill="#808080"/>
<path d="M192.59 64.1895V56.1895H193.44V63.3795H197.44V64.1595L192.59 64.1895Z" fill="#808080"/>
<path d="M199.17 64.1895V56.1895H203.75V56.9995H200V59.6395H203.27V60.3895H200V63.3895H203.82V64.1695L199.17 64.1895Z" fill="#808080"/>
<path d="M211.38 64.0796C210.68 64.2033 209.971 64.2635 209.26 64.2596C206.81 64.2596 205.07 63.1096 205.07 60.3396C205.044 59.773 205.139 59.2075 205.348 58.6804C205.558 58.1534 205.877 57.6768 206.284 57.2825C206.692 56.8882 207.179 56.585 207.713 56.3931C208.246 56.2012 208.815 56.125 209.38 56.1696C209.917 56.167 210.453 56.2173 210.98 56.3196V57.1296C210.4 57.0142 209.811 56.9573 209.22 56.9596C208.783 56.9284 208.344 56.9916 207.933 57.1449C207.522 57.2982 207.149 57.538 206.838 57.8481C206.528 58.1582 206.289 58.5313 206.135 58.9422C205.982 59.3531 205.919 59.7921 205.95 60.2296C205.95 62.6896 207.41 63.5196 209.4 63.5196C209.784 63.5166 210.168 63.4932 210.55 63.4496V60.8796H208.79V60.1396H211.39L211.38 64.0796Z" fill="#808080"/>
<path d="M213.5 64.1895V56.1895H218.08V56.9995H214.35V59.6395H217.62V60.3895H214.35V63.3895H218.17V64.1695L213.5 64.1895Z" fill="#808080"/>
<path d="M229.72 60.1791C229.72 62.8191 228.09 64.3691 226 64.3691C223.91 64.3691 222.27 63.1191 222.27 60.2991C222.27 57.6691 223.92 56.1191 226 56.1191C228.08 56.1191 229.72 57.3591 229.72 60.1791ZM223.14 60.3091C223.14 62.9291 224.66 63.6291 225.99 63.6291C227.32 63.6291 228.83 62.7691 228.83 60.1891C228.83 57.6091 227.32 56.8591 225.99 56.8591C224.66 56.8591 223.15 57.7191 223.15 60.3091H223.14Z" fill="#808080"/>
<path d="M231.42 64.1895V56.1895H235.9V56.9995H232.27V59.7295H235.42V60.4795H232.27V64.1895H231.42Z" fill="#808080"/>
<path d="M240.56 64.1895V56.1895H242.81C244.33 56.1895 245.35 56.9295 245.35 58.3595C245.395 58.8677 245.263 59.3758 244.977 59.7984C244.691 60.2209 244.268 60.532 243.78 60.6795L246.2 64.1595H245.14L243 60.9295H241.4V64.1995L240.56 64.1895ZM242.72 60.1895C242.95 60.2192 243.184 60.1967 243.404 60.1235C243.624 60.0503 243.824 59.9285 243.99 59.767C244.157 59.6055 244.284 59.4085 244.364 59.1908C244.444 58.973 244.473 58.7401 244.45 58.5095C244.45 57.5095 243.82 57.0095 242.73 57.0095H241.4V60.1795L242.72 60.1895Z" fill="#808080"/>
<path d="M247.87 64.1895V56.1895H252.45V56.9995H248.72V59.6395H252V60.3895H248.73V63.3895H252.55V64.1695L247.87 64.1895Z" fill="#808080"/>
<path d="M254.6 64.1895V56.1895H255.44V59.5495H260.19V56.2195H261V64.2195H260.16V60.3295H255.41V64.1895H254.6Z" fill="#808080"/>
<path d="M262.7 64.1895L265.7 56.1895H266.7L269.7 64.1895H268.78L267.89 61.8295H264.41L263.54 64.1895H262.7ZM264.7 61.0795H267.65L266.18 57.0795L264.7 61.0795Z" fill="#808080"/>
<path d="M273.68 56.2195C275.21 56.2195 276.06 56.8595 276.06 58.1095C276.095 58.5281 275.975 58.9451 275.722 59.2808C275.469 59.6165 275.102 59.8474 274.69 59.9295C275.162 59.9776 275.597 60.2064 275.905 60.5679C276.212 60.9294 276.368 61.3957 276.34 61.8695C276.353 62.1968 276.294 62.5231 276.168 62.8254C276.042 63.1277 275.851 63.3988 275.609 63.6198C275.367 63.8407 275.08 64.0062 274.768 64.1046C274.455 64.203 274.125 64.2319 273.8 64.1895H271.42V56.1895L273.68 56.2195ZM273.68 59.6395C273.878 59.6658 274.079 59.6486 274.27 59.5891C274.46 59.5296 274.635 59.4292 274.783 59.2949C274.931 59.1606 275.047 58.9956 275.124 58.8116C275.202 58.6276 275.238 58.4289 275.23 58.2295C275.23 57.3595 274.76 57.0095 273.72 57.0095H272.29V59.6395H273.68ZM273.73 63.4195C274.9 63.4195 275.47 62.8795 275.47 61.8795C275.47 60.8795 274.74 60.3795 273.57 60.3795H272.29V63.3795L273.73 63.4195Z" fill="#808080"/>
<path d="M278.71 64.1895V56.1895H279.56V64.1895H278.71Z" fill="#808080"/>
<path d="M282.5 64.1895V56.1895H283.35V63.3795H287.35V64.1595L282.5 64.1895Z" fill="#808080"/>
<path d="M289.3 64.1895V56.1895H290.15V64.1895H289.3Z" fill="#808080"/>
<path d="M294.86 64.189V56.999H292V56.209H298.51V56.999H295.68V64.189H294.86Z" fill="#808080"/>
<path d="M298.62 64.1895L301.62 56.1895H302.62L305.62 64.1895H304.7L303.81 61.8295H300.33L299.46 64.1895H298.62ZM300.62 61.0795H303.57L302.1 57.0795L300.62 61.0795Z" fill="#808080"/>
<path d="M308.57 64.189V56.999H305.75V56.209H312.26V56.999H309.43V64.189H308.57Z" fill="#808080"/>
<path d="M314.13 64.1895V56.1895H315V64.1895H314.13Z" fill="#808080"/>
<path d="M324.73 60.1791C324.73 62.8191 323.1 64.3691 321.01 64.3691C318.92 64.3691 317.28 63.1191 317.28 60.2991C317.28 57.6691 318.93 56.1191 321.01 56.1191C323.09 56.1191 324.73 57.3591 324.73 60.1791ZM318.15 60.3091C318.15 62.9291 319.67 63.6291 321 63.6291C322.33 63.6291 323.84 62.7691 323.84 60.1891C323.84 57.6091 322.33 56.8591 321 56.8591C319.67 56.8591 318.16 57.7191 318.16 60.3091H318.15Z" fill="#808080"/>
<path d="M326.36 64.1895V56.1895H327.63L331.73 63.0695V56.2195H332.56V64.2195H331.41L327.16 57.0995V64.2195L326.36 64.1895Z" fill="#808080"/>
<path d="M76.81 28.999L78.63 29.889C78.6065 30.0241 78.5439 30.1492 78.45 30.249C78.07 31.909 77.45 34.109 76.93 35.689C77.8925 36.735 78.4525 38.0887 78.51 39.509C78.51 42.899 76.37 42.899 74.89 42.899C74.8579 42.137 74.6956 41.3862 74.41 40.679V47.429H71.86V29.089H76.39L76.81 28.999ZM74.41 31.689V40.499C74.65 40.499 74.89 40.499 75.08 40.499C75.61 40.499 75.89 40.319 75.89 39.209C75.7944 38.0128 75.3016 36.8829 74.49 35.999C74.81 34.809 75.16 33.069 75.42 31.679L74.41 31.689ZM87.93 34.419L89.65 34.939C89.6134 35.0945 89.5453 35.2408 89.45 35.369C89.1821 38.0669 88.3216 40.6723 86.93 42.999C87.9617 43.8888 89.1575 44.5682 90.45 44.999C89.7117 45.7237 89.0789 46.5484 88.57 47.449C87.2862 46.9173 86.1129 46.1508 85.11 45.189C84.147 46.0968 83.051 46.8521 81.86 47.429C81.4449 46.6133 80.9274 45.8538 80.32 45.169C80.009 45.937 79.6025 46.6627 79.11 47.329C78.4551 46.6423 77.708 46.05 76.89 45.569C79.01 42.679 79.17 38.359 79.17 35.269V29.269H89.94V31.919H81.94V34.489H87.46L87.93 34.419ZM83.28 42.919C82.6342 41.9018 82.0979 40.8191 81.68 39.689C81.4878 41.4635 81.0746 43.207 80.45 44.879C81.5071 44.4119 82.4671 43.7505 83.28 42.929V42.919ZM81.85 37.869L83.57 37.469C83.9002 38.5764 84.3814 39.633 85 40.609C85.5827 39.515 86.0165 38.348 86.29 37.139H81.88L81.85 37.869Z" fill="#222222"/>
<path d="M110.95 32.999H106.32C107.773 34.6291 109.603 35.8788 111.65 36.639C110.851 37.3801 110.157 38.2281 109.59 39.159C108.203 38.5 106.932 37.6184 105.83 36.549V37.999H97.83V36.689C96.6944 37.6914 95.438 38.548 94.09 39.239C93.5447 38.3388 92.8358 37.5485 92 36.909C94.0441 36.0557 95.847 34.713 97.25 32.999H92.85V30.389H98.85C99.1685 29.6877 99.4196 28.9578 99.6 28.209L103.36 28.659C103.319 28.7961 103.232 28.9147 103.113 28.9949C102.995 29.0751 102.852 29.1119 102.71 29.099C102.57 29.519 102.41 29.969 102.22 30.389H110.97L110.95 32.999ZM99.11 43.149C99.0457 43.2353 98.9571 43.3005 98.8556 43.3361C98.754 43.3718 98.6441 43.3763 98.54 43.349C97.5415 44.7036 96.3249 45.883 94.94 46.839C94.2699 46.2057 93.5473 45.6303 92.78 45.119C94.0798 44.3415 95.1819 43.2736 96 41.999L99.11 43.149ZM109.17 41.699H103.39V44.749C103.39 46.809 102.64 47.439 98.82 47.439C98.5926 46.5575 98.2567 45.7077 97.82 44.909C98.3 44.909 98.93 44.969 99.42 44.969C100.31 44.969 100.42 44.969 100.42 44.649V41.699H94.62V39.169H109.17V41.699ZM104.81 35.499C104.131 34.7229 103.525 33.8861 103 32.999H100.86C100.32 33.889 99.6973 34.726 99 35.499H104.81ZM107.72 46.929C106.766 45.6367 105.684 44.444 104.49 43.369L106.87 42.059C108.104 43.079 109.246 44.2068 110.28 45.429L107.72 46.929Z" fill="#222222"/>
<path d="M124.18 31.6797H131.27V42.1897H128.18V41.2397H124.18V47.4197H121.09V41.2397H117.29V42.2897H114.34V31.6797H121.09V28.2197L124.83 28.4197C124.83 28.6397 124.63 28.7797 124.18 28.8597V31.6797ZM117.29 38.3497H121.09V34.5697H117.29V38.3497ZM124.18 38.3497H128.18V34.5697H124.18V38.3497Z" fill="#222222"/>
<path d="M152.73 39.9197H145.92C147.33 42.2997 149.66 43.9197 153.35 44.5297C152.555 45.4053 151.883 46.3842 151.35 47.4397C149.713 47.1379 148.163 46.4751 146.814 45.4995C145.465 44.5239 144.35 43.2601 143.55 41.7997C142.32 44.2397 139.95 46.3297 135.49 47.4797C135.027 46.4956 134.435 45.5776 133.73 44.7497C137.79 43.7497 139.81 41.9797 140.8 39.9197H134.19V36.9997H136.19V30.7497H141.71V28.2197L145.51 28.4197C145.51 28.6597 145.31 28.7997 144.86 28.8797V30.7397H150.76V36.9997H152.76L152.73 39.9197ZM139.13 36.9997H141.58C141.653 36.4026 141.686 35.8013 141.68 35.1997V33.6197H139.13V36.9997ZM147.6 33.5897H144.83V35.2297C144.83 35.8197 144.83 36.4197 144.77 37.0097H147.6V33.5897Z" fill="#222222"/>
<path d="M156.92 40.2894V30.2894L160.68 30.4894C160.68 30.7094 160.48 30.8694 160.05 30.9394V40.3194L156.92 40.2894ZM169.24 29.3594C169.24 29.5794 169.04 29.7394 168.61 29.7994V36.0594C168.61 40.3594 167.22 44.3994 161.61 46.8094C160.904 45.9762 160.113 45.2188 159.25 44.5494C164.46 42.5494 165.43 39.2194 165.43 36.0394V29.1494L169.24 29.3594Z" fill="#222222"/>
<path d="M180.16 32.179C180.118 32.302 180.039 32.4088 179.933 32.4841C179.827 32.5595 179.7 32.5997 179.57 32.599C178.74 37.109 177.43 41.989 175.02 45.599C174.063 45.005 173.052 44.5028 172 44.099C174.38 40.789 175.56 36.159 176.18 31.269L180.16 32.179ZM186.25 30.999C188.357 35.1824 190.016 39.5768 191.2 44.109L187.87 45.439C186.708 40.8863 185.111 36.4559 183.1 32.209L186.25 30.999Z" fill="#222222"/>
<path d="M198 41.1493C198 42.6493 198.65 43.1493 200.4 43.1493H204.34C205.872 43.0992 207.399 42.9455 208.91 42.6893L209.03 45.7993C207.553 45.9775 206.067 46.0709 204.58 46.0793H200.28C196.52 46.0793 194.89 44.5593 194.89 41.1693V29.4793L198.67 29.6393C198.67 29.8793 198.49 30.0893 198 30.1493V35.8693C200.831 34.8957 203.579 33.6986 206.22 32.2893L208.22 35.1593C208.109 35.2177 207.985 35.2453 207.86 35.2393C207.747 35.2508 207.633 35.2508 207.52 35.2393C204.431 36.6209 201.25 37.787 198 38.7293V41.1493ZM207.17 32.4393C206.569 31.4438 205.873 30.5093 205.09 29.6493L206.4 28.6493C207.216 29.4845 207.946 30.3991 208.58 31.3793L207.17 32.4393ZM210.17 31.5293C209.537 30.5761 208.835 29.6704 208.07 28.8193L209.36 27.8193C210.187 28.6329 210.931 29.5273 211.58 30.4893L210.17 31.5293Z" fill="#222222"/>
<path d="M215.68 40.2894V30.2894L219.44 30.4894C219.44 30.7094 219.24 30.8694 218.81 30.9394V40.3194L215.68 40.2894ZM228 29.3594C228 29.5794 227.8 29.7394 227.37 29.7994V36.0594C227.37 40.3594 225.98 44.3994 220.37 46.8094C219.661 45.9758 218.866 45.2183 218 44.5494C223.21 42.5494 224.18 39.2194 224.18 36.0394V29.1494L228 29.3594Z" fill="#222222"/>
<path d="M249.43 37.919H243.31L243.76 38.039C243.713 38.1312 243.639 38.2071 243.548 38.257C243.457 38.3069 243.353 38.3285 243.25 38.319C243.047 40.1252 242.39 41.8507 241.341 43.3351C240.292 44.8195 238.885 46.0145 237.25 46.809C236.504 46.0595 235.705 45.3643 234.86 44.729C238.72 42.729 239.61 40.629 239.95 37.899H233.04V35.069H249.4L249.43 37.919ZM247.35 32.339H234.93V29.499H247.35V32.339Z" fill="#222222"/>
<path d="M253.22 35.999H270.09V39.069H254.09C253.999 39.1774 253.888 39.2668 253.763 39.332C253.638 39.3972 253.501 39.437 253.36 39.449L253.22 35.999Z" fill="#222222"/>
<path d="M274.92 34.3592C276.662 34.8229 278.354 35.4594 279.97 36.2592L278.63 38.9092C277.012 38.0887 275.321 37.4192 273.58 36.9092L274.92 34.3592ZM275.18 43.5492C281.18 41.7692 285.73 38.5492 288.51 32.6192C289.366 33.3391 290.264 34.007 291.2 34.6192C289.839 37.3197 287.948 39.7188 285.641 41.6738C283.334 43.6288 280.657 45.0998 277.77 45.9992C277.788 46.1214 277.764 46.2461 277.702 46.3531C277.641 46.4602 277.545 46.5433 277.43 46.5892L275.18 43.5492ZM277.44 29.4092C279.196 29.9314 280.906 30.6004 282.55 31.4092L281 33.9992C279.41 33.1022 277.735 32.3652 276 31.7992L277.44 29.4092Z" fill="#222222"/>
<path d="M306.14 34.0791V46.6491H303.71V45.8591H295.33V43.6191H303.71V41.1291H296.23V38.8891H303.71V36.3291H295.8V34.0791H306.14Z" fill="#222222"/>
<path d="M312.84 30.0596C314.9 30.6846 316.875 31.5612 318.72 32.6696L317.1 35.4796C315.292 34.371 313.375 33.4496 311.38 32.7296L312.84 30.0596ZM311.84 43.5596C318.49 41.5596 323.11 37.5596 325.42 32.0596C326.331 32.745 327.298 33.3537 328.31 33.8796C325.81 39.3796 321.02 43.6996 314.41 46.0996C314.39 46.2146 314.345 46.3237 314.277 46.4189C314.21 46.5141 314.122 46.5929 314.02 46.6496L311.84 43.5596Z" fill="#222222"/>
<path d="M348.53 40.3297V42.7797H344.28V44.6797C344.28 47.0397 343.28 47.4297 339.28 47.4297C339.107 46.5377 338.815 45.6732 338.41 44.8597C339.32 44.9197 340.63 44.9197 340.96 44.9197C341.29 44.9197 341.41 44.8397 341.41 44.5797V42.7797H335.67C336.495 43.4069 337.24 44.1322 337.89 44.9397L335.53 46.6597C334.75 45.5809 333.824 44.6151 332.78 43.7897L334.23 42.7897H330V40.3297H341.4V39.5197H332.17V32.4497H337.81V31.7997H330.38V29.4197H337.81V28.2197L341.31 28.3997C341.31 28.6197 341.13 28.7597 340.7 28.8497V29.4097H348.22V31.7997H340.7V32.4497H346.7V39.5197H344.88C344.88 39.6997 344.68 39.8397 344.29 39.8997V40.3197L348.53 40.3297ZM334.91 34.3897V35.0797H337.8V34.3897H334.91ZM334.91 36.8997V37.5697H337.8V36.8997H334.91ZM343.8 34.3897H340.69V35.0797H343.8V34.3897ZM343.8 37.5597V36.8897H340.69V37.5597H343.8Z" fill="#222222"/>
<path d="M359.42 28.999V36.999H354.29V47.419H351.38V28.999H359.42ZM356.67 31.339H354.29V31.989H356.67V31.339ZM354.29 34.749H356.67V33.999H354.29V34.749ZM368.77 28.999V43.999C368.77 46.889 367.66 47.429 363.01 47.429C362.818 46.3872 362.482 45.3774 362.01 44.429C362.88 44.509 363.93 44.509 364.62 44.509C365.62 44.509 365.83 44.509 365.83 43.959V37.089H360.56V28.999H368.77ZM365.77 31.339H363.29V31.989H365.77V31.339ZM363.29 34.819H365.77V33.999H363.29V34.819Z" fill="#222222"/>
<path d="M390.05 39.6791V42.3691H382.43V44.3691C382.43 46.6491 381.64 47.4191 376.93 47.4191C376.665 46.4223 376.272 45.4643 375.76 44.5691C376.89 44.6291 378.49 44.6291 378.89 44.6291C379.29 44.6291 379.41 44.5491 379.41 44.2691V42.3691H371.83V39.6791H379.41V38.4691L380.73 38.5291C381.05 38.2691 381.36 37.9791 381.66 37.6991H375.58V35.1691H384.23L384.69 35.0291L386.91 36.3391C386.781 36.5051 386.596 36.6188 386.39 36.6591C385.389 37.7522 384.295 38.7559 383.12 39.6591L390.05 39.6791ZM374.9 33.9391V36.5491H372.15V31.3591H374.57C374.207 30.7158 373.796 30.1007 373.34 29.5191L375.84 28.4091C376.6 29.2243 377.239 30.1435 377.74 31.1391L377.26 31.3591H379.54C379.205 30.5719 378.814 29.8099 378.37 29.0791L380.98 28.0791C381.655 28.9986 382.197 30.0085 382.59 31.0791L381.91 31.3391H384.13C384.748 30.3851 385.287 29.3817 385.74 28.3391L389.15 29.5291C389.075 29.6254 388.974 29.6989 388.859 29.7413C388.744 29.7836 388.62 29.7933 388.5 29.7691C388.174 30.3141 387.809 30.8354 387.41 31.3291H389.87V36.5191H387V33.9391H374.9Z" fill="#222222"/>
<path d="M398 35.7397C398.57 36.4897 400.12 38.9297 400.46 39.4997L398.89 41.6597C398.67 41.0697 398.34 40.3297 398 39.5797V47.4197H395.29V40.8497C394.883 41.9628 394.338 43.0209 393.67 43.9997C393.33 43.0626 392.898 42.1615 392.38 41.3097C393.65 39.3893 394.561 37.2549 395.07 35.0097H392.91V32.3097H395.25V28.2197L398.54 28.3997C398.54 28.5997 398.36 28.7397 397.95 28.7997V32.2997H400V34.9997H398V35.7397ZM409 33.6397C410.16 34.8241 411.14 36.1716 411.91 37.6397L409.43 39.0797C409.43 38.9797 409.35 38.8597 409.29 38.7397C408.864 39.9637 408.286 41.1294 407.57 42.2097C408.841 43.3968 410.351 44.2971 412 44.8497C411.219 45.6332 410.546 46.5177 410 47.4797C408.389 46.8049 406.932 45.8078 405.72 44.5497C404.304 45.8766 402.614 46.8767 400.77 47.4797C400.358 46.6574 399.862 45.8799 399.29 45.1597C401.071 44.6443 402.692 43.6842 404 42.3697C403.266 41.2422 402.655 40.0385 402.18 38.7797L401.61 39.2797C401.008 38.5815 400.338 37.945 399.61 37.3797C400.83 36.3546 401.816 35.0791 402.5 33.6397H400.32V30.9997H404.46V28.2197L407.96 28.3997C407.96 28.6197 407.78 28.7597 407.35 28.8497V30.9997H411.69V33.6897L409 33.6397ZM405.41 34.8097C405.354 34.8953 405.273 34.9621 405.179 35.0013C405.084 35.0406 404.98 35.0505 404.88 35.0297C404.357 36.0084 403.734 36.93 403.02 37.7797L404.39 37.4197C404.73 38.3254 405.17 39.1907 405.7 39.9997C406.143 39.1477 406.479 38.2442 406.7 37.3097L408.7 37.7597C408.071 36.7289 407.362 35.7492 406.58 34.8297L408.58 33.6797H402.58L405.41 34.8097Z" fill="#222222"/>
</svg>
