<svg width="412" height="70" viewBox="0 0 412 70" fill="none" xmlns="http://www.w3.org/2000/svg">
<g clip-path="url(#clip0_1_591)">
<path d="M13.16 19.91C9.47003 19.91 6.47003 17.47 6.47003 14.47C6.47003 11.47 9.47003 8.99999 13.16 8.99999C14.6508 8.98838 16.113 9.40863 17.37 10.21C17.4011 10.2333 17.4263 10.2635 17.4436 10.2982C17.461 10.3329 17.47 10.3712 17.47 10.41C17.47 10.4488 17.461 10.4871 17.4436 10.5218C17.4263 10.5565 17.4011 10.5867 17.37 10.61C16.3817 11.2634 15.6393 12.2275 15.26 13.35C15.2431 13.4001 15.2108 13.4435 15.1677 13.474C15.1246 13.5046 15.0729 13.5207 15.02 13.52C13.76 13.52 12.9 14.06 12.9 14.52C12.9 14.98 13.76 15.52 15 15.52C15.0556 15.5181 15.1104 15.5334 15.1569 15.5639C15.2035 15.5943 15.2395 15.6383 15.26 15.69C15.611 16.7504 16.2905 17.6715 17.2 18.32C17.233 18.3419 17.2601 18.3716 17.2788 18.4065C17.2976 18.4414 17.3074 18.4804 17.3074 18.52C17.3074 18.5596 17.2976 18.5986 17.2788 18.6335C17.2601 18.6684 17.233 18.6981 17.2 18.72C15.9929 19.4466 14.609 19.8272 13.2 19.82L13.16 19.91ZM13.16 9.51999C9.75003 9.51999 7.00003 11.74 7.00003 14.47C7.00003 17.2 9.78003 19.47 13.2 19.47C14.4061 19.4789 15.5954 19.1867 16.66 18.62C15.8552 17.9699 15.2432 17.1124 14.89 16.14C13.49 16.09 12.45 15.44 12.45 14.63C12.45 13.82 13.51 13.16 14.89 13.12C15.2748 12.0802 15.952 11.1738 16.84 10.51C15.7294 9.88468 14.4746 9.56063 13.2 9.56999L13.16 9.51999Z" fill="#0079C3"/>
<path d="M44.19 19.91C42.8142 19.9333 41.4573 19.588 40.26 18.91C40.2248 18.8886 40.1957 18.8585 40.1755 18.8226C40.1554 18.7867 40.1448 18.7462 40.1448 18.705C40.1448 18.6638 40.1554 18.6233 40.1755 18.5874C40.1957 18.5515 40.2248 18.5214 40.26 18.5C41.2006 17.8438 41.9025 16.8998 42.26 15.81C42.2763 15.7615 42.3071 15.7193 42.3483 15.6889C42.3894 15.6585 42.4389 15.6414 42.49 15.64C43.55 15.64 44.49 15.14 44.49 14.64C44.49 14.14 43.59 13.64 42.49 13.64C42.4389 13.6386 42.3894 13.6215 42.3483 13.5911C42.3071 13.5607 42.2763 13.5185 42.26 13.47C41.8697 12.3147 41.0972 11.327 40.07 10.67C40.0357 10.6468 40.0077 10.6155 39.9885 10.5789C39.9693 10.5422 39.9595 10.5014 39.96 10.46C39.9603 10.4202 39.9705 10.381 39.9897 10.3461C40.0089 10.3112 40.0365 10.2816 40.07 10.26C41.294 9.45345 42.7242 9.01606 44.19 9C47.88 9 50.88 11.44 50.88 14.44C50.88 17.44 47.88 19.88 44.19 19.88V19.91ZM40.83 18.63C41.8697 19.162 43.0221 19.4363 44.19 19.43C47.61 19.43 50.39 17.21 50.39 14.43C50.39 11.65 47.61 9.48 44.19 9.48C42.9532 9.46856 41.7343 9.77502 40.65 10.37C41.5654 11.0432 42.2613 11.9722 42.65 13.04C43.95 13.13 44.92 13.76 44.92 14.54C44.92 15.32 43.92 15.95 42.66 16.04C42.2962 17.0421 41.6588 17.9221 40.82 18.58L40.83 18.63Z" fill="#0079C3"/>
<path d="M26.55 8.26H26.47C26.4052 8.23918 26.3506 8.19464 26.3172 8.1353C26.2839 8.07596 26.2741 8.00621 26.29 7.94L27.22 5.13L24.86 3.43C24.8284 3.40728 24.8027 3.3772 24.7853 3.34236C24.7679 3.30751 24.7592 3.26895 24.76 3.23C24.7568 3.16048 24.7796 3.09226 24.824 3.03865C24.8684 2.98504 24.9311 2.94987 25 2.94H27.92L28.84 0.149999C28.8633 0.103719 28.8991 0.0648274 28.9432 0.0376544C28.9874 0.0104814 29.0382 -0.00390625 29.09 -0.00390625C29.1418 -0.00390625 29.1926 0.0104814 29.2368 0.0376544C29.2809 0.0648274 29.3167 0.103719 29.34 0.149999L30.26 2.94H33.18C33.2446 2.93995 33.3067 2.96491 33.3533 3.00965C33.3999 3.05439 33.4274 3.11544 33.43 3.18C33.4303 3.22319 33.4215 3.26596 33.4043 3.30556C33.3871 3.34517 33.3618 3.38074 33.33 3.41L31 5.12L31.93 7.93C31.9495 7.99105 31.9448 8.05725 31.9169 8.11494C31.889 8.17263 31.84 8.2174 31.78 8.24C31.7406 8.25735 31.698 8.26632 31.655 8.26632C31.612 8.26632 31.5694 8.25735 31.53 8.24L29.13 6.51L26.73 8.24C26.6844 8.25391 26.6356 8.25391 26.59 8.24L26.55 8.26ZM29.09 5.94C29.1356 5.92608 29.1844 5.92608 29.23 5.94L31.23 7.36L30.47 5.06C30.4542 5.01128 30.4545 4.9588 30.4707 4.91022C30.4869 4.86164 30.5182 4.81952 30.56 4.79L32.5 3.39H30.08C30.0289 3.38859 29.9794 3.37154 29.9383 3.34114C29.8972 3.31074 29.8663 3.26846 29.85 3.22L29.09 0.999999L28.33 3.3C28.3137 3.34846 28.2828 3.39074 28.2417 3.42114C28.2006 3.45154 28.1511 3.46859 28.1 3.47H25.71L27.65 4.87C27.6918 4.89952 27.7231 4.94164 27.7393 4.99022C27.7555 5.0388 27.7558 5.09128 27.74 5.14L27 7.4L29 5.98C29.0456 5.96608 29.0944 5.96608 29.14 5.98L29.09 5.94Z" fill="#0079C3"/>
<path d="M29 70C28.9365 69.9991 28.8757 69.9741 28.83 69.93C28.77 69.87 22.89 64.4 15.38 63.93C2.47 63.13 2.48 57.42 2.49 52.38V31C1.7354 30.6419 1.09957 30.0745 0.658147 29.3653C0.216721 28.6562 -0.0117186 27.8352 2.16474e-06 27C2.16474e-06 24.32 1.56 22.53 3.89 22.53C6.22 22.53 14.49 26.53 15.29 26.92H42.71C43.51 26.52 51.56 22.53 54.11 22.53C56.44 22.53 58 24.33 58 27C58.0114 27.8339 57.7839 28.6536 57.3445 29.3624C56.905 30.0712 56.272 30.6394 55.52 31V55.13C55.52 57.53 55.52 63.13 42.62 63.94C35.11 64.41 29.23 69.88 29.17 69.94C29.1228 69.9805 29.0622 70.0019 29 70ZM3.89 23C1.54 23 0.490002 25 0.490002 27C0.468394 27.7756 0.679803 28.5398 1.09693 29.194C1.51405 29.8483 2.11773 30.3624 2.83 30.67C2.87472 30.6895 2.91275 30.7217 2.93941 30.7626C2.96606 30.8035 2.98017 30.8512 2.98 30.9V52.4C2.98 57.46 2.98 62.69 15.41 63.46C22.41 63.89 27.97 68.53 29 69.46C30 68.55 35.61 63.92 42.59 63.46C55 62.68 55 57.39 55 55.13V30.89C54.9985 30.841 55.012 30.7926 55.0389 30.7515C55.0657 30.7103 55.1045 30.6784 55.15 30.66C55.8644 30.3561 56.4712 29.8448 56.8919 29.1924C57.3126 28.5399 57.5279 27.7762 57.51 27C57.51 25 56.46 23 54.11 23C51.6 23 43 27.33 42.88 27.37H42.77H15.23H15.12C15 27.33 6.32 23 3.89 23Z" fill="#0079C3"/>
<path d="M29 67C28.9459 67 28.8933 66.9825 28.85 66.95C28.79 66.95 22.68 62.2 16.23 61.8C5.13001 61.11 5.14001 56.2 5.14001 51.86V26.29C5.1403 26.2502 5.15051 26.211 5.16972 26.1761C5.18892 26.1412 5.21652 26.1116 5.25001 26.09C5.28555 26.0716 5.32499 26.062 5.36501 26.062C5.40504 26.062 5.44448 26.0716 5.48001 26.09L15.04 29.82H43.04L52.51 26.11C52.5456 26.0916 52.585 26.082 52.625 26.082C52.665 26.082 52.7045 26.0916 52.74 26.11C52.7735 26.1316 52.8011 26.1612 52.8203 26.1961C52.8395 26.231 52.8497 26.2702 52.85 26.31V51.81C52.85 56.15 52.85 61.06 41.76 61.75C35.32 62.15 29.21 66.85 29.15 66.9C29.1142 66.9509 29.0607 66.9865 29 67ZM5.64001 26.65V51.81C5.64001 56.13 5.64002 60.6 16.27 61.26C22.27 61.63 28.01 65.66 29.01 66.4C30.01 65.67 35.72 61.64 41.74 61.26C52.38 60.6 52.37 56.13 52.37 51.81V26.65L43.14 30.25L15 30.26L5.64001 26.65Z" fill="#0079C3"/>
<path d="M15.35 27.16H15.29C15.2589 27.1519 15.2297 27.1377 15.2042 27.1181C15.1787 27.0985 15.1573 27.074 15.1415 27.046C15.1256 27.018 15.1155 26.9872 15.1119 26.9552C15.1082 26.9232 15.1109 26.8909 15.12 26.86C15.29 26.24 15.46 25.71 15.6 25.26C16.01 24 16.21 23.37 15.79 22.65C15.15 21.56 14.23 19.73 14.22 19.71C14.2036 19.6538 14.2075 19.5936 14.2309 19.54C14.2543 19.4863 14.2959 19.4426 14.3482 19.4164C14.4006 19.3902 14.4605 19.3833 14.5175 19.3967C14.5744 19.4102 14.6249 19.4432 14.66 19.49C14.66 19.49 15.58 21.33 16.22 22.41C16.75 23.32 16.5 24.11 16.08 25.41C15.94 25.86 15.77 26.41 15.6 26.98C15.5864 27.0328 15.5552 27.0794 15.5116 27.1121C15.468 27.1449 15.4145 27.1617 15.36 27.16H15.35Z" fill="#0079C3"/>
<path d="M42.26 27.16C42.2048 27.1677 42.1487 27.1559 42.1013 27.1267C42.0538 27.0975 42.018 27.0527 42 27C41.83 26.39 41.67 25.87 41.52 25.42C41.1 24.11 40.84 23.32 41.38 22.42C42.01 21.34 42.93 19.52 42.94 19.5C42.9751 19.4532 43.0256 19.4202 43.0825 19.4067C43.1395 19.3933 43.1994 19.4002 43.2518 19.4264C43.3041 19.4526 43.3457 19.4963 43.3691 19.55C43.3925 19.6036 43.3964 19.6638 43.38 19.72C43.38 19.72 42.45 21.57 41.81 22.66C41.39 23.38 41.59 24.01 42 25.27C42.15 25.72 42.31 26.27 42.48 26.87C42.4891 26.9009 42.4918 26.9333 42.4881 26.9652C42.4845 26.9972 42.4744 27.028 42.4585 27.056C42.4427 27.084 42.4213 27.1085 42.3958 27.1281C42.3703 27.1477 42.3411 27.1619 42.31 27.17L42.26 27.16Z" fill="#0079C3"/>
<path d="M39.13 23.41H18.48C18.415 23.41 18.3527 23.3842 18.3067 23.3382C18.2608 23.2923 18.235 23.23 18.235 23.165C18.235 23.1 18.2608 23.0377 18.3067 22.9917C18.3527 22.9458 18.415 22.92 18.48 22.92H39.13C39.195 22.92 39.2573 22.9458 39.3032 22.9917C39.3492 23.0377 39.375 23.1 39.375 23.165C39.375 23.23 39.3492 23.2923 39.3032 23.3382C39.2573 23.3842 39.195 23.41 39.13 23.41Z" fill="#0079C3"/>
<path d="M39.13 21.85H18.48C18.415 21.85 18.3527 21.8242 18.3067 21.7782C18.2608 21.7323 18.235 21.67 18.235 21.605C18.235 21.54 18.2608 21.4777 18.3067 21.4317C18.3527 21.3858 18.415 21.36 18.48 21.36H39.13C39.195 21.36 39.2573 21.3858 39.3032 21.4317C39.3492 21.4777 39.375 21.54 39.375 21.605C39.375 21.67 39.3492 21.7323 39.3032 21.7782C39.2573 21.8242 39.195 21.85 39.13 21.85Z" fill="#0079C3"/>
<path d="M14.37 11.9C14.6738 11.9 14.92 11.6537 14.92 11.35C14.92 11.0462 14.6738 10.8 14.37 10.8C14.0663 10.8 13.82 11.0462 13.82 11.35C13.82 11.6537 14.0663 11.9 14.37 11.9Z" fill="#0079C3"/>
<path d="M12.09 11.9C12.3937 11.9 12.64 11.6537 12.64 11.35C12.64 11.0462 12.3937 10.8 12.09 10.8C11.7862 10.8 11.54 11.0462 11.54 11.35C11.54 11.6537 11.7862 11.9 12.09 11.9Z" fill="#0079C3"/>
<path d="M10.13 12.86C10.4338 12.86 10.68 12.6138 10.68 12.31C10.68 12.0063 10.4338 11.76 10.13 11.76C9.82626 11.76 9.58002 12.0063 9.58002 12.31C9.58002 12.6138 9.82626 12.86 10.13 12.86Z" fill="#0079C3"/>
<path d="M8.99 14.9C9.29376 14.9 9.54 14.6537 9.54 14.35C9.54 14.0462 9.29376 13.8 8.99 13.8C8.68625 13.8 8.44 14.0462 8.44 14.35C8.44 14.6537 8.68625 14.9 8.99 14.9Z" fill="#0079C3"/>
<path d="M10.13 17.03C10.4338 17.03 10.68 16.7837 10.68 16.48C10.68 16.1762 10.4338 15.93 10.13 15.93C9.82626 15.93 9.58002 16.1762 9.58002 16.48C9.58002 16.7837 9.82626 17.03 10.13 17.03Z" fill="#0079C3"/>
<path d="M12.09 18.35C12.3937 18.35 12.64 18.1038 12.64 17.8C12.64 17.4962 12.3937 17.25 12.09 17.25C11.7862 17.25 11.54 17.4962 11.54 17.8C11.54 18.1038 11.7862 18.35 12.09 18.35Z" fill="#0079C3"/>
<path d="M14.37 18.44C14.6738 18.44 14.92 18.1938 14.92 17.89C14.92 17.5863 14.6738 17.34 14.37 17.34C14.0663 17.34 13.82 17.5863 13.82 17.89C13.82 18.1938 14.0663 18.44 14.37 18.44Z" fill="#0079C3"/>
<path d="M42.99 11.9C43.2938 11.9 43.54 11.6537 43.54 11.35C43.54 11.0462 43.2938 10.8 42.99 10.8C42.6862 10.8 42.44 11.0462 42.44 11.35C42.44 11.6537 42.6862 11.9 42.99 11.9Z" fill="#0079C3"/>
<path d="M45.27 11.9C45.5738 11.9 45.82 11.6537 45.82 11.35C45.82 11.0462 45.5738 10.8 45.27 10.8C44.9663 10.8 44.72 11.0462 44.72 11.35C44.72 11.6537 44.9663 11.9 45.27 11.9Z" fill="#0079C3"/>
<path d="M47.23 12.86C47.5337 12.86 47.78 12.6138 47.78 12.31C47.78 12.0063 47.5337 11.76 47.23 11.76C46.9262 11.76 46.68 12.0063 46.68 12.31C46.68 12.6138 46.9262 12.86 47.23 12.86Z" fill="#0079C3"/>
<path d="M48.37 14.9C48.6738 14.9 48.92 14.6537 48.92 14.35C48.92 14.0462 48.6738 13.8 48.37 13.8C48.0662 13.8 47.82 14.0462 47.82 14.35C47.82 14.6537 48.0662 14.9 48.37 14.9Z" fill="#0079C3"/>
<path d="M47.23 17.03C47.5337 17.03 47.78 16.7837 47.78 16.48C47.78 16.1762 47.5337 15.93 47.23 15.93C46.9262 15.93 46.68 16.1762 46.68 16.48C46.68 16.7837 46.9262 17.03 47.23 17.03Z" fill="#0079C3"/>
<path d="M45.27 18.35C45.5738 18.35 45.82 18.1038 45.82 17.8C45.82 17.4962 45.5738 17.25 45.27 17.25C44.9663 17.25 44.72 17.4962 44.72 17.8C44.72 18.1038 44.9663 18.35 45.27 18.35Z" fill="#0079C3"/>
<path d="M42.99 18.44C43.2938 18.44 43.54 18.1938 43.54 17.89C43.54 17.5863 43.2938 17.34 42.99 17.34C42.6862 17.34 42.44 17.5863 42.44 17.89C42.44 18.1938 42.6862 18.44 42.99 18.44Z" fill="#0079C3"/>
<path d="M23.94 11.9C24.2438 11.9 24.49 11.6537 24.49 11.35C24.49 11.0462 24.2438 10.8 23.94 10.8C23.6363 10.8 23.39 11.0462 23.39 11.35C23.39 11.6537 23.6363 11.9 23.94 11.9Z" fill="#0079C3"/>
<path d="M21.27 11.9C21.5737 11.9 21.82 11.6537 21.82 11.35C21.82 11.0462 21.5737 10.8 21.27 10.8C20.9662 10.8 20.72 11.0462 20.72 11.35C20.72 11.6537 20.9662 11.9 21.27 11.9Z" fill="#0079C3"/>
<path d="M18.79 12.64C19.0937 12.64 19.34 12.3937 19.34 12.09C19.34 11.7862 19.0937 11.54 18.79 11.54C18.4862 11.54 18.24 11.7862 18.24 12.09C18.24 12.3937 18.4862 12.64 18.79 12.64Z" fill="#0079C3"/>
<path d="M17.32 15.18C17.6238 15.18 17.87 14.9338 17.87 14.63C17.87 14.3263 17.6238 14.08 17.32 14.08C17.0163 14.08 16.77 14.3263 16.77 14.63C16.77 14.9338 17.0163 15.18 17.32 15.18Z" fill="#0079C3"/>
<path d="M18.79 17.4C19.0937 17.4 19.34 17.1537 19.34 16.85C19.34 16.5462 19.0937 16.3 18.79 16.3C18.4862 16.3 18.24 16.5462 18.24 16.85C18.24 17.1537 18.4862 17.4 18.79 17.4Z" fill="#0079C3"/>
<path d="M19.59 25.76C19.8937 25.76 20.14 25.5137 20.14 25.21C20.14 24.9062 19.8937 24.66 19.59 24.66C19.2862 24.66 19.04 24.9062 19.04 25.21C19.04 25.5137 19.2862 25.76 19.59 25.76Z" fill="#0079C3"/>
<path d="M21.95 25.76C22.2538 25.76 22.5 25.5137 22.5 25.21C22.5 24.9062 22.2538 24.66 21.95 24.66C21.6463 24.66 21.4 24.9062 21.4 25.21C21.4 25.5137 21.6463 25.76 21.95 25.76Z" fill="#0079C3"/>
<path d="M24.31 25.76C24.6138 25.76 24.86 25.5137 24.86 25.21C24.86 24.9062 24.6138 24.66 24.31 24.66C24.0063 24.66 23.76 24.9062 23.76 25.21C23.76 25.5137 24.0063 25.76 24.31 25.76Z" fill="#0079C3"/>
<path d="M26.67 25.76C26.9738 25.76 27.22 25.5137 27.22 25.21C27.22 24.9062 26.9738 24.66 26.67 24.66C26.3662 24.66 26.12 24.9062 26.12 25.21C26.12 25.5137 26.3662 25.76 26.67 25.76Z" fill="#0079C3"/>
<path d="M29.03 25.76C29.3337 25.76 29.58 25.5137 29.58 25.21C29.58 24.9062 29.3337 24.66 29.03 24.66C28.7262 24.66 28.48 24.9062 28.48 25.21C28.48 25.5137 28.7262 25.76 29.03 25.76Z" fill="#0079C3"/>
<path d="M31.39 25.76C31.6938 25.76 31.94 25.5137 31.94 25.21C31.94 24.9062 31.6938 24.66 31.39 24.66C31.0863 24.66 30.84 24.9062 30.84 25.21C30.84 25.5137 31.0863 25.76 31.39 25.76Z" fill="#0079C3"/>
<path d="M33.75 25.76C34.0538 25.76 34.3 25.5137 34.3 25.21C34.3 24.9062 34.0538 24.66 33.75 24.66C33.4463 24.66 33.2 24.9062 33.2 25.21C33.2 25.5137 33.4463 25.76 33.75 25.76Z" fill="#0079C3"/>
<path d="M36.11 25.76C36.4138 25.76 36.66 25.5137 36.66 25.21C36.66 24.9062 36.4138 24.66 36.11 24.66C35.8062 24.66 35.56 24.9062 35.56 25.21C35.56 25.5137 35.8062 25.76 36.11 25.76Z" fill="#0079C3"/>
<path d="M38.47 25.76C38.7737 25.76 39.02 25.5137 39.02 25.21C39.02 24.9062 38.7737 24.66 38.47 24.66C38.1662 24.66 37.92 24.9062 37.92 25.21C37.92 25.5137 38.1662 25.76 38.47 25.76Z" fill="#0079C3"/>
<path d="M21.27 18.59C21.5737 18.59 21.82 18.3437 21.82 18.04C21.82 17.7362 21.5737 17.49 21.27 17.49C20.9662 17.49 20.72 17.7362 20.72 18.04C20.72 18.3437 20.9662 18.59 21.27 18.59Z" fill="#0079C3"/>
<path d="M23.94 18.22C24.2438 18.22 24.49 17.9738 24.49 17.67C24.49 17.3662 24.2438 17.12 23.94 17.12C23.6363 17.12 23.39 17.3662 23.39 17.67C23.39 17.9738 23.6363 18.22 23.94 18.22Z" fill="#0079C3"/>
<path d="M33.58 11.9C33.8838 11.9 34.13 11.6537 34.13 11.35C34.13 11.0462 33.8838 10.8 33.58 10.8C33.2763 10.8 33.03 11.0462 33.03 11.35C33.03 11.6537 33.2763 11.9 33.58 11.9Z" fill="#0079C3"/>
<path d="M36.25 11.9C36.5538 11.9 36.8 11.6537 36.8 11.35C36.8 11.0462 36.5538 10.8 36.25 10.8C35.9463 10.8 35.7 11.0462 35.7 11.35C35.7 11.6537 35.9463 11.9 36.25 11.9Z" fill="#0079C3"/>
<path d="M38.73 12.64C39.0337 12.64 39.28 12.3937 39.28 12.09C39.28 11.7862 39.0337 11.54 38.73 11.54C38.4262 11.54 38.18 11.7862 38.18 12.09C38.18 12.3937 38.4262 12.64 38.73 12.64Z" fill="#0079C3"/>
<path d="M40.21 15.18C40.5138 15.18 40.76 14.9338 40.76 14.63C40.76 14.3263 40.5138 14.08 40.21 14.08C39.9063 14.08 39.66 14.3263 39.66 14.63C39.66 14.9338 39.9063 15.18 40.21 15.18Z" fill="#0079C3"/>
<path d="M38.73 17.4C39.0337 17.4 39.28 17.1537 39.28 16.85C39.28 16.5462 39.0337 16.3 38.73 16.3C38.4262 16.3 38.18 16.5462 38.18 16.85C38.18 17.1537 38.4262 17.4 38.73 17.4Z" fill="#0079C3"/>
<path d="M36.25 18.59C36.5538 18.59 36.8 18.3437 36.8 18.04C36.8 17.7362 36.5538 17.49 36.25 17.49C35.9463 17.49 35.7 17.7362 35.7 18.04C35.7 18.3437 35.9463 18.59 36.25 18.59Z" fill="#0079C3"/>
<path d="M33.58 18.22C33.8838 18.22 34.13 17.9738 34.13 17.67C34.13 17.3662 33.8838 17.12 33.58 17.12C33.2763 17.12 33.03 17.3662 33.03 17.67C33.03 17.9738 33.2763 18.22 33.58 18.22Z" fill="#0079C3"/>
<path d="M22.56 20.55C18.16 20.55 14.56 17.87 14.56 14.55C14.56 11.23 18.14 8.54998 22.56 8.54998C24.0311 8.54286 25.4857 8.8604 26.82 9.47998C26.8591 9.49775 26.8927 9.52567 26.9173 9.56085C26.942 9.59603 26.9567 9.63717 26.96 9.67998L27.24 13.2C27.2432 13.2372 27.2376 13.2747 27.2237 13.3095C27.2098 13.3442 27.188 13.3752 27.16 13.4C27.1318 13.4252 27.0983 13.4437 27.0619 13.4541C27.0255 13.4645 26.9873 13.4665 26.95 13.46C24.86 13.13 23.35 13.88 23.35 14.51C23.35 15.14 24.46 15.64 26.05 15.64C26.4157 15.6416 26.7807 15.6081 27.14 15.54C27.1714 15.5256 27.2055 15.5182 27.24 15.5182C27.2745 15.5182 27.3086 15.5256 27.34 15.54C27.3685 15.5612 27.3921 15.5882 27.4094 15.6192C27.4266 15.6502 27.4371 15.6846 27.44 15.72L27.69 19C27.6941 19.0458 27.685 19.0918 27.6638 19.1326C27.6425 19.1734 27.6099 19.2072 27.57 19.23C26.0526 20.1132 24.3257 20.5726 22.57 20.56L22.56 20.55ZM22.56 9.10998C18.43 9.10998 15.08 11.57 15.08 14.59C15.08 17.61 18.43 20.07 22.56 20.07C24.1794 20.0838 25.7747 19.6772 27.19 18.89L27 16.13C26.6954 16.1755 26.3879 16.1988 26.08 16.2C24.29 16.2 22.89 15.49 22.89 14.58C22.89 13.67 24.6 12.76 26.72 13L26.48 9.91998C25.246 9.37266 23.9099 9.09319 22.56 9.09998V9.10998Z" fill="#0079C3"/>
<path d="M35 20.55C33.3312 20.5676 31.6857 20.158 30.22 19.36C30.1756 19.3315 30.1413 19.2897 30.1221 19.2406C30.1029 19.1914 30.0997 19.1375 30.113 19.0864C30.1263 19.0354 30.1555 18.9899 30.1962 18.9564C30.237 18.9229 30.2873 18.9031 30.34 18.9H30.43L30.67 15.9C30.6724 15.867 30.6817 15.8348 30.6972 15.8056C30.7127 15.7763 30.7341 15.7506 30.76 15.73C30.8098 15.6871 30.8744 15.6656 30.94 15.67H31.51C33.1 15.67 34.21 15.08 34.21 14.54C34.21 14 33.1 13.41 31.51 13.41H31.2C31.1338 13.4268 31.0641 13.4233 31 13.4C31 13.35 30.88 13.28 30.88 13.21L31.14 9.89999C31.0776 9.91325 31.0126 9.90121 30.9592 9.86651C30.9057 9.83182 30.8682 9.77731 30.855 9.71499C30.8417 9.65266 30.8537 9.58762 30.8884 9.53417C30.9231 9.48072 30.9776 9.44325 31.04 9.42999C32.3045 8.89115 33.6655 8.61554 35.04 8.61999C39.44 8.61999 43.04 11.3 43.04 14.62C43.04 17.94 39.46 20.62 35.04 20.62L35 20.55ZM30.9 19.16C32.1814 19.7649 33.583 20.0725 35 20.06C39.12 20.06 42.48 17.6 42.48 14.58C42.48 11.56 39.09 9.10999 35 9.10999C33.8573 9.10842 32.7233 9.30814 31.65 9.69999L31.36 13H31.47C33.26 13 34.66 13.71 34.66 14.62C34.66 15.53 33.26 16.24 31.47 16.24H31.1L30.87 19.24L30.9 19.16Z" fill="#0079C3"/>
<path d="M30.62 19.39H27.45C27.387 19.3902 27.3263 19.3666 27.2799 19.3239C27.2336 19.2813 27.205 19.2227 27.2 19.16L26.45 9.66996C26.4471 9.63511 26.4519 9.60004 26.464 9.56722C26.476 9.5344 26.4952 9.50462 26.52 9.47996C26.543 9.45513 26.5708 9.43524 26.6018 9.42149C26.6327 9.40774 26.6661 9.40041 26.7 9.39996H31.37C31.4038 9.40041 31.4372 9.40774 31.4682 9.42149C31.4991 9.43524 31.527 9.45513 31.55 9.47996C31.573 9.50549 31.5903 9.53566 31.6006 9.56844C31.611 9.60122 31.6142 9.63584 31.61 9.66996L30.86 19.16C30.8574 19.2219 30.831 19.2804 30.7862 19.3232C30.7415 19.3661 30.6819 19.39 30.62 19.39ZM27.68 18.9H30.4L31.11 9.89996H27L27.71 18.9H27.68Z" fill="#0079C3"/>
<path d="M29.07 12.38C29.3738 12.38 29.62 12.1337 29.62 11.83C29.62 11.5262 29.3738 11.28 29.07 11.28C28.7663 11.28 28.52 11.5262 28.52 11.83C28.52 12.1337 28.7663 12.38 29.07 12.38Z" fill="#0079C3"/>
<path d="M29.07 15.07C29.3738 15.07 29.62 14.8237 29.62 14.52C29.62 14.2162 29.3738 13.97 29.07 13.97C28.7663 13.97 28.52 14.2162 28.52 14.52C28.52 14.8237 28.7663 15.07 29.07 15.07Z" fill="#0079C3"/>
<path d="M29.07 17.76C29.3738 17.76 29.62 17.5137 29.62 17.21C29.62 16.9062 29.3738 16.66 29.07 16.66C28.7663 16.66 28.52 16.9062 28.52 17.21C28.52 17.5137 28.7663 17.76 29.07 17.76Z" fill="#0079C3"/>
<path d="M9.84002 43.46C9.84002 43.74 9.71002 43.88 9.45002 43.88C9.19002 43.88 9.06002 43.74 9.06002 43.46V35.61C9.04836 35.5272 9.0561 35.4428 9.08263 35.3635C9.10917 35.2841 9.15376 35.2121 9.21291 35.1529C9.27206 35.0938 9.34413 35.0492 9.42346 35.0226C9.50279 34.9961 9.58719 34.9884 9.67002 35H11.34C11.4228 34.9884 11.5073 34.9961 11.5866 35.0226C11.6659 35.0492 11.738 35.0938 11.7971 35.1529C11.8563 35.2121 11.9009 35.2841 11.9274 35.3635C11.9539 35.4428 11.9617 35.5272 11.95 35.61C11.8493 36.0254 11.7017 36.428 11.51 36.81C11.3333 37.1743 11.1861 37.5522 11.07 37.94C11.1098 38.0799 11.167 38.2143 11.24 38.34L11.54 38.94C11.6421 39.1559 11.7257 39.38 11.79 39.61C11.8696 39.8829 11.91 40.1658 11.91 40.45C11.9373 40.8369 11.8314 41.2216 11.61 41.54C11.5215 41.6541 11.4077 41.7461 11.2775 41.8086C11.1473 41.871 11.0044 41.9024 10.86 41.9H10.58H10.33C10.2746 41.8941 10.2212 41.8757 10.1738 41.8463C10.1265 41.8168 10.0864 41.7771 10.0566 41.7299C10.0268 41.6828 10.008 41.6296 10.0017 41.5742C9.99536 41.5188 10.0016 41.4627 10.02 41.41C10.0667 41.1767 10.2334 41.09 10.52 41.15H10.8C10.8443 41.147 10.8867 41.1312 10.9222 41.1046C10.9577 41.078 10.9847 41.0416 11 41C11.0566 40.8397 11.0804 40.6697 11.07 40.5C11.0703 40.1905 11.0196 39.8831 10.92 39.59C10.8295 39.311 10.7157 39.0401 10.58 38.78L10.32 38.3C10.2701 38.2082 10.2459 38.1045 10.25 38C10.3246 37.6786 10.4353 37.3666 10.58 37.07C10.8 36.55 10.9667 36.1334 11.08 35.82H9.84002V43.46ZM13.23 35.87V37.25H16.88C17.29 37.25 17.49 37.43 17.49 37.8C17.4816 38.0356 17.4515 38.27 17.4 38.5C17.3323 38.839 17.2421 39.173 17.13 39.5C17.0008 39.8778 16.8437 40.2455 16.66 40.6C16.4745 40.9737 16.2535 41.3287 16 41.66C16.2382 41.9318 16.4992 42.1827 16.78 42.41C17.0534 42.63 17.3534 42.85 17.68 43.07C17.7307 43.094 17.7758 43.1285 17.8123 43.171C17.8488 43.2136 17.876 43.2634 17.892 43.3172C17.908 43.3709 17.9126 43.4274 17.9054 43.4831C17.8981 43.5387 17.8793 43.5922 17.85 43.64C17.8266 43.6892 17.7921 43.7323 17.7491 43.7657C17.7062 43.7992 17.656 43.8222 17.6026 43.8329C17.5492 43.8436 17.494 43.8416 17.4415 43.8273C17.389 43.8129 17.3405 43.7864 17.3 43.75C16.9748 43.5413 16.6641 43.3108 16.37 43.06C16.0483 42.7898 15.7474 42.4956 15.47 42.18C15.1493 42.5165 14.794 42.8181 14.41 43.08C14.0299 43.3402 13.6285 43.5676 13.21 43.76C13.1641 43.7837 13.1139 43.798 13.0624 43.8023C13.0109 43.8065 12.959 43.8006 12.9098 43.7848C12.8606 43.769 12.815 43.7437 12.7755 43.7103C12.7361 43.6768 12.7037 43.636 12.68 43.59C12.6564 43.5441 12.642 43.4939 12.6378 43.4424C12.6335 43.3909 12.6395 43.339 12.6553 43.2898C12.671 43.2406 12.6964 43.195 12.7298 43.1555C12.7632 43.1161 12.8041 43.0837 12.85 43.06C13.2484 42.8826 13.6328 42.6754 14 42.44C14.3551 42.2017 14.6896 41.9341 15 41.64C14.579 41.1519 14.2412 40.5978 14 40C13.77 39.3545 13.6221 38.6825 13.56 38H13.18C13.2348 39.0435 13.1745 40.0898 13 41.12C12.7994 41.9409 12.4613 42.7219 12 43.43C11.975 43.4851 11.9378 43.5337 11.8913 43.5723C11.8448 43.6109 11.7901 43.6385 11.7314 43.6529C11.6727 43.6674 11.6115 43.6683 11.5523 43.6557C11.4932 43.6431 11.4377 43.6172 11.39 43.58C11.1834 43.4334 11.1834 43.2267 11.39 42.96C11.6247 42.5814 11.8191 42.1792 11.97 41.76C12.1064 41.372 12.2134 40.9742 12.29 40.57C12.3629 40.0499 12.3997 39.5253 12.4 39C12.4 38.3867 12.4 37.2734 12.4 35.66C12.3884 35.5772 12.3961 35.4928 12.4226 35.4135C12.4492 35.3341 12.4938 35.2621 12.5529 35.2029C12.6121 35.1438 12.6841 35.0992 12.7635 35.0726C12.8428 35.0461 12.9272 35.0384 13.01 35.05H17.31C17.59 35.05 17.73 35.18 17.73 35.44C17.73 35.7 17.59 35.83 17.31 35.83L13.23 35.87ZM15.49 41.08C15.8127 40.6295 16.0749 40.1387 16.27 39.62C16.473 39.0977 16.6173 38.5543 16.7 38H14.39C14.4312 38.5666 14.5489 39.125 14.74 39.66C14.9244 40.1683 15.1767 40.6493 15.49 41.09V41.08Z" fill="#0079C3"/>
<path d="M26 38.26V38.41C26 38.67 25.86 38.8 25.58 38.8H21.55C21.27 38.8 21.13 38.67 21.13 38.41V38.25C20.6576 38.5935 20.1517 38.8883 19.62 39.13C19.33 39.25 19.12 39.19 19.02 38.95C18.92 38.71 19.02 38.53 19.3 38.41C19.8239 38.1648 20.3286 37.8806 20.81 37.56C21.2919 37.2465 21.7379 36.8809 22.14 36.47H19.59C19.31 36.47 19.17 36.34 19.17 36.08C19.17 35.82 19.31 35.69 19.59 35.69H22.69C22.8337 35.4594 22.9607 35.2188 23.07 34.97C23.0847 34.9153 23.1114 34.8645 23.1482 34.8215C23.185 34.7784 23.2309 34.7441 23.2827 34.7211C23.3345 34.6981 23.3907 34.687 23.4474 34.6885C23.504 34.69 23.5596 34.7042 23.61 34.73C23.6651 34.7454 23.7157 34.7738 23.7577 34.8126C23.7996 34.8515 23.8317 34.8999 23.8512 34.9536C23.8708 35.0074 23.8773 35.065 23.8701 35.1218C23.8629 35.1786 23.8423 35.2328 23.81 35.28L23.59 35.7H27.59C27.87 35.7 28.01 35.83 28.01 36.09C28.01 36.35 27.87 36.48 27.59 36.48H25.11C25.4591 36.8584 25.8518 37.1941 26.28 37.48C26.78 37.8302 27.3124 38.1316 27.87 38.38C28.1633 38.5133 28.2567 38.7033 28.15 38.95C28.0433 39.1967 27.8333 39.24 27.52 39.08C26.99 38.8523 26.4814 38.5778 26 38.26ZM21.22 41.26C21.2585 41.2138 21.3066 41.1767 21.3611 41.1512C21.4155 41.1257 21.4749 41.1124 21.535 41.1124C21.5951 41.1124 21.6545 41.1257 21.7089 41.1512C21.7634 41.1767 21.8115 41.2138 21.85 41.26C22.05 41.4467 22.05 41.6467 21.85 41.86C21.5337 42.1504 21.1997 42.4209 20.85 42.67C20.4904 42.9246 20.1164 43.1583 19.73 43.37C19.4367 43.5233 19.22 43.4833 19.08 43.25C18.94 43.0167 19.0233 42.8267 19.33 42.68C19.6751 42.4967 20.0091 42.293 20.33 42.07C20.655 41.8036 20.9623 41.5163 21.25 41.21L21.22 41.26ZM24.1 40.61V43.18C24.109 43.283 24.0917 43.3865 24.0498 43.481C24.0078 43.5755 23.9425 43.6577 23.86 43.72C23.6422 43.8469 23.3915 43.906 23.14 43.89C22.9469 43.9024 22.7531 43.9024 22.56 43.89C22.3712 43.865 22.1842 43.8283 22 43.78C21.66 43.68 21.54 43.51 21.62 43.27C21.7 43.03 21.93 42.92 22.26 43.03C22.3977 43.07 22.538 43.1001 22.68 43.12C22.8265 43.1308 22.9735 43.1308 23.12 43.12C23.25 43.12 23.32 43.06 23.32 42.94V40.56H19.59C19.31 40.56 19.17 40.43 19.17 40.17C19.17 39.91 19.31 39.78 19.59 39.78H27.59C27.87 39.78 28.01 39.91 28.01 40.17C28.01 40.43 27.87 40.56 27.59 40.56L24.1 40.61ZM25.76 38C25.1552 37.5683 24.6278 37.0375 24.2 36.43H23.12C22.6394 37.0323 22.0734 37.5612 21.44 38H25.76ZM25.37 41.79C25.09 41.6433 25.0133 41.46 25.14 41.24C25.2667 41.02 25.48 40.97 25.78 41.09C26.5638 41.4934 27.2958 41.9904 27.96 42.57C28.2 42.77 28.23 42.97 28.06 43.18C27.89 43.39 27.68 43.37 27.42 43.18C27.16 42.99 26.7 42.62 26.42 42.39C26.083 42.1769 25.7322 41.9865 25.37 41.82V41.79Z" fill="#0079C3"/>
<path d="M34.27 36.25H37.54C37.6229 36.2384 37.7073 36.2461 37.7866 36.2726C37.8659 36.2992 37.938 36.3438 37.9972 36.4029C38.0563 36.4621 38.1009 36.5341 38.1274 36.6135C38.154 36.6928 38.1617 36.7772 38.15 36.86V40.13C38.1617 40.2128 38.154 40.2972 38.1274 40.3766C38.1009 40.4559 38.0563 40.528 37.9972 40.5871C37.938 40.6463 37.8659 40.6909 37.7866 40.7174C37.7073 40.7439 37.6229 40.7517 37.54 40.74H34.27V43.52C34.27 43.8 34.14 43.94 33.88 43.94C33.62 43.94 33.49 43.8 33.49 43.52V40.75H30.32C30.2372 40.7617 30.1528 40.7539 30.0735 40.7274C29.9942 40.7009 29.9221 40.6563 29.8629 40.5971C29.8038 40.538 29.7592 40.4659 29.7327 40.3866C29.7061 40.3072 29.6984 40.2228 29.71 40.14V36.87C29.6984 36.7872 29.7061 36.7028 29.7327 36.6235C29.7592 36.5441 29.8038 36.4721 29.8629 36.4129C29.9221 36.3538 29.9942 36.3092 30.0735 36.2826C30.1528 36.2561 30.2372 36.2484 30.32 36.26H33.48V35.06C33.48 34.78 33.61 34.64 33.87 34.64C34.13 34.64 34.26 34.78 34.26 35.06L34.27 36.25ZM30.49 40H33.49V37H30.49V40ZM34.26 40H37.36V37H34.26V40Z" fill="#0079C3"/>
<path d="M40.62 39.19V36.54C40.6084 36.4572 40.6161 36.3728 40.6426 36.2935C40.6692 36.2141 40.7138 36.1421 40.7729 36.0829C40.8321 36.0238 40.9041 35.9792 40.9835 35.9526C41.0628 35.9261 41.1472 35.9184 41.23 35.93H43.8V35.06C43.8 34.78 43.93 34.64 44.19 34.64C44.45 34.64 44.58 34.78 44.58 35.06V35.93H47.26C47.3428 35.9184 47.4273 35.9261 47.5066 35.9526C47.5859 35.9792 47.658 36.0238 47.7171 36.0829C47.7763 36.1421 47.8209 36.2141 47.8474 36.2935C47.8739 36.3728 47.8817 36.4572 47.87 36.54V39.2H48.5C48.78 39.2 48.92 39.33 48.92 39.59C48.92 39.85 48.78 39.98 48.5 39.98H44.78C45.0706 40.6955 45.5428 41.3228 46.15 41.8C46.8528 42.3179 47.6322 42.7228 48.46 43C48.77 43.11 48.89 43.29 48.8 43.54C48.71 43.79 48.51 43.87 48.2 43.77C47.3191 43.499 46.4955 43.0685 45.77 42.5C45.0844 41.976 44.5412 41.2883 44.19 40.5C43.8806 41.3178 43.3468 42.0318 42.65 42.56C41.9349 43.1063 41.1293 43.5226 40.27 43.79C39.97 43.89 39.79 43.79 39.7 43.56C39.61 43.33 39.7 43.12 39.99 43.02C40.7773 42.776 41.5177 42.4007 42.18 41.91C42.8232 41.4146 43.3207 40.7547 43.62 40H40C39.72 40 39.58 39.87 39.58 39.61C39.58 39.35 39.72 39.22 40 39.22L40.62 39.19ZM43.8 36.71H41.4V39.19H43.8V36.71ZM47.09 36.71H44.59V39.19H47.1L47.09 36.71Z" fill="#0079C3"/>
<path d="M25.15 54.56L27.08 55.17C26.8683 56.11 26.3471 56.9517 25.6 57.56C24.837 58.1028 23.9156 58.3772 22.98 58.34C22.379 58.3571 21.7813 58.2465 21.2262 58.0155C20.6711 57.7846 20.1714 57.4384 19.76 57C18.8769 55.9961 18.4243 54.685 18.5 53.35C18.4151 51.9667 18.8704 50.6044 19.77 49.55C20.1979 49.0987 20.7172 48.744 21.2931 48.5094C21.8691 48.2749 22.4885 48.166 23.11 48.19C24.1742 48.1556 25.2103 48.5357 26 49.25C26.4921 49.7509 26.8379 50.3768 27 51.06L25 51.53C24.9169 51.0623 24.67 50.6394 24.3036 50.337C23.9371 50.0347 23.475 49.8727 23 49.88C22.6638 49.8687 22.3295 49.933 22.0214 50.0679C21.7134 50.2029 21.4395 50.4053 21.22 50.66C20.7007 51.3999 20.4598 52.2996 20.54 53.2C20.4544 54.1339 20.6908 55.069 21.21 55.85C21.4225 56.106 21.6906 56.3102 21.9938 56.447C22.297 56.5839 22.6274 56.6499 22.96 56.64C23.4633 56.6517 23.9525 56.4732 24.33 56.14C24.7611 55.7115 25.0478 55.1592 25.15 54.56Z" fill="#0079C3"/>
<path d="M29.89 58.17V48.36H34.08C34.8556 48.3223 35.6323 48.4101 36.38 48.62C36.8582 48.7949 37.2635 49.1261 37.53 49.56C37.8348 50.0196 37.9982 50.5585 38 51.11C38.0241 51.7775 37.7915 52.4289 37.35 52.93C36.8279 53.4543 36.1371 53.7767 35.4 53.84C35.7945 54.0601 36.1549 54.3363 36.47 54.66C36.8924 55.1559 37.2705 55.688 37.6 56.25L38.8 58.16H36.37L34.94 56C34.6373 55.4994 34.3033 55.0185 33.94 54.56C33.776 54.3769 33.5702 54.2362 33.34 54.15C33.0142 54.0626 32.6769 54.0255 32.34 54.04H31.94V58.14L29.89 58.17ZM31.89 52.51H33.36C33.9593 52.5405 34.5601 52.5002 35.15 52.39C35.3705 52.3227 35.5634 52.1859 35.7 52C35.8412 51.7799 35.9111 51.5214 35.9 51.26C35.9117 50.9692 35.8155 50.6843 35.63 50.46C35.4344 50.2448 35.1684 50.1065 34.88 50.07C34.72 50.07 34.2366 50.07 33.43 50.07H31.88L31.89 52.51Z" fill="#0079C3"/>
<path d="M82.55 13.1799C81.4027 14.1613 80.1319 14.9883 78.77 15.6399V16.1699H85V16.9299H78.77V20.2099C78.77 21.2099 78.18 21.2099 77.55 21.2099H75.07L74.88 20.3199H77.36C77.85 20.3199 77.95 20.3199 77.95 19.8799V16.8799H71.45V16.1199H78V14.8799H78.65C79.6086 14.433 80.5059 13.865 81.32 13.1899H73.82V12.4599H82.6L82.55 13.1799ZM84.66 10.1799V13.2599H83.8V10.8799H72.67V13.2699H71.82V10.1799H81.24C81.7525 9.40613 82.1911 8.58586 82.55 7.72995L83.35 8.05995C83.0023 8.79301 82.6047 9.50134 82.16 10.1799H84.66ZM74.21 9.99995C73.8974 9.33694 73.5188 8.7071 73.08 8.11995L73.76 7.80995C74.234 8.39446 74.6493 9.02415 75 9.68995L74.21 9.99995ZM78.13 9.75995C77.7918 9.08843 77.4145 8.43731 77 7.80995L77.74 7.50995C78.1733 8.11138 78.5515 8.75064 78.87 9.41995L78.13 9.75995Z" fill="#222222"/>
<path d="M90.8 16.07C90.1888 15.2578 89.6658 14.3829 89.24 13.46V21.2H88.47V13.8C88.027 15.1907 87.3507 16.496 86.47 17.66L86 16.78C87.1979 15.2082 88.0159 13.3805 88.39 11.44H86.28V10.71H88.48V7.59998H89.25V10.71H91.13V11.44H89.24V12C89.7075 13.2578 90.4253 14.4076 91.35 15.38L90.8 16.07ZM90.47 20.39C92.0819 20.0113 93.5716 19.2303 94.8 18.12C93.8194 16.9603 93.0785 15.6178 92.62 14.17L93.35 13.89C93.7612 15.2391 94.4416 16.491 95.35 17.57C96.2564 16.5085 96.9369 15.2733 97.35 13.94L98.12 14.22C97.6387 15.655 96.8887 16.9853 95.91 18.14C97.1396 19.1608 98.5607 19.9258 100.09 20.39L99.65 21.19C98.0562 20.6947 96.596 19.8432 95.38 18.7C94.1096 19.8702 92.587 20.7324 90.93 21.22L90.47 20.39ZM91 13.39C92.0163 12.7285 92.8845 11.8636 93.55 10.85L94.25 11.25C93.5438 12.3255 92.6414 13.2584 91.59 14L91 13.39ZM95.8 7.59998V9.50998H99.8V10.27H91.13V9.50998H95V7.59998H95.8ZM99.39 14C98.3191 13.2102 97.3574 12.2821 96.53 11.24L97.2 10.85C97.9908 11.8163 98.9092 12.6708 99.93 13.39L99.39 14Z" fill="#222222"/>
<path d="M103.47 13.95C102.729 13.2662 101.898 12.6875 101 12.23L101.4 11.56C102.336 12.0085 103.21 12.5766 104 13.25L103.47 13.95ZM101 20.52C102.245 18.8855 103.255 17.0847 104 15.17L104.64 15.7C103.862 17.6337 102.855 19.4668 101.64 21.16L101 20.52ZM104.28 10.17C103.452 9.50028 102.554 8.92349 101.6 8.45L102.03 7.78C103.001 8.24341 103.92 8.81001 104.77 9.47001L104.28 10.17ZM111.52 16.25C112.803 17.6159 113.869 19.1707 114.68 20.86L113.91 21.32C113.72 20.8392 113.486 20.3772 113.21 19.94C110.441 20.3226 107.654 20.5662 104.86 20.67L104.7 19.85C105.35 19.85 105.49 19.85 105.78 19.85C106.708 18.2 107.517 16.4856 108.2 14.72H104.85V13.96H109.29V10.76H105.5V10H109.31V7.63H110.14V10H114.23V10.76H110.14V13.95H114.71V14.71H109.09C108.397 16.4485 107.609 18.1477 106.73 19.8C111.48 19.52 112.01 19.49 112.87 19.34C112.334 18.4044 111.708 17.5235 111 16.71L111.52 16.25Z" fill="#222222"/>
<path d="M123.22 7.59998V9.40998C123.242 11.7795 123.806 14.1125 124.87 16.23C126.042 18.1052 127.744 19.5911 129.76 20.5L129.11 21.26C125.43 19.11 123.53 16.87 122.81 12.41C122.618 14.328 121.904 16.1567 120.746 17.6975C119.587 19.2383 118.029 20.4324 116.24 21.15L115.71 20.41C117.5 19.55 119.85 18.11 120.96 15.81C121.818 13.7973 122.28 11.6377 122.32 9.44998V7.59998H123.22Z" fill="#222222"/>
<path d="M136.82 14.15H131.41V10.24H135.06V9.23998H130.6V7.91998H144.6V9.25998H140.14V10.26H143.85V14.18H138.39V15.4H144.6V16.76H139.48C141.039 18.0056 142.851 18.8962 144.79 19.37L144 20.86C141.848 20.1797 139.893 18.9892 138.3 17.39V21.39H136.79V17.39C135.199 18.9434 133.292 20.137 131.2 20.89L130.41 19.42C132.302 18.8519 134.069 17.9326 135.62 16.71H130.56V15.37H136.79L136.82 14.15ZM132.82 11.44V12.94H135.01V11.44H132.82ZM136.42 9.25998V10.26H138.64V9.25998H136.42ZM136.42 11.44V12.94H138.64V11.44H136.42ZM140.04 11.44V12.94H142.27V11.44H140.04Z" fill="#222222"/>
<path d="M145.85 7.94H158.9V20.06C158.9 21.06 158.25 21.38 157.46 21.38H154.92L154.7 19.88H156.94C157.33 19.88 157.4 19.67 157.4 19.39V9.39H147.4V21.39H145.89L145.85 7.94ZM147.85 11.84H149.85C149.695 11.1811 149.488 10.5357 149.23 9.91L150.73 9.61C150.86 10 151.2 11.03 151.4 11.83H153.4C153.71 10.97 153.84 10.58 154.11 9.62L155.59 9.92C155.31 10.79 155.2 11.14 154.95 11.83H156.89V13.19H153.1V17.82H154.7V13.92H156.17V19.2H148.61V13.92H150V17.84H151.65V13.21H147.82L147.85 11.84Z" fill="#222222"/>
<path d="M171.82 12.36V13.59C170.665 14.5677 169.38 15.379 168 16V16.12H174.23V17.57H168V20.22C167.993 20.5421 167.862 20.8491 167.635 21.0779C167.408 21.3067 167.102 21.4398 166.78 21.45H163.87L163.59 19.88H166C166.42 19.88 166.42 19.67 166.42 19.41V17.54H160.21V16.08H166.42V14.93H167.07C167.866 14.6777 168.608 14.2811 169.26 13.76H162.66V12.36H171.82ZM162.55 9.83998C162.301 9.20455 162.004 8.58937 161.66 7.99998L163.1 7.46998C163.572 8.1545 163.946 8.90176 164.21 9.68998L163.87 9.81998H166.87C166.596 9.15389 166.261 8.51451 165.87 7.90998L167.34 7.34998C167.798 8.07728 168.177 8.85172 168.47 9.65998L167.98 9.81998H170.38C170.776 9.03719 171.11 8.22473 171.38 7.38998L173.09 7.88998C172.805 8.55701 172.47 9.20209 172.09 9.81998H173.97V13.22H172.47V11.22H162.12V13.22H160.62V9.83998H162.55Z" fill="#222222"/>
<path d="M188.41 8V21.39H187V20.78H177.15V21.39H175.7V8H188.41ZM182.71 10H185.9V10.93H182.71V11.54H186.42V12.49H177.65V11.54H181.33V10.93H178.2V10H181.33V9.23H177.12V19.46H187V9.23H182.74L182.71 10ZM186.37 16.13C185.944 16.5948 185.486 17.0292 185 17.43C185.49 17.6601 185.994 17.8572 186.51 18.02L185.77 19.13C184.544 18.7034 183.423 18.0217 182.48 17.13V19.13H181.15V17C180.283 17.8005 179.262 18.4164 178.15 18.81L177.6 17.62C178.775 17.2528 179.861 16.6468 180.79 15.84H178.15V13H185.89V15.8L186.37 16.13ZM179.48 14V14.83H184.55V14H179.48ZM182.71 15.81C183.103 16.1997 183.536 16.5482 184 16.85C184.31 16.55 184.71 16.15 185 15.8L182.71 15.81Z" fill="#222222"/>
<path d="M72.21 64.19V56.19H73V59.55H77.8V56.22H78.64V64.22H77.8V60.33H73V64.19H72.21Z" fill="#808080"/>
<path d="M80.31 64.19L83.31 56.19H84.31L87.31 64.19H86.39L85.5 61.83H82.06L81.19 64.19H80.31ZM82.31 61.08H85.26L83.79 57.08L82.31 61.08Z" fill="#808080"/>
<path d="M88.94 64.19V56.19H90.21L94.31 63.07V56.22H95.14V64.22H94L89.75 57.1V64.22L88.94 64.19Z" fill="#808080"/>
<path d="M97.66 64.19V56.19H98.93L103 63.1V56.22H103.83V64.22H102.68L98.43 57.1V64.22L97.66 64.19Z" fill="#808080"/>
<path d="M105.44 64.19L108.44 56.19H109.44L112.44 64.19H111.52L110.63 61.83H107.15L106.28 64.19H105.44ZM107.44 61.08H110.39L108.92 57.08L107.44 61.08Z" fill="#808080"/>
<path d="M122.25 64.12C121.682 64.217 121.106 64.2638 120.53 64.26C118.06 64.26 116.34 63.11 116.34 60.34C116.315 59.778 116.409 59.2169 116.615 58.6936C116.821 58.1703 117.136 57.6963 117.538 57.3028C117.94 56.9093 118.42 56.605 118.948 56.4098C119.476 56.2146 120.039 56.1328 120.6 56.17C121.129 56.1619 121.658 56.2021 122.18 56.29V57.07C121.608 56.9769 121.029 56.9334 120.45 56.94C120.012 56.9043 119.572 56.965 119.161 57.118C118.749 57.2709 118.376 57.5123 118.068 57.8251C117.76 58.1379 117.525 58.5145 117.378 58.9283C117.232 59.3421 117.178 59.783 117.22 60.22C117.22 62.69 118.7 63.53 120.68 63.53C121.206 63.5249 121.731 63.4781 122.25 63.39V64.12Z" fill="#808080"/>
<path d="M124.26 64.19V56.19H128.84V57H125.11V59.64H128.38V60.39H125.11V63.39H128.93V64.17L124.26 64.19Z" fill="#808080"/>
<path d="M130.89 64.19V56.19H132.16L136.26 63.07V56.22H137.09V64.22H136L131.75 57.1V64.22L130.89 64.19Z" fill="#808080"/>
<path d="M141.46 64.19V57H138.64V56.21H145.15V57H142.32V64.19H141.46Z" fill="#808080"/>
<path d="M146.77 64.19V56.19H149C150.52 56.19 151.54 56.93 151.54 58.36C151.594 58.8692 151.47 59.3813 151.189 59.8096C150.908 60.2379 150.488 60.556 150 60.71L152.42 64.19H151.36L149.18 60.92H147.6V64.19H146.77ZM148.93 60.19C149.16 60.2197 149.394 60.1972 149.614 60.1241C149.834 60.0509 150.034 59.929 150.2 59.7675C150.367 59.606 150.494 59.4091 150.574 59.1913C150.654 58.9736 150.683 58.7407 150.66 58.51C150.66 57.51 150.03 57.01 148.94 57.01H147.6V60.18L148.93 60.19Z" fill="#808080"/>
<path d="M152.75 64.19L155.75 56.19H156.75L159.75 64.19H158.83L158 61.83H154.5L153.63 64.19H152.75ZM154.75 61.08H157.7L156.23 57.08L154.75 61.08Z" fill="#808080"/>
<path d="M161.46 64.19V56.19H162.31V63.38H166.31V64.16L161.46 64.19Z" fill="#808080"/>
<path d="M175.68 64.12C175.112 64.217 174.536 64.2639 173.96 64.26C171.49 64.26 169.77 63.11 169.77 60.34C169.744 59.7799 169.836 59.2204 170.04 58.6981C170.244 58.1757 170.555 57.7021 170.954 57.3079C171.353 56.9138 171.83 56.6079 172.355 56.4101C172.88 56.2124 173.44 56.1272 174 56.16C174.529 56.1519 175.058 56.1921 175.58 56.28V57.06C175.008 56.9669 174.429 56.9234 173.85 56.93C173.413 56.8943 172.972 56.9551 172.561 57.108C172.149 57.2609 171.776 57.5023 171.468 57.8151C171.16 58.1279 170.925 58.5045 170.778 58.9183C170.632 59.3321 170.578 59.7731 170.62 60.21C170.62 62.68 172.1 63.52 174.08 63.52C174.606 63.515 175.131 63.4682 175.65 63.38L175.68 64.12Z" fill="#808080"/>
<path d="M184.35 60.18C184.35 62.82 182.72 64.37 180.63 64.37C178.54 64.37 176.9 63.12 176.9 60.3C176.9 57.67 178.55 56.12 180.63 56.12C182.71 56.12 184.35 57.36 184.35 60.18ZM177.77 60.31C177.77 62.93 179.29 63.63 180.62 63.63C181.95 63.63 183.46 62.77 183.46 60.19C183.46 57.61 181.95 56.86 180.62 56.86C179.29 56.86 177.78 57.72 177.78 60.31H177.77Z" fill="#808080"/>
<path d="M186.05 64.19V56.19H186.9V63.38H190.9V64.16L186.05 64.19Z" fill="#808080"/>
<path d="M192.59 64.19V56.19H193.44V63.38H197.44V64.16L192.59 64.19Z" fill="#808080"/>
<path d="M199.17 64.19V56.19H203.75V57H200V59.64H203.27V60.39H200V63.39H203.82V64.17L199.17 64.19Z" fill="#808080"/>
<path d="M211.38 64.08C210.68 64.2037 209.971 64.264 209.26 64.26C206.81 64.26 205.07 63.11 205.07 60.34C205.044 59.7735 205.139 59.2079 205.348 58.6808C205.558 58.1538 205.877 57.6773 206.284 57.2829C206.692 56.8886 207.179 56.5854 207.713 56.3935C208.246 56.2017 208.815 56.1255 209.38 56.17C209.917 56.1674 210.453 56.2177 210.98 56.32V57.13C210.4 57.0147 209.811 56.9577 209.22 56.96C208.783 56.9288 208.344 56.992 207.933 57.1453C207.522 57.2986 207.149 57.5384 206.839 57.8485C206.528 58.1586 206.289 58.5317 206.135 58.9426C205.982 59.3535 205.919 59.7926 205.95 60.23C205.95 62.69 207.41 63.52 209.4 63.52C209.784 63.517 210.168 63.4936 210.55 63.45V60.88H208.79V60.14H211.39L211.38 64.08Z" fill="#808080"/>
<path d="M213.5 64.19V56.19H218.08V57H214.35V59.64H217.62V60.39H214.35V63.39H218.17V64.17L213.5 64.19Z" fill="#808080"/>
<path d="M229.72 60.18C229.72 62.82 228.09 64.37 226 64.37C223.91 64.37 222.27 63.12 222.27 60.3C222.27 57.67 223.92 56.12 226 56.12C228.08 56.12 229.72 57.36 229.72 60.18ZM223.14 60.31C223.14 62.93 224.66 63.63 225.99 63.63C227.32 63.63 228.83 62.77 228.83 60.19C228.83 57.61 227.32 56.86 225.99 56.86C224.66 56.86 223.15 57.72 223.15 60.31H223.14Z" fill="#808080"/>
<path d="M231.42 64.19V56.19H235.9V57H232.27V59.73H235.42V60.48H232.27V64.19H231.42Z" fill="#808080"/>
<path d="M240.56 64.19V56.19H242.81C244.33 56.19 245.35 56.93 245.35 58.36C245.395 58.8682 245.263 59.3764 244.977 59.7989C244.691 60.2214 244.268 60.5326 243.78 60.68L246.2 64.16H245.14L243 60.93H241.4V64.2L240.56 64.19ZM242.72 60.19C242.95 60.2197 243.184 60.1972 243.404 60.1241C243.624 60.0509 243.824 59.929 243.991 59.7675C244.157 59.606 244.285 59.4091 244.364 59.1913C244.444 58.9736 244.473 58.7407 244.45 58.51C244.45 57.51 243.82 57.01 242.73 57.01H241.4V60.18L242.72 60.19Z" fill="#808080"/>
<path d="M247.87 64.19V56.19H252.45V57H248.72V59.64H252V60.39H248.73V63.39H252.55V64.17L247.87 64.19Z" fill="#808080"/>
<path d="M254.6 64.19V56.19H255.44V59.55H260.19V56.22H261V64.22H260.16V60.33H255.41V64.19H254.6Z" fill="#808080"/>
<path d="M262.7 64.19L265.7 56.19H266.7L269.7 64.19H268.78L267.89 61.83H264.41L263.54 64.19H262.7ZM264.7 61.08H267.65L266.18 57.08L264.7 61.08Z" fill="#808080"/>
<path d="M273.68 56.22C275.21 56.22 276.06 56.86 276.06 58.11C276.095 58.5287 275.975 58.9457 275.722 59.2813C275.47 59.617 275.102 59.8479 274.69 59.93C275.162 59.9782 275.597 60.2069 275.905 60.5684C276.212 60.9299 276.368 61.3963 276.34 61.87C276.353 62.1974 276.294 62.5236 276.168 62.8259C276.042 63.1283 275.851 63.3994 275.609 63.6203C275.367 63.8413 275.08 64.0067 274.768 64.1051C274.455 64.2035 274.125 64.2325 273.8 64.19H271.42V56.19L273.68 56.22ZM273.68 59.64C273.878 59.6664 274.079 59.6492 274.27 59.5897C274.46 59.5302 274.635 59.4297 274.783 59.2954C274.931 59.1611 275.047 58.9962 275.124 58.8122C275.202 58.6281 275.238 58.4294 275.23 58.23C275.23 57.36 274.76 57.01 273.72 57.01H272.29V59.64H273.68ZM273.73 63.42C274.9 63.42 275.47 62.88 275.47 61.88C275.47 60.88 274.74 60.38 273.57 60.38H272.29V63.38L273.73 63.42Z" fill="#808080"/>
<path d="M278.71 64.19V56.19H279.56V64.19H278.71Z" fill="#808080"/>
<path d="M282.5 64.19V56.19H283.35V63.38H287.35V64.16L282.5 64.19Z" fill="#808080"/>
<path d="M289.3 64.19V56.19H290.15V64.19H289.3Z" fill="#808080"/>
<path d="M294.86 64.19V57H292V56.21H298.51V57H295.68V64.19H294.86Z" fill="#808080"/>
<path d="M298.62 64.19L301.62 56.19H302.62L305.62 64.19H304.7L303.81 61.83H300.33L299.46 64.19H298.62ZM300.62 61.08H303.57L302.1 57.08L300.62 61.08Z" fill="#808080"/>
<path d="M308.57 64.19V57H305.75V56.21H312.26V57H309.43V64.19H308.57Z" fill="#808080"/>
<path d="M314.13 64.19V56.19H315V64.19H314.13Z" fill="#808080"/>
<path d="M324.73 60.18C324.73 62.82 323.1 64.37 321.01 64.37C318.92 64.37 317.28 63.12 317.28 60.3C317.28 57.67 318.93 56.12 321.01 56.12C323.09 56.12 324.73 57.36 324.73 60.18ZM318.15 60.31C318.15 62.93 319.67 63.63 321 63.63C322.33 63.63 323.84 62.77 323.84 60.19C323.84 57.61 322.33 56.86 321 56.86C319.67 56.86 318.16 57.72 318.16 60.31H318.15Z" fill="#808080"/>
<path d="M326.36 64.19V56.19H327.63L331.73 63.07V56.22H332.56V64.22H331.41L327.16 57.1V64.22L326.36 64.19Z" fill="#808080"/>
<path d="M76.81 28.9999L78.63 29.8899C78.6065 30.025 78.5439 30.1501 78.45 30.2499C78.07 31.9099 77.45 34.1099 76.93 35.6899C77.8925 36.7359 78.4524 38.0896 78.51 39.5099C78.51 42.8999 76.37 42.8999 74.89 42.8999C74.8579 42.138 74.6955 41.3871 74.41 40.6799V47.4299H71.86V29.0899H76.39L76.81 28.9999ZM74.41 31.6899V40.4999C74.65 40.4999 74.89 40.4999 75.08 40.4999C75.61 40.4999 75.89 40.3199 75.89 39.2099C75.7944 38.0137 75.3016 36.8839 74.49 35.9999C74.81 34.8099 75.16 33.0699 75.42 31.6799L74.41 31.6899ZM87.93 34.4199L89.65 34.9399C89.6134 35.0954 89.5453 35.2418 89.45 35.3699C89.182 38.0678 88.3216 40.6732 86.93 42.9999C87.9617 43.8897 89.1575 44.5691 90.45 44.9999C89.7117 45.7246 89.0789 46.5493 88.57 47.4499C87.2862 46.9182 86.1129 46.1517 85.11 45.1899C84.147 46.0977 83.051 46.853 81.86 47.4299C81.4449 46.6142 80.9274 45.8547 80.32 45.1699C80.009 45.9379 79.6025 46.6636 79.11 47.3299C78.4551 46.6432 77.708 46.0509 76.89 45.5699C79.01 42.6799 79.17 38.3599 79.17 35.2699V29.2699H89.94V31.9199H81.94V34.4899H87.46L87.93 34.4199ZM83.28 42.9199C82.6342 41.9027 82.0979 40.82 81.68 39.6899C81.4878 41.4644 81.0746 43.2079 80.45 44.8799C81.5071 44.4128 82.467 43.7514 83.28 42.9299V42.9199ZM81.85 37.8699L83.57 37.4699C83.9002 38.5773 84.3814 39.6339 85 40.6099C85.5827 39.5159 86.0165 38.3489 86.29 37.1399H81.88L81.85 37.8699Z" fill="#222222"/>
<path d="M110.95 33H106.32C107.773 34.6301 109.603 35.8797 111.65 36.64C110.851 37.381 110.157 38.2291 109.59 39.16C108.203 38.501 106.932 37.6194 105.83 36.55V38H97.83V36.69C96.6944 37.6924 95.438 38.549 94.09 39.24C93.5447 38.3398 92.8358 37.5495 92 36.91C94.0441 36.0567 95.847 34.714 97.25 33H92.85V30.39H98.85C99.1685 29.6887 99.4196 28.9587 99.6 28.21L103.36 28.66C103.319 28.797 103.232 28.9157 103.113 28.9959C102.995 29.0761 102.852 29.1129 102.71 29.1C102.57 29.52 102.41 29.97 102.22 30.39H110.97L110.95 33ZM99.11 43.15C99.0457 43.2363 98.9571 43.3015 98.8556 43.3371C98.754 43.3728 98.6441 43.3772 98.54 43.35C97.5415 44.7046 96.3249 45.8839 94.94 46.84C94.2699 46.2067 93.5473 45.6313 92.78 45.12C94.0798 44.3425 95.1819 43.2746 96 42L99.11 43.15ZM109.17 41.7H103.39V44.75C103.39 46.81 102.64 47.44 98.82 47.44C98.5926 46.5585 98.2567 45.7087 97.82 44.91C98.3 44.91 98.93 44.97 99.42 44.97C100.31 44.97 100.42 44.97 100.42 44.65V41.7H94.62V39.17H109.17V41.7ZM104.81 35.5C104.131 34.7239 103.525 33.887 103 33H100.86C100.32 33.89 99.6973 34.727 99 35.5H104.81ZM107.72 46.93C106.766 45.6377 105.684 44.445 104.49 43.37L106.87 42.06C108.104 43.08 109.246 44.2077 110.28 45.43L107.72 46.93Z" fill="#222222"/>
<path d="M124.18 31.68H131.27V42.19H128.18V41.24H124.18V47.42H121.09V41.24H117.29V42.29H114.34V31.68H121.09V28.22L124.83 28.42C124.83 28.64 124.63 28.78 124.18 28.86V31.68ZM117.29 38.35H121.09V34.57H117.29V38.35ZM124.18 38.35H128.18V34.57H124.18V38.35Z" fill="#222222"/>
<path d="M152.73 39.92H145.92C147.33 42.3 149.66 43.92 153.35 44.53C152.555 45.4056 151.883 46.3844 151.35 47.44C149.713 47.1381 148.163 46.4753 146.814 45.4998C145.465 44.5242 144.35 43.2603 143.55 41.8C142.32 44.24 139.95 46.33 135.49 47.48C135.027 46.4959 134.435 45.5778 133.73 44.75C137.79 43.75 139.81 41.98 140.8 39.92H134.19V37H136.19V30.75H141.71V28.22L145.51 28.42C145.51 28.66 145.31 28.8 144.86 28.88V30.74H150.76V37H152.76L152.73 39.92ZM139.13 37H141.58C141.653 36.4028 141.686 35.8015 141.68 35.2V33.62H139.13V37ZM147.6 33.59H144.83V35.23C144.83 35.82 144.83 36.42 144.77 37.01H147.6V33.59Z" fill="#222222"/>
<path d="M156.92 40.29V30.29L160.68 30.49C160.68 30.71 160.48 30.87 160.05 30.94V40.32L156.92 40.29ZM169.24 29.36C169.24 29.58 169.04 29.74 168.61 29.8V36.06C168.61 40.36 167.22 44.4 161.61 46.81C160.904 45.9768 160.113 45.2194 159.25 44.55C164.46 42.55 165.43 39.22 165.43 36.04V29.15L169.24 29.36Z" fill="#222222"/>
<path d="M180.16 32.1799C180.118 32.3029 180.039 32.4097 179.933 32.485C179.827 32.5604 179.7 32.6006 179.57 32.5999C178.74 37.1099 177.43 41.9899 175.02 45.5999C174.063 45.0059 173.052 44.5037 172 44.0999C174.38 40.7899 175.56 36.1599 176.18 31.2699L180.16 32.1799ZM186.25 30.9999C188.357 35.1833 190.016 39.5778 191.2 44.1099L187.87 45.4399C186.708 40.8872 185.111 36.4568 183.1 32.2099L186.25 30.9999Z" fill="#222222"/>
<path d="M198 41.1499C198 42.6499 198.65 43.1499 200.4 43.1499H204.34C205.872 43.0998 207.399 42.9461 208.91 42.6899L209.03 45.7999C207.553 45.9781 206.067 46.0716 204.58 46.0799H200.28C196.52 46.0799 194.89 44.5599 194.89 41.1699V29.4799L198.67 29.6399C198.67 29.8799 198.49 30.0899 198 30.1499V35.8699C200.831 34.8963 203.579 33.6992 206.22 32.2899L208.22 35.1599C208.109 35.2183 207.985 35.2459 207.86 35.2399C207.747 35.2514 207.633 35.2514 207.52 35.2399C204.431 36.6215 201.25 37.7876 198 38.7299V41.1499ZM207.17 32.4399C206.569 31.4444 205.873 30.5099 205.09 29.6499L206.4 28.6499C207.216 29.4851 207.946 30.3997 208.58 31.3799L207.17 32.4399ZM210.17 31.5299C209.537 30.5768 208.835 29.671 208.07 28.8199L209.36 27.8199C210.187 28.6335 210.931 29.5279 211.58 30.4899L210.17 31.5299Z" fill="#222222"/>
<path d="M215.68 40.29V30.29L219.44 30.49C219.44 30.71 219.24 30.87 218.81 30.94V40.32L215.68 40.29ZM228 29.36C228 29.58 227.8 29.74 227.37 29.8V36.06C227.37 40.36 225.98 44.4 220.37 46.81C219.661 45.9763 218.866 45.2189 218 44.55C223.21 42.55 224.18 39.22 224.18 36.04V29.15L228 29.36Z" fill="#222222"/>
<path d="M249.43 37.9199H243.31L243.76 38.0399C243.713 38.1321 243.639 38.208 243.548 38.2579C243.457 38.3078 243.353 38.3294 243.25 38.3199C243.047 40.1262 242.39 41.8517 241.341 43.336C240.292 44.8204 238.885 46.0154 237.25 46.8099C236.504 46.0604 235.705 45.3653 234.86 44.7299C238.72 42.7299 239.61 40.6299 239.95 37.8999H233.04V35.0699H249.4L249.43 37.9199ZM247.35 32.3399H234.93V29.4999H247.35V32.3399Z" fill="#222222"/>
<path d="M253.22 35.9999H270.09V39.0699H254.09C253.999 39.1783 253.888 39.2677 253.763 39.3329C253.638 39.3982 253.501 39.4379 253.36 39.4499L253.22 35.9999Z" fill="#222222"/>
<path d="M274.92 34.36C276.662 34.8237 278.354 35.4602 279.97 36.26L278.63 38.91C277.012 38.0895 275.321 37.42 273.58 36.91L274.92 34.36ZM275.18 43.55C281.18 41.77 285.73 38.55 288.51 32.62C289.366 33.3399 290.264 34.0078 291.2 34.62C289.839 37.3204 287.948 39.7196 285.641 41.6746C283.334 43.6296 280.657 45.1006 277.77 46C277.788 46.1222 277.764 46.2469 277.702 46.3539C277.641 46.461 277.545 46.5441 277.43 46.59L275.18 43.55ZM277.44 29.41C279.196 29.9322 280.906 30.6012 282.55 31.41L281 34C279.41 33.103 277.735 32.366 276 31.8L277.44 29.41Z" fill="#222222"/>
<path d="M306.14 34.08V46.65H303.71V45.86H295.33V43.62H303.71V41.13H296.23V38.89H303.71V36.33H295.8V34.08H306.14Z" fill="#222222"/>
<path d="M312.84 30.0599C314.9 30.685 316.875 31.5616 318.72 32.6699L317.1 35.4799C315.292 34.3713 313.375 33.4499 311.38 32.7299L312.84 30.0599ZM311.84 43.5599C318.49 41.5599 323.11 37.5599 325.42 32.0599C326.331 32.7454 327.298 33.3541 328.31 33.8799C325.81 39.3799 321.02 43.6999 314.41 46.0999C314.39 46.2149 314.345 46.3241 314.277 46.4193C314.21 46.5144 314.122 46.5933 314.02 46.6499L311.84 43.5599Z" fill="#222222"/>
<path d="M348.53 40.33V42.78H344.28V44.68C344.28 47.04 343.28 47.43 339.28 47.43C339.107 46.5379 338.815 45.6734 338.41 44.86C339.32 44.92 340.63 44.92 340.96 44.92C341.29 44.92 341.41 44.84 341.41 44.58V42.78H335.67C336.495 43.4072 337.24 44.1325 337.89 44.94L335.53 46.66C334.75 45.5812 333.824 44.6154 332.78 43.79L334.23 42.79H330V40.33H341.4V39.52H332.17V32.45H337.81V31.8H330.38V29.42H337.81V28.22L341.31 28.4C341.31 28.62 341.13 28.76 340.7 28.85V29.41H348.22V31.8H340.7V32.45H346.7V39.52H344.88C344.88 39.7 344.68 39.84 344.29 39.9V40.32L348.53 40.33ZM334.91 34.39V35.08H337.8V34.39H334.91ZM334.91 36.9V37.57H337.8V36.9H334.91ZM343.8 34.39H340.69V35.08H343.8V34.39ZM343.8 37.56V36.89H340.69V37.56H343.8Z" fill="#222222"/>
<path d="M359.42 28.9999V36.9999H354.29V47.4199H351.38V28.9999H359.42ZM356.67 31.3399H354.29V31.9899H356.67V31.3399ZM354.29 34.7499H356.67V33.9999H354.29V34.7499ZM368.77 28.9999V43.9999C368.77 46.8899 367.66 47.4299 363.01 47.4299C362.818 46.3881 362.482 45.3783 362.01 44.4299C362.88 44.5099 363.93 44.5099 364.62 44.5099C365.62 44.5099 365.83 44.5099 365.83 43.9599V37.0899H360.56V28.9999H368.77ZM365.77 31.3399H363.29V31.9899H365.77V31.3399ZM363.29 34.8199H365.77V33.9999H363.29V34.8199Z" fill="#222222"/>
<path d="M390.05 39.68V42.37H382.43V44.37C382.43 46.65 381.64 47.42 376.93 47.42C376.665 46.4232 376.272 45.4651 375.76 44.57C376.89 44.63 378.49 44.63 378.89 44.63C379.29 44.63 379.41 44.55 379.41 44.27V42.37H371.83V39.68H379.41V38.47L380.73 38.53C381.05 38.27 381.36 37.98 381.66 37.7H375.58V35.17H384.23L384.69 35.03L386.91 36.34C386.781 36.5059 386.596 36.6196 386.39 36.66C385.389 37.753 384.295 38.7568 383.12 39.66L390.05 39.68ZM374.9 33.94V36.55H372.15V31.36H374.57C374.207 30.7166 373.796 30.1016 373.34 29.52L375.84 28.41C376.6 29.2252 377.239 30.1444 377.74 31.14L377.26 31.36H379.54C379.205 30.5728 378.814 29.8108 378.37 29.08L380.98 28.08C381.655 28.9994 382.197 30.0093 382.59 31.08L381.91 31.34H384.13C384.748 30.3859 385.287 29.3825 385.74 28.34L389.15 29.53C389.075 29.6263 388.974 29.6997 388.859 29.7421C388.744 29.7845 388.62 29.7941 388.5 29.77C388.174 30.3149 387.809 30.8362 387.41 31.33H389.87V36.52H387V33.94H374.9Z" fill="#222222"/>
<path d="M398 35.74C398.57 36.49 400.12 38.93 400.46 39.5L398.89 41.66C398.67 41.07 398.34 40.33 398 39.58V47.42H395.29V40.85C394.883 41.963 394.338 43.0211 393.67 44C393.33 43.0628 392.898 42.1617 392.38 41.31C393.65 39.3896 394.561 37.2551 395.07 35.01H392.91V32.31H395.25V28.22L398.54 28.4C398.54 28.6 398.36 28.74 397.95 28.8V32.3H400V35H398V35.74ZM409 33.64C410.16 34.8243 411.14 36.1719 411.91 37.64L409.43 39.08C409.43 38.98 409.35 38.86 409.29 38.74C408.864 39.9639 408.286 41.1297 407.57 42.21C408.841 43.3971 410.351 44.2974 412 44.85C411.219 45.6334 410.546 46.5179 410 47.48C408.389 46.8051 406.932 45.8081 405.72 44.55C404.304 45.8768 402.614 46.877 400.77 47.48C400.358 46.6576 399.862 45.8802 399.29 45.16C401.071 44.6446 402.692 43.6844 404 42.37C403.266 41.2424 402.655 40.0388 402.18 38.78L401.61 39.28C401.008 38.5817 400.338 37.9452 399.61 37.38C400.83 36.3548 401.816 35.0793 402.5 33.64H400.32V31H404.46V28.22L407.96 28.4C407.96 28.62 407.78 28.76 407.35 28.85V31H411.69V33.69L409 33.64ZM405.41 34.81C405.354 34.8956 405.273 34.9623 405.179 35.0016C405.084 35.0408 404.98 35.0507 404.88 35.03C404.357 36.0087 403.734 36.9303 403.02 37.78L404.39 37.42C404.73 38.3256 405.17 39.1909 405.7 40C406.143 39.148 406.479 38.2445 406.7 37.31L408.7 37.76C408.071 36.7292 407.362 35.7495 406.58 34.83L408.58 33.68H402.58L405.41 34.81Z" fill="#222222"/>
</g>
<defs>
<clipPath id="clip0_1_591">
<rect width="412" height="70" fill="white"/>
</clipPath>
</defs>
</svg>
