<svg width="297" height="186" viewBox="0 0 297 186" fill="none" xmlns="http://www.w3.org/2000/svg">
<path fill-rule="evenodd" clip-rule="evenodd" d="M159.882 178.529L160.057 178.031C160.474 177.975 160.89 177.92 161.307 177.837C161.46 177.671 161.614 177.533 161.767 177.367C161.767 177.311 161.767 177.256 161.767 177.201C162.315 176.979 162.688 177.699 163.411 177.422C163.718 177.284 164.266 176.675 164.595 176.537C164.858 176.564 165.143 176.62 165.406 176.647C166.129 176.426 166.633 176.011 167.159 175.485C167.401 175.79 167.707 175.928 168.255 175.624C168.409 175.541 168.453 175.07 168.584 174.96C168.76 174.96 168.957 175.015 169.132 175.043C169.593 174.821 170.25 174.517 170.842 174.213C170.93 174.351 170.995 174.462 171.083 174.6C171.806 174.849 172.508 173.908 173.078 173.825C173.494 173.742 173.187 174.434 173.604 174.24C173.845 174.13 174.612 173.41 174.788 173.355C175.072 173.244 175.204 173.659 175.314 173.604C175.511 173.41 175.708 173.189 175.905 172.995C176.037 173.078 176.168 173.134 176.3 173.217C176.782 173.023 176.87 172.414 177.308 172.663C177.659 172.442 177.462 172.719 177.615 172.193C178.47 172.082 179.193 171.363 179.917 171.114C181.429 171.695 183.073 170.118 184.191 169.426C184.651 169.122 185.155 169.26 185.616 168.928C186.076 168.569 186.646 167.6 187.128 167.213C187.567 166.881 188.115 166.909 188.553 166.522C189.035 166.107 189.167 165.443 189.781 165.111C189.781 164.945 189.802 164.779 189.824 164.585C190.526 164.585 190.548 164.253 190.964 164.032C191.688 163.7 192.082 164.364 192.608 164.087C193.09 163.838 192.937 163.534 193.244 162.953C193.332 162.787 193.748 162.787 193.814 162.676C194.515 161.569 193.682 159.384 193.616 158.471C193.441 158.471 193.244 158.415 193.068 158.388C193.178 158.111 193.112 158.222 193.244 158.056C193.682 157.004 194.691 157.475 195.392 156.949C195.699 156.728 195.918 155.953 196.313 155.842C196.576 155.925 196.839 156.036 197.124 156.119C197.343 156.008 197.65 155.317 197.891 155.178C198.373 154.929 199.118 155.123 199.579 154.874C199.688 154.653 199.798 154.431 199.907 154.21L201.508 153.214C201.639 153.353 201.771 153.491 201.88 153.602C202.735 152.965 203.7 152.799 204.62 152.218C205.628 151.582 206.681 150.309 208.083 150.42C208.083 150.254 208.105 150.088 208.127 149.894C209.508 149.811 210.517 148.677 211.306 148.234C211.525 148.262 211.766 148.29 211.985 148.317C212.051 148.151 212.095 147.985 212.161 147.819C212.38 147.902 212.599 147.985 212.818 148.068C213.015 147.958 212.862 147.57 213.015 147.404C213.059 147.349 214.155 146.547 214.199 146.519C214.462 146.547 214.747 146.602 215.01 146.63C215.58 146.325 216.238 145.495 216.786 145.136C217.114 144.914 217.443 145.136 217.772 144.914C218.035 144.748 218.232 144.14 218.539 143.974C218.956 143.752 219.263 144.029 219.657 143.78C219.854 143.642 220.117 142.922 220.293 142.812C220.534 142.673 220.994 143.227 221.389 142.95C222.507 142.148 223.866 140.682 225.422 140.709C225.422 140.488 225.466 140.239 225.488 140.018C227.066 140.128 227.658 138.69 228.688 137.998C229.126 137.721 229.652 138.109 230.069 137.832C230.31 137.666 230.442 137.03 230.705 136.864C230.88 136.864 231.077 136.919 231.253 136.947C231.538 136.781 231.888 135.923 232.042 135.84C232.37 135.619 233.05 135.702 233.16 135.646C233.488 135.48 233.883 134.761 234.212 134.567C234.628 134.318 235.001 134.678 235.33 134.374C235.395 134.152 235.461 133.931 235.527 133.71C235.834 133.461 236.732 133.488 237.083 133.212C237.215 133.129 237.28 132.658 237.412 132.548C237.828 132.188 238.398 132.188 238.837 131.856C238.968 131.773 239.056 131.275 239.166 131.192C239.582 131.192 239.999 131.192 240.415 131.192C241.051 130.86 241.533 130.058 242.322 129.864C242.322 129.698 242.344 129.532 242.366 129.338C243.725 129.338 244.448 128.066 245.413 127.485C245.72 127.291 246.136 127.54 246.399 127.263C246.574 127.098 246.553 126.572 246.75 126.434C247.188 126.102 247.67 126.351 248.153 126.102C248.591 125.853 248.964 124.995 249.38 124.691C250.432 123.944 251.638 123.556 252.449 122.477C252.58 122.477 252.712 122.505 252.865 122.533C252.931 122.173 252.865 121.813 253.063 121.703C253.282 121.564 253.633 121.924 254.027 121.647C254.378 121.426 254.619 120.79 254.948 120.541C255.255 120.319 255.649 120.402 255.934 120.153C256.109 119.987 256.241 119.462 256.416 119.351C256.767 119.102 257.205 119.406 257.534 119.157C258.017 118.77 258.586 117.663 259.069 117.276C259.332 117.055 259.66 117.248 259.924 117.027C260.866 116.28 261.655 114.924 262.642 114.26C262.927 114.509 263.825 114.15 264.066 113.763C264.066 113.541 264.11 113.292 264.132 113.071C264.395 112.739 265.009 112.905 265.118 112.85C265.623 112.545 266.017 111.688 266.477 111.3C266.609 111.3 266.741 111.328 266.894 111.356C267.223 111.107 267.486 110.304 267.815 110.083C267.99 110.083 268.187 110.138 268.363 110.166C268.384 110.166 270.028 108.008 270.05 107.953C270.226 107.953 270.423 108.008 270.598 108.036C270.883 106.901 271.629 106.569 272.286 105.988C272.396 105.822 272.374 105.85 272.462 105.49C272.637 105.49 272.834 105.546 273.01 105.573C273.01 105.352 273.053 105.103 273.075 104.882C273.689 104.854 273.799 104.716 273.821 104.273C273.952 104.273 274.084 104.301 274.237 104.328C274.237 104.107 274.281 103.858 274.303 103.637C274.434 103.637 274.566 103.664 274.719 103.692C274.719 103.637 274.719 103.581 274.719 103.526C274.829 103.36 274.829 103.388 274.895 103.028C275.026 103.028 275.158 103.056 275.311 103.083C276.21 101.091 279.125 99.4039 280.462 97.4949C280.594 97.4949 280.725 97.5226 280.879 97.5502C280.923 97.1076 280.944 96.9139 281.076 96.7203C281.229 96.6096 281.208 96.6373 281.492 96.6096C281.536 96.4713 282.26 94.756 282.347 94.6453C282.567 94.1473 283.706 93.428 284.035 92.432C284.211 92.432 284.408 92.4874 284.583 92.515C284.583 92.2937 284.627 92.0447 284.649 91.8234C285.438 91.0211 285.92 90.0528 286.665 89.1398C286.819 89.0291 286.797 89.0568 287.082 89.0291C287.148 88.6418 287.148 88.5588 287.279 88.3651C287.433 87.5075 287.608 87.5628 287.937 87.0648C288.068 87.0648 288.2 87.0925 288.353 87.1202C288.572 85.1559 289.647 84.3259 290.348 83.0256C291.247 81.338 292.102 79.6504 292.978 77.9904C293.066 77.5477 293.154 77.0774 293.219 76.6348C293.417 76.4411 293.614 76.2198 293.811 76.0261C293.833 75.7494 293.855 75.4451 293.877 75.1685C294.009 75.1408 294.162 75.0855 294.294 75.0578C294.491 74.5875 293.899 74.7811 294.096 74.1725C294.162 73.9512 294.666 73.1212 294.754 72.8722C294.798 72.2359 294.863 71.5995 294.907 70.9909C295.192 70.0779 295.894 68.418 296.157 67.505C297.012 64.5171 297.318 56.5216 296.595 53.838C296.639 53.3123 296.683 52.8144 296.727 52.2887C296.639 52.2057 296.551 52.1504 296.464 52.0674C296.288 51.1821 296.595 50.6287 296.376 49.7988C296.222 49.5498 296.047 49.3008 295.894 49.0518C295.938 48.5815 295.959 48.1388 296.003 47.6685C295.938 47.4748 295.565 47.3365 295.499 47.0875C295.521 46.7555 295.565 46.3958 295.587 46.0639C295.455 45.9809 295.324 45.9255 295.192 45.8425C295.192 45.4275 295.17 45.0402 295.148 44.6252C294.995 44.2379 294.403 43.9059 294.272 43.4632C294.074 42.7993 294.228 41.997 294.031 41.333C293.943 41.001 293.395 40.835 293.263 40.5307C293.263 40.171 293.219 39.839 293.219 39.4793C293 39.092 292.54 38.7324 292.343 38.3174C291.817 37.1554 291.532 35.3018 290.589 34.6101C290.611 34.2781 290.655 33.9185 290.677 33.5865C290.216 33.6695 290.479 33.4758 290.238 33.8632C289.932 33.6695 290.041 33.6418 289.712 33.4482C289.712 33.2268 289.756 32.9778 289.778 32.7565C289.603 32.7565 289.405 32.7012 289.23 32.6735C288.814 32.3139 288.836 31.0412 288.441 30.6539C288.025 30.2389 287.761 30.6262 287.52 30.0176C287.279 29.7963 287.389 29.9623 287.411 29.6579C287.235 29.1323 286.534 28.413 286.008 28.247C286.008 27.8873 285.964 27.5553 285.964 27.1957C285.657 27.085 285.328 27.002 285.022 26.8913C285.022 26.67 285.065 26.421 285.087 26.1997C284.408 26.0337 284.123 25.674 284.101 24.844C283.86 24.927 283.969 24.844 283.816 24.9824C283.597 24.9547 283.356 24.927 283.136 24.8994C283.136 24.5397 283.093 24.2077 283.093 23.8481C281.953 23.4607 281.712 22.0774 280.484 22.1051C280.484 21.8838 280.528 21.6348 280.55 21.4135C278.818 21.1091 278.38 19.3662 277.35 18.3979C277.306 18.3702 276.845 18.4809 276.67 18.3149C276.582 18.1212 276.604 18.1489 276.582 17.7892C275.114 17.5402 274.522 16.5719 273.733 15.6866C273.119 16.2953 272.637 15.078 272.286 14.8013C271.892 14.4693 270.335 14.8843 269.722 14.2756C269.459 14.0267 269.305 13.4457 268.998 13.1413C268.889 13.1413 268.911 13.086 268.691 13.4457C268.604 13.252 268.626 13.2797 268.604 12.92C268.253 12.92 267.99 13.3073 267.749 13.169C267.552 13.0583 267.113 12.1177 267.025 12.0347C266.762 11.8134 266.609 12.2007 266.456 12.1454C266.368 12.007 266.302 11.8964 266.214 11.758C266.083 11.758 265.666 12.0624 265.382 11.8134C265.382 11.7027 265.382 11.592 265.403 11.4814C264.987 11.2047 264.899 11.7304 264.439 11.3431C264.417 11.1771 264.373 10.9834 264.351 10.8174C263.869 11.426 262.751 9.93209 261.94 9.98742C261.107 10.0427 259.419 8.85311 258.477 8.49345C257.995 8.29979 256.877 8.68712 256.285 8.38279C255.978 8.21679 255.408 7.60814 255.123 7.35915C254.772 7.49748 254.838 7.77414 254.422 7.44215H254.159C254.159 7.22082 254.181 7.05482 254.202 6.88883C252.843 6.88883 251.857 6.99949 250.41 6.03118C249.709 5.56086 248.942 6.52917 248.46 6.30784C247.912 6.03118 247.473 4.97988 246.662 4.67555C246.333 4.75855 246.005 4.81388 245.676 4.89688C245.588 4.75855 245.522 4.64788 245.435 4.50955C245.172 4.48189 244.426 4.86921 243.922 4.50955C243.922 4.39889 243.922 4.28823 243.944 4.17756C243.703 4.0669 242.87 4.75855 242.278 4.31589C242.147 4.20523 242.41 3.9009 242.037 3.92857C241.971 3.92857 241.095 4.28823 240.897 4.28823C240.108 4.39889 239.538 3.76257 239.034 3.51358C238.442 3.23692 236.798 2.96026 236.601 3.01559C236.557 3.01559 236.294 3.48591 236.294 3.48591C235.637 3.67957 234.847 2.5176 233.883 2.65593C233.817 2.65593 232.809 2.93259 232.239 2.6006C232.151 2.46227 232.086 2.35161 231.998 2.21328C231.559 2.29628 231.143 2.62827 230.705 2.73893C230.025 2.90493 230.113 2.24094 229.784 2.10261C229.148 2.10261 228.513 2.04728 227.855 2.01962C226.321 1.41096 224.589 1.35563 223.274 2.46227C222.55 2.35161 222.309 2.10261 222.266 1.3003C221.674 1.13431 219.043 0.829979 218.583 0.995975C218.495 1.02364 218.298 1.4663 218.276 1.4663C217.75 1.71529 217.421 1.05131 217.224 0.968309C216.676 0.746981 216.479 1.07897 216.238 1.18964C216.04 1.07897 215.887 0.719315 215.58 0.746981C215.58 0.857645 215.58 0.968309 215.558 1.07897C215.339 0.995975 215.12 0.912977 214.9 0.829979C214.133 0.746981 212.489 0.470322 211.876 0.774647C211.656 0.746981 211.415 0.719315 211.196 0.691649C211.13 0.968309 211.065 1.24497 210.999 1.52163C210.473 1.4663 209.925 1.4663 209.749 1.52163C209.662 1.52163 209.574 1.52163 209.486 1.49396C209.574 1.13431 209.552 1.16197 209.662 0.995975C209.662 0.885311 209.662 0.774647 209.684 0.663983C208.281 0.525654 206.856 0.110664 206.067 1.05131C205.65 0.13833 202.998 0.636317 202.362 0.912977C201.814 0.912977 201.266 0.885311 200.718 0.857645C200.631 0.719315 200.565 0.608652 200.477 0.470322C200.412 0.636317 200.368 0.802313 200.302 0.968309C199.71 1.18964 199.206 0.359658 198.811 0.608652C198.702 0.663983 198.636 1.2173 198.483 1.27263C198.11 1.41096 194.734 0.663983 194.406 0.55332C194.296 0.663983 194.208 0.746981 194.099 0.857645C194.099 1.02364 194.077 1.18964 194.055 1.3833C193.66 1.32797 193.31 1.27263 193.09 1.43863C193.003 1.24497 193.025 1.27263 193.003 0.912977C192.17 1.16197 191.227 1.65996 191.293 0C191.03 0.387324 190.789 1.24497 190.613 1.65996C190.109 1.60463 189.605 1.52163 189.123 1.4663C189.035 1.32797 188.97 1.2173 188.882 1.07897C188.685 1.10664 188.158 1.60463 188.005 1.65996C187.391 1.93662 186.361 1.65996 185.923 1.74296C185.879 1.4663 185.857 1.43863 185.835 1.02364C184.914 1.02364 184.607 1.57696 183.972 1.82595C183.775 1.49396 182.394 1.49396 181.67 1.35563C181.298 1.27263 181.1 1.57696 180.684 1.74296C180.377 1.85362 179.215 1.3003 178.93 1.32797C177.988 1.4663 176.892 1.99195 175.971 2.15795C175.708 2.21328 176.015 1.74296 175.599 1.77062C175.599 1.77062 173.976 1.93662 173.779 2.04728C173.713 2.21328 173.67 2.37927 173.604 2.54527C173.538 2.6006 173.297 2.15795 173.078 2.13028C172.99 2.13028 170.601 2.13028 170.601 2.13028C167.927 3.20925 164.792 2.35161 162.6 3.84557C162.512 4.01157 162.249 3.51358 162.096 3.26459C161.964 3.26459 161.833 3.23692 161.68 3.20925C161.789 3.73491 161.899 3.65191 162.008 4.12223C161.285 4.70322 160.233 4.53722 159.553 5.5332C158.282 4.89688 156.309 3.67958 154.819 4.39889C154.753 4.56489 154.709 4.73088 154.643 4.89688C154.095 5.17354 154.227 4.37122 153.854 4.45422C153.745 4.62022 153.635 4.78621 153.547 4.92454C152.386 5.33953 151.838 4.64788 150.895 5.2842C150.742 5.47786 150.895 5.50553 150.72 5.78219C150.72 5.89285 150.72 6.00352 150.698 6.11418C150.939 6.08651 151.158 6.05885 151.399 6.03118C151.443 6.08652 151.487 6.16951 151.531 6.22484C151.531 6.44617 151.487 6.69517 151.465 6.91649C149.689 6.63983 146.928 7.71881 144.779 7.94014C144.341 7.82947 143.881 7.71881 143.442 7.58048C143.377 7.74647 143.333 7.91247 143.267 8.07847C142.741 8.29979 142.281 7.9678 141.886 8.24446C141.009 8.1338 141.075 7.99547 141.141 7.27615C140.637 7.27615 139.606 7.35915 139.321 7.71881C139.146 7.94014 139.19 8.38279 138.971 8.54879C138.686 8.77011 138.247 8.71478 137.984 8.93611C137.502 8.77011 137.48 8.82545 137.349 8.32746C137.261 8.32746 137.173 8.32746 137.086 8.29979C137.129 8.35513 137.173 8.43812 137.217 8.49345C136.077 10.5684 132.198 9.79376 131.014 11.841C130.291 11.3431 129.348 10.5684 128.866 11.2047C128.537 10.9281 128.581 10.9834 128.515 10.4577C126.871 10.6791 125.753 10.9281 124.306 11.2877C123.802 11.426 123.583 10.8727 122.947 11.1217C121.895 11.509 121.961 12.09 120.536 11.841C120.514 12.1177 120.492 12.422 120.471 12.6987C120.054 12.4497 119.418 12.3667 118.98 12.505C119.112 12.6434 119.09 12.6434 119.375 12.7263C119.375 12.8923 119.353 13.0583 119.331 13.252C119.199 13.252 119.068 13.2243 118.914 13.1967C118.98 13.501 118.914 13.3627 119.024 13.5563C118.739 13.7777 118.322 13.9713 118.016 14.1096C117.862 13.667 117.687 13.4457 117.555 13.003C117.27 13.003 117.007 13.0583 116.722 13.0583C116.722 13.418 116.92 14.1096 116.92 14.1373C116.81 14.3863 116.657 14.3863 116.569 14.9673C115.254 14.746 113.412 15.9909 112.47 16.3506C111.681 16.6549 110.541 16.1016 110.3 16.0739C109.752 15.9909 109.796 16.6549 109.445 16.4889C109.16 16.3506 108.853 15.6589 108.261 15.8249C106.749 16.2123 105.719 17.3189 104.272 17.3742C104.272 17.5402 104.25 17.7062 104.228 17.8999C104.776 17.8999 106.267 17.7062 106.31 17.6509C106.661 17.7339 106.771 17.7892 106.968 17.8999C106.88 18.2872 106.815 18.7022 106.727 19.0895C105.324 18.9512 105.083 19.3662 104.228 19.4492C103.921 19.4768 103.614 18.9789 103.154 19.1449C102.694 19.3109 102.255 20.0302 101.729 19.6428C101.4 19.8365 101.488 19.9748 101.269 20.2792C101.225 20.2792 99.7784 20.0855 99.7784 20.0855C99.4276 20.3068 99.6249 20.0302 99.4715 20.5558C98.2001 20.4728 98.0029 21.4135 97.1699 21.8285C96.6 22.1051 96.0301 22.0498 95.7671 22.1604C95.504 22.4094 95.5479 22.2711 95.4383 22.8244C95.2629 22.8244 95.0656 22.7691 94.8903 22.7414C94.956 22.4094 95.0437 22.0774 95.1095 21.7178C94.6053 21.9945 94.43 22.0221 94.3204 22.9904C94.1888 22.9904 92.8956 23.1564 92.6325 23.4607C92.6325 23.6821 92.5887 23.9311 92.5668 24.1524C92.3695 24.3184 92.3257 23.9587 92.3037 23.9311C90.8571 23.9311 89.5638 25.5634 88.0513 25.4527C88.0513 25.6187 88.0294 25.7847 88.0075 25.9784C87.4595 25.9784 86.3854 26.1167 86.0347 26.421L85.684 27.417C85.4867 27.583 84.0839 27.6383 83.5797 27.998C83.4701 28.164 83.492 28.1363 83.4044 28.496C82.9221 28.3853 82.944 28.413 82.7468 28.0533C82.6153 28.164 82.396 28.6066 82.2865 28.6896C82.0234 28.662 81.7385 28.6066 81.4754 28.579C80.7959 28.9939 80.4671 30.6816 79.678 28.6896C79.5903 28.6896 79.5027 28.6896 79.415 28.662C79.3054 28.7726 79.2177 28.8556 79.1081 28.9663C79.3054 29.4643 79.0643 29.1323 79.5027 29.1876C79.5465 29.2429 79.5903 29.3259 79.6342 29.3813C79.6342 29.4919 79.6342 29.6026 79.6123 29.7133C79.13 30.1559 78.6916 30.5156 78.1436 30.9029C78.1436 30.9582 78.1436 31.0136 78.1436 31.0689C78.7793 31.0689 79.4807 30.6816 79.7438 30.0729C79.8315 30.0729 79.9191 30.0729 80.0068 30.1006C79.8753 31.0966 79.7219 30.9029 79.3492 31.4009C79.2177 31.4009 79.0862 31.3732 78.9327 31.3456C78.9327 31.5115 78.9108 31.6775 78.8889 31.8712C78.2532 32.1202 77.6833 32.2309 77.2888 32.8672C76.675 32.5629 77.1134 32.6182 76.4777 32.7565C76.4339 32.4799 76.412 32.4522 76.3901 32.0372C76.3024 32.0372 76.2147 32.0372 76.127 32.0095C76.0174 32.3139 75.9297 32.6735 75.8859 33.1992C75.601 33.1992 75.3379 33.2545 75.053 33.2545C74.8557 34.2505 73.4747 34.9975 72.7076 35.0251C72.3349 35.0251 72.4884 34.7485 72.3349 34.6378C71.8965 34.7485 71.0197 34.5548 70.8225 34.6378C70.4937 34.7485 70.3402 35.4124 70.0553 35.5784C69.3758 36.0211 68.4332 36.3254 67.6441 36.4638C67.4468 36.1318 67.3811 36.2148 67.2934 35.7168C67.0084 35.7444 67.0304 35.7168 66.8769 35.8274C66.7454 36.0764 66.7893 36.4638 66.6577 36.8511C65.0576 37.0724 64.948 37.1001 63.5232 38.0131C63.4355 37.8747 63.3698 37.7641 63.2821 37.6257C61.3313 39.5347 59.0516 41.0563 57.0569 42.8823C56.3336 43.5462 55.4349 42.9376 55.1499 44.3762C55.0184 44.2932 54.8869 44.2379 54.7554 44.1549C54.6677 44.4039 54.6458 44.4316 54.5581 44.8189C53.5059 44.8189 51.9935 46.0085 51.0948 46.7832C50.218 47.5301 50.8098 48.4985 49.0124 48.6091C49.0782 48.9134 49.0124 48.7751 49.122 48.9688C49.0343 49.1071 46.8862 50.3521 46.667 50.3797C46.5574 51.2651 46.4697 51.3481 45.7683 51.2927C45.7683 51.7907 45.8121 52.0674 45.5272 52.4824C45.5272 52.5377 45.5272 52.593 45.5272 52.6484C45.4395 52.427 45.4395 52.344 45.4395 51.929C45.3956 51.929 45.3518 51.929 45.308 51.929C45.1984 52.2887 45.2641 52.2334 45.1326 52.427C44.9353 52.593 44.5846 52.759 44.1462 52.8144C44.0805 53.091 44.0147 53.3677 43.949 53.6443C43.0722 53.7827 42.6557 54.4743 41.9323 54.7786C41.9323 54.9446 41.9104 55.1106 41.8885 55.3043C40.8144 55.3873 39.565 57.7666 38.3594 58.1539C38.1841 58.2645 38.1183 58.2645 37.7895 58.2645C37.4388 59.9245 35.0496 62.0271 33.844 62.6081C33.844 62.8294 33.8001 63.0784 33.7782 63.2998C32.5069 63.5211 32.2438 65.264 31.104 65.7344C31.104 65.9557 31.0602 66.2047 31.0383 66.426C31.3671 66.26 31.3671 66.177 31.8931 66.177C32.0027 65.5684 31.8493 65.7344 32.2219 65.513C32.2219 65.4024 32.2219 65.2917 32.2438 65.181C32.2877 65.181 32.3315 65.181 32.3754 65.181C32.2877 65.8727 32.3096 65.9557 31.8712 66.1494C31.7178 68.2796 30.7314 67.8093 29.5916 68.6393C29.46 68.8329 29.4381 69.0543 29.3943 69.4693C29.3066 69.4693 29.2189 69.4693 29.1312 69.4416C29.0655 69.1373 29.0436 68.8883 29.0874 68.3903C28.8682 68.4456 28.8463 68.4733 28.5175 68.501C28.1668 69.2479 27.4434 70.0226 26.8516 70.3546C26.8516 70.4652 26.8516 70.5759 26.8297 70.6866C27.575 70.6036 28.1449 69.9119 28.5833 69.3586C28.9121 69.6629 28.7367 69.3586 28.8025 69.9119C28.6271 69.9119 28.4298 69.8566 28.2545 69.8289C28.0572 70.8526 27.6845 70.8526 27.5311 71.9869C26.9612 72.2082 26.6982 72.3189 26.3474 72.8722C26.2598 72.8722 26.1721 72.8722 26.0844 72.8445C26.2159 72.2635 26.479 71.4059 26.7858 71.0186C26.7858 70.9079 26.7858 70.7972 26.8078 70.6866C26.3694 70.9356 26.7858 70.9909 26.479 71.3506C26.194 71.4335 25.9091 71.5165 25.6241 71.5995C25.4487 71.8485 25.7337 72.0145 25.5583 72.2912C25.383 72.2912 25.4707 72.4019 25.2953 72.0699C25.0542 72.2082 23.739 74.1172 23.5856 74.4491C23.5856 74.6705 23.5417 74.9195 23.5198 75.1408C23.2787 75.2238 23.0376 75.3068 22.8184 75.3898C22.5553 75.6665 22.4457 76.4688 22.1608 76.6901C21.8978 76.9114 20.999 76.8838 20.736 77.1881C20.736 77.4094 20.6922 77.6584 20.6703 77.8797C20.1223 78.6544 19.2893 78.9034 19.092 80.2867C18.566 80.176 18.8071 80.259 18.2591 80.342C18.1933 80.7847 18.1495 80.923 18.0618 81.172C18.4125 81.338 18.3248 81.2826 18.7413 81.255C18.6756 81.6423 18.6756 81.7253 18.544 81.919C18.4125 82.1403 18.2152 81.5593 18.0399 81.338C17.7988 81.7253 17.6015 81.7806 17.4042 82.3063C17.3604 82.3063 17.3165 82.3063 17.2727 82.3063C17.2727 82.4169 17.2727 82.5276 17.2508 82.6383C17.5796 82.4446 17.9303 82.251 18.2591 82.085C18.3029 82.4723 18.3906 82.4446 18.1933 82.7766C18.1933 82.8319 18.1933 82.8873 18.1933 82.9426C18.1057 82.8873 18.018 82.8043 17.9303 82.7213C17.6234 83.3576 17.2727 83.4959 17.0973 84.3536C16.1767 84.1876 16.111 84.9345 15.1246 84.9622C15.015 85.4879 14.8835 85.7922 14.6204 86.1242C14.5766 86.1795 14.5108 86.2349 14.467 86.2902C14.467 86.2349 14.467 86.1795 14.467 86.1242C13.7875 86.5392 14.467 86.5945 14.1163 87.1202C13.9409 87.3692 13.4148 87.4245 13.2395 87.7011C12.9545 88.1715 12.9764 88.9185 12.6915 89.3611C12.6915 89.4165 12.6915 89.4718 12.6915 89.5271C12.6038 89.4441 12.5161 89.3888 12.4285 89.3058C12.012 90.2188 11.4202 91.7404 11.0914 92.266C11.0037 92.3767 11.0914 92.3214 10.9598 92.266C10.5434 92.515 10.6091 93.013 10.3242 93.4003C9.79809 94.092 8.83363 94.8666 8.48291 95.752C8.04452 96.8033 8.17604 97.4396 7.71573 98.4356C7.10197 99.7635 5.87447 100.455 5.72104 102.696C5.58952 102.696 5.458 102.668 5.30456 102.641C5.1292 104.052 4.49353 104.716 4.09898 105.601C4.09898 105.961 4.14282 106.293 4.14282 106.652C3.96746 107.04 3.22219 107.731 3.06875 108.063C2.98108 108.285 3.44139 108.451 3.26603 108.949C3.13451 109.336 2.47692 110.028 2.30157 110.553C2.23581 111.411 2.17005 112.269 2.08237 113.126C1.09598 115.229 0.942546 118.217 0.416474 120.043C0.241116 120.679 0.547992 120.873 0.613751 121.122C0.811028 122.201 0.306875 123.335 0.372635 124.054C0.416474 124.525 0.876787 125.604 0.591831 126.351C0.482233 126.6 0.197277 126.683 0 126.793C0.306875 127.568 0.526072 128.232 0.460313 129.449C0.723349 129.587 0.986385 129.753 1.24942 129.892C1.03022 130.196 1.03022 130.224 0.65759 130.334C0.591831 131.801 1.05214 131.884 0.964466 133.322C1.09598 133.322 1.2275 133.35 1.38094 133.378C1.38094 133.793 1.1179 133.737 1.18366 134.208C1.35902 135.812 2.21389 137.362 2.60844 138.745C2.58652 139.022 2.5646 139.326 2.54268 139.603C2.69612 140.35 3.11259 140.626 3.20027 141.594C3.33179 141.594 3.46331 141.622 3.61675 141.65C3.70443 144.25 6.11559 145.717 6.40055 147.93C6.5759 147.93 6.77318 147.985 6.94854 148.013C6.94854 148.234 6.9047 148.483 6.88278 148.705C7.05814 148.705 7.25541 148.76 7.43077 148.788C7.43077 148.954 7.40885 149.12 7.38693 149.313C8.74595 150.503 9.53506 152.412 11.0256 153.629C11.0475 154.017 11.1352 153.823 10.9818 154.155C11.1133 154.597 12.1435 155.261 12.4723 156.091C12.6038 156.091 12.7353 156.119 12.8888 156.147C12.8888 156.313 12.8668 156.479 12.8449 156.672C13.0422 156.783 13.7875 156.921 13.8971 157.17C14.0067 157.392 13.8532 157.696 13.9848 157.89C14.1382 157.779 14.5327 157.89 14.7958 158.166C14.8615 158.415 14.9492 158.637 15.015 158.886C15.2342 158.969 15.4534 159.052 15.6726 159.135C15.6726 159.301 15.6506 159.467 15.6287 159.66C15.9794 160.131 16.5055 159.66 16.9658 160.186C16.9877 160.352 17.0316 160.546 17.0535 160.712C17.3823 161.044 17.733 160.961 17.9741 161.348C17.9961 161.514 18.0399 161.708 18.0618 161.874C18.7852 162.593 20.5826 163.146 21.0429 164.004C21.0429 164.17 21.021 164.336 20.999 164.53C21.1963 164.087 22.2485 164.889 22.4677 165.083C22.5115 165.111 25.3611 167.379 25.6679 167.932C26.0187 167.739 25.7556 168.015 25.9748 167.628C26.3036 167.877 26.7858 168.403 26.9831 168.79C27.4215 168.735 27.3119 168.79 27.553 168.513C28.9121 170.588 31.8493 170.256 33.6029 172.082C34.6112 172.138 34.8742 172.359 34.8742 173.466C36.1017 172.636 37.5922 173.825 38.6444 174.489C39.3458 174.932 39.8719 174.711 40.5295 175.098C40.7925 175.236 41.8666 176.205 42.0858 176.177C42.305 176.149 43.7955 176.343 43.8613 176.398C43.8832 176.564 43.927 176.758 43.949 176.924C44.1462 176.896 44.3216 176.869 44.5189 176.813C44.5627 176.813 44.7381 177.367 44.7381 177.367C45.1326 177.588 44.9353 176.841 45.4395 177.118C45.4833 177.228 45.5052 177.367 45.5491 177.477C46.1848 177.837 47.0396 177.311 47.478 177.56C47.6095 177.754 47.7191 177.948 47.8507 178.141C48.4863 178.224 49.122 178.307 49.7577 178.39C49.8892 178.584 49.9988 178.778 50.1303 178.971C50.9632 178.778 54.9307 180.161 55.5006 180.548C55.7198 180.686 56.0924 180.299 56.202 180.299C56.2897 180.299 56.3774 180.299 56.4651 180.327C56.5089 180.327 56.5528 180.327 56.5966 180.327C56.5966 180.438 56.5966 180.548 56.5747 180.659C57.1227 180.742 57.6707 180.797 58.2187 180.88C58.2187 180.991 58.2187 181.101 58.1967 181.212C58.5913 181.433 58.6351 180.963 58.7667 180.936C59.4681 180.852 60.4545 181.959 61.3313 181.627C61.5504 181.544 61.5724 181.267 61.9231 181.184C61.9669 181.461 61.9888 181.489 62.0108 181.904C63.7205 181.738 65.7809 182.485 67.4249 183.149C67.8633 183.315 68.214 182.761 68.8059 182.983C70.0553 183.425 71.5677 183.508 72.313 183.785C72.598 183.702 72.8829 183.619 73.1679 183.536C73.7597 183.674 74.3296 183.813 74.9214 183.951C75.1406 183.868 75.0968 183.37 75.5133 183.508C75.5133 183.564 75.5133 183.619 75.5133 183.674C75.7106 183.757 76.2366 184.062 76.4339 184.145C76.9161 184.338 77.3764 183.508 77.8368 183.813C77.9244 183.868 77.8368 184.062 78.0779 184.2C78.4067 184.394 80.7302 184.006 81.4097 183.951C81.7823 183.896 82.5495 184.809 83.2948 184.56C83.4482 184.504 83.2071 184.172 83.6016 184.255C84.7415 184.504 85.9032 184.145 87.2841 184.56C87.6129 184.67 88.0732 185.224 88.7528 185.113C89.4761 184.975 90.1556 184.919 90.6817 185.03C90.9886 185.085 91.0982 184.781 91.2516 184.753C91.6023 184.919 91.953 185.085 92.3037 185.251C92.4791 185.224 92.786 184.698 93.1586 184.836C93.1586 184.947 93.1586 185.058 93.1367 185.168C94.3423 185.528 94.6491 184.366 96.0301 185.196C96.0958 185.03 96.1397 184.864 96.2055 184.698C96.2712 184.67 100.129 184.643 100.743 184.781C101.137 184.864 101.094 185.279 101.4 185.224C101.729 185.168 101.926 184.532 102.255 184.809C102.343 184.809 102.431 184.809 102.518 184.836C102.584 184.67 102.628 184.504 102.694 184.338C103.264 184.117 103.22 184.892 103.614 184.809C103.614 184.698 103.614 184.587 103.636 184.477C104.688 183.951 109.401 184.698 110.037 183.757C111.001 184.283 110.848 185.03 111.418 185.5C111.944 185.943 112.382 185.5 112.908 185.694C112.974 185.694 113.763 186.026 113.851 185.998C114.004 185.943 114.114 185.445 114.311 185.362C114.991 185.832 115.582 185.334 116.393 185.279C116.963 185.251 118.279 185.943 118.695 185.749C119.09 185.556 120.01 184.892 120.646 185.473C120.997 185.251 120.909 185.307 120.997 184.643C121.084 184.836 121.15 185.141 121.216 185.362C122.487 185.5 122.575 184.892 123.254 185.639C123.912 185.334 123.561 185.141 124.065 185.749C125.118 184.089 125.534 185.224 126.323 185.002C126.893 184.836 127.2 184.062 127.857 184.67C128.625 184.56 128.844 184.034 129.545 184.2C129.458 184.062 129.392 183.951 129.304 183.813C129.786 183.287 131.058 182.817 131.715 182.927C131.891 183.066 132.066 183.204 132.241 183.342C132.592 183.232 133.118 182.817 133.535 182.651C133.754 182.734 133.973 182.817 134.192 182.9C134.346 182.844 135.836 182.402 136.033 182.263C136.121 182.263 136.209 182.263 136.297 182.291C136.297 182.125 136.318 181.959 136.34 181.765C137.02 181.793 137.721 181.821 138.401 181.876C138.467 181.655 138.532 181.433 138.598 181.212C138.927 180.991 139.453 181.378 139.563 181.35C139.628 181.184 139.672 181.018 139.738 180.852C140.045 180.908 140.374 180.935 140.702 180.991C140.812 180.769 140.922 180.548 141.031 180.327C141.426 180.216 141.382 180.963 141.952 180.797C142.083 180.769 142.697 180.244 142.829 180.216C143.092 180.299 143.355 180.41 143.64 180.493C145.042 180.244 145.766 180.078 147.037 179.386C148.352 178.667 149.909 179.995 150.917 179.027C151.399 179.22 151.29 179.054 151.421 179.608C152.057 179.303 151.903 179.774 152.101 179.691C152.254 179.635 152.692 179.137 152.846 179.082C153.109 179.11 153.394 179.165 153.657 179.193C153.723 179.027 153.767 178.861 153.832 178.695C154.249 178.556 155.169 179.193 155.454 179.082L155.63 178.584C155.739 178.529 157.274 178.861 157.405 178.805C157.471 178.695 157.515 178.584 157.581 178.473C157.712 178.556 157.844 178.612 157.975 178.695C158.129 178.639 158.698 178.169 158.852 178.114C159.422 177.92 160.014 178.556 160.189 178.473L159.882 178.529ZM192.849 162.897C192.937 163.091 192.893 162.953 192.959 163.257C192.696 163.063 192.871 163.257 192.849 162.897ZM3.98938 106.735C3.98938 106.735 3.98938 106.514 4.0113 106.403C4.05514 106.403 4.09898 106.403 4.14282 106.403C4.16474 106.735 4.05514 106.625 3.96746 106.735H3.98938ZM2.25773 137.777C2.34541 137.97 2.32349 137.943 2.34541 138.302C2.25773 138.109 2.27965 138.136 2.25773 137.777ZM161.658 158.775C161.395 158.747 161.11 158.692 160.847 158.664C161 158.277 161.022 158.415 161.175 158C161.373 158.111 161.395 158.139 161.701 158.249C161.701 158.415 161.68 158.581 161.658 158.775ZM165.011 164.613C165.011 164.613 164.858 164.613 164.924 164.087C164.924 164.087 165.209 164.419 165.011 164.613ZM184.169 149.59C184.169 149.59 184.169 149.369 184.191 149.258C184.235 149.258 184.279 149.258 184.323 149.258C184.344 149.59 184.235 149.479 184.147 149.59H184.169ZM194.449 145.191C194.537 145.412 194.537 145.495 194.537 145.91C194.449 145.689 194.449 145.606 194.449 145.191ZM215.054 135.923C214.813 136.006 214.922 135.923 214.769 136.061C214.199 135.812 214.309 135.868 214.55 135.342C214.966 135.48 214.879 135.48 215.229 135.425C215.164 135.591 215.12 135.757 215.054 135.923ZM216.895 135.287C216.566 135.397 216.26 135.425 216.04 135.702C215.733 135.619 215.668 135.619 215.514 135.453C215.47 135.453 215.427 135.453 215.383 135.453C215.646 135.204 215.953 134.844 216.281 134.706C216.544 134.567 216.523 134.706 216.961 134.789C216.961 134.955 216.939 135.121 216.917 135.314L216.895 135.287ZM227.614 128.868C227.614 128.868 227.526 128.868 227.482 128.868C227.636 128.481 227.658 128.619 227.811 128.204C228.14 128.508 227.965 128.204 228.03 128.757C227.745 128.785 227.767 128.757 227.614 128.868ZM228.951 127.485C229.039 127.678 229.017 127.651 229.039 128.01C228.951 127.817 228.973 127.844 228.951 127.485ZM185.769 1.88129C185.923 2.18561 185.967 2.04728 185.747 2.21328C185.747 2.10261 185.747 1.99195 185.769 1.88129ZM183.643 9.40643C183.643 9.40643 183.731 9.40643 183.775 9.40643C183.796 9.73842 183.687 9.62776 183.599 9.73842C183.599 9.62776 183.599 9.5171 183.621 9.40643H183.643ZM176.059 7.71881C176.059 7.71881 176.147 7.71881 176.19 7.71881C176.212 8.0508 176.103 7.94014 176.015 8.0508C176.015 7.94014 176.015 7.82947 176.037 7.71881H176.059ZM174.59 2.13028C174.59 2.13028 174.678 2.13028 174.722 2.13028C174.744 2.46227 174.634 2.35161 174.546 2.46227C174.546 2.35161 174.546 2.24094 174.568 2.13028H174.59ZM126.367 15.9356C126.564 16.1846 126.52 16.0739 126.586 16.4889C126.455 16.4889 126.323 16.4613 126.17 16.4336C126.235 16.2676 126.279 16.1016 126.345 15.9356H126.367ZM123.693 11.592C123.693 11.758 123.671 11.924 123.649 12.1177C123.32 11.8134 123.495 12.1177 123.43 11.5644C123.517 11.5644 123.605 11.5644 123.693 11.592ZM49.7577 49.4944C49.7577 49.4944 49.933 49.4944 50.0207 49.5221C50.0207 49.6328 50.0207 49.7434 49.9988 49.8541C49.9111 49.8541 49.8234 49.8541 49.7357 49.8264C49.7357 49.7158 49.7357 49.6051 49.7577 49.4944ZM52.2565 56.0789C52.1031 55.6363 52.3223 55.9683 52.0154 55.6916C52.3003 54.1423 53.5936 54.2806 54.1416 53.2017C54.317 53.2017 54.5142 53.257 54.6896 53.2847C54.6896 53.1187 54.7115 52.9527 54.7334 52.759C55.7198 52.261 56.0267 51.2651 57.0788 51.1544C57.0788 50.9884 57.1008 50.8224 57.1227 50.6287C58.5694 50.1307 59.2489 48.8581 60.3449 48.2771C60.4545 48.2218 60.6079 48.6921 60.8709 48.5261C61.0463 48.4155 61.5724 47.4195 61.7916 47.2535C61.9231 47.2535 62.0546 47.2812 62.208 47.3088C62.6464 47.0322 63.1067 46.3682 63.5451 46.0915C63.7205 46.0915 63.9178 46.1469 64.0931 46.1745L64.2685 45.6765C64.685 45.3999 64.9699 45.5382 65.4083 45.3169C65.8029 44.9019 66.2193 44.4869 66.6139 44.0719C67.0084 43.8782 67.403 44.3486 67.5784 44.2102C67.7756 44.0442 67.7099 43.3526 67.9291 43.2143C68.1921 43.2419 68.4771 43.2973 68.7401 43.3249C68.8059 43.1589 68.8497 42.9929 68.9155 42.8269C69.3977 42.3843 70.0114 42.2183 70.5156 41.831C70.5156 41.7203 70.5156 41.6096 70.5375 41.499C70.9759 41.2223 71.502 41.6373 71.9184 41.333C72.1376 41.167 72.2911 40.5307 72.5541 40.3647C73.1898 39.922 73.9789 39.6177 74.5707 39.2304C74.7461 39.2304 74.9434 39.2857 75.1187 39.3134C75.1845 39.1474 75.2283 38.9814 75.2941 38.8154C75.6667 38.5664 76.1489 38.2897 76.4558 38.0961C76.6312 38.0961 76.8285 38.1514 77.0038 38.1791C77.0696 37.9577 77.1353 37.7364 77.2011 37.5151C77.486 37.2937 78.4944 37.2107 78.8889 37.0447C79.7219 36.6851 80.511 35.8551 81.2124 35.6061C81.4754 35.6338 81.7604 35.6891 82.0234 35.7168C82.2207 35.5784 82.4399 34.9145 82.6591 34.7485C83.0098 34.4718 83.8208 34.6101 83.9085 34.5548C84.2592 34.3611 84.6976 33.6695 85.0922 33.5035C85.9251 33.1438 86.3854 33.2268 87.1965 32.9225C88.6212 32.3969 90.1775 31.0412 91.5366 30.3772C92.238 30.0176 92.8737 29.8239 93.5312 29.6026C93.7066 29.6026 93.9039 29.6579 94.0792 29.6856C94.408 29.4919 94.8464 28.9386 95.2629 28.8003C95.4383 28.8003 95.6355 28.8556 95.8109 28.8833C95.8109 28.7726 95.8109 28.662 95.8328 28.5513C96.2493 28.33 96.5562 28.579 96.9507 28.3576C96.9507 28.247 96.9507 28.1363 96.9726 28.0256C97.1042 28.1086 97.2357 28.164 97.3672 28.247C99.1427 27.0573 101.203 26.8083 103.198 25.8954C103.899 25.5634 104.732 24.8717 105.499 24.6227C105.762 24.6504 106.047 24.7057 106.31 24.7334C106.705 24.5951 107.121 23.9864 107.494 23.8481C107.976 23.6267 108.283 24.1247 108.59 23.9864C108.743 23.9311 108.809 23.4054 108.919 23.3224C109.467 23.2671 110.037 23.2394 110.585 23.1841C111.878 22.4924 113.675 21.8838 115.013 21.3305C115.232 21.3581 115.473 21.3858 115.692 21.4135C115.736 21.3858 115.911 20.9708 115.999 20.9431C116.437 20.7495 116.503 21.1921 116.81 21.0538C117.051 20.8048 117.314 20.5282 117.555 20.2792C117.774 20.3622 117.994 20.4452 118.213 20.5282C118.827 20.4452 119.944 19.9748 120.492 19.6152C120.492 19.5045 120.492 19.3939 120.514 19.2832C120.602 19.4215 120.668 19.5322 120.755 19.6705C121.019 19.7812 125.424 18.4532 125.841 18.2595C126.104 18.2872 126.389 18.3425 126.652 18.3702C127.507 17.9276 128.647 17.3466 129.786 17.2082C129.94 17.2082 130.006 17.5956 130.312 17.4572C132.044 16.6273 134.258 16.2399 135.946 15.9356C136.121 15.9079 136.56 15.5483 136.669 15.5206C136.976 15.5759 137.305 15.6036 137.612 15.6589C137.721 15.6036 137.875 15.0226 137.941 14.995C138.247 14.8566 138.16 15.161 138.182 15.3823C138.598 15.5206 139.124 15.3823 139.563 15.2163C140.22 15.0226 141.185 14.1926 141.776 14.995C142.105 14.829 141.996 14.7736 142.237 14.5246C142.829 14.1373 144.056 13.9437 144.648 13.8053C144.736 13.9437 144.801 14.0543 144.889 14.1926C144.889 14.1926 145.897 14.0543 146.007 13.999C146.818 13.6117 148.045 13.3073 148.988 13.003C149.295 13.0583 149.624 13.086 149.931 13.1413C150.654 12.9477 151.75 12.173 152.495 12.09C152.627 12.2284 152.758 12.3667 152.868 12.4774C153.262 12.5604 154.183 12.256 154.687 12.2007C155.126 12.3114 155.586 12.422 156.046 12.5604C156.09 12.4497 156.156 12.339 156.2 12.2284C156.243 12.2284 156.287 12.2284 156.331 12.2284C156.2 13.169 155.717 13.501 155.104 13.6393C154.578 13.999 154.227 13.1967 153.898 13.3073C153.46 13.4457 153.306 13.8607 152.999 14.2203C152.956 14.1373 151.465 14.2756 151.18 14.497C150.895 14.248 150.829 13.9437 150.698 13.5563C150.325 13.667 150.281 13.8053 149.974 13.9713C149.996 14.331 149.974 14.3033 150.062 14.497C150.062 14.5523 150.062 14.6076 150.062 14.663C150.435 14.8013 150.216 14.58 150.369 14.3586C150.413 14.3586 150.457 14.3586 150.5 14.3586C150.435 14.746 150.435 14.829 150.303 15.0226C150.216 15.0503 150.281 15.2163 150.018 15.161L149.909 14.8013C149.711 14.9673 148.857 15.2993 148.506 15.1333C148.374 14.9396 148.265 14.746 148.133 14.5523C147.454 14.165 143.618 14.8843 142.829 15.4099C142.741 15.4099 142.653 15.4099 142.566 15.3823C142.785 15.8803 142.96 15.9356 143.004 16.6549C142.018 16.7103 141.448 17.3466 140.461 17.3742C140.615 16.7379 140.746 16.6826 141.097 16.4059C141.097 16.2399 141.119 16.0739 141.141 15.8803C140.922 15.9633 138.883 17.0146 138.489 16.4059C138.225 16.7379 138.116 17.2359 137.853 17.5402C137.502 17.7616 136.801 17.2912 136.34 17.5402C136.34 17.6509 136.34 17.7616 136.318 17.8722C135.398 18.3149 134.324 17.9276 133.513 18.5362C133.337 18.6745 133.206 19.2555 133.031 19.3385C132.614 19.5598 131.737 19.0342 131.54 19.1449C131.321 19.2555 131.211 19.8365 130.926 19.9195C130.356 20.1132 129.896 19.6428 129.567 19.7535C129.436 19.8088 129.195 20.3345 129.107 20.3898C128.69 20.6112 128.734 19.9195 128.427 20.3068C128.427 20.4728 128.405 20.6388 128.384 20.8325C128.186 20.2792 126.849 21.2198 126.674 21.6625C126.192 21.1645 126.433 21.2475 125.622 21.1645C125.622 21.3305 125.6 21.4965 125.578 21.6901C125.819 21.6901 126.038 21.6348 126.279 21.6071C126.323 21.6625 126.367 21.7455 126.411 21.8008C126.257 22.0774 126.213 22.0498 126.082 22.4648C125.512 22.3264 125.205 22.1604 125.052 21.6348C124.679 21.8008 124.854 22.0774 124.591 22.2711C124.175 22.5754 123.232 22.4648 122.772 22.7138C122.772 22.8244 122.772 22.9351 122.75 23.0458C122.29 23.1841 122.684 22.4648 122.224 22.6308C122.18 22.6308 121.851 23.2394 121.764 23.2671C121.391 23.3501 121.062 22.9074 120.536 23.1011C119.66 23.4331 118.651 24.1524 117.796 24.4844C117.336 24.6504 117.117 24.2354 116.832 24.3461L116.24 24.9547C115.714 25.176 115.429 24.8717 114.991 25.1484C114.749 25.3144 114.574 25.8124 114.245 25.923C113.938 25.8124 113.61 25.7294 113.303 25.6187C112.974 25.8124 113.303 26.2273 112.273 26.3657C112.623 26.7253 113.106 26.6147 113.369 26.338C113.456 26.338 113.544 26.338 113.632 26.3657C113.697 26.67 113.632 26.5317 113.741 26.7253C113.588 27.3617 113.456 27.417 113.106 27.6936C112.382 28.081 111.856 26.9743 111.374 27.1127C110.431 27.3893 109.533 28.081 108.897 28.8833C108.765 28.6896 108.656 28.496 108.524 28.3023C108.152 27.6936 108.02 28.9663 107.779 29.0769C107.56 28.9939 107.341 28.9109 107.121 28.8279C106.793 28.9109 106.223 29.4366 105.938 29.7133C105.806 29.9069 105.784 30.1283 105.741 30.5432C105.565 30.6262 105.302 30.7092 105.171 30.8199C105.039 31.0136 105.149 30.9859 105.105 31.5115C103.57 31.2902 103.11 31.7882 102.255 32.5352C102.211 32.5905 102.146 32.6459 102.102 32.7012C101.97 32.5075 101.861 32.3139 101.729 32.1202C101.729 31.8989 101.773 31.6499 101.795 31.4285C102.08 31.4009 102.058 31.4285 102.211 31.3179C102.387 31.3179 102.584 31.3732 102.759 31.4009C102.759 31.2902 102.759 31.1796 102.781 31.0689C102.058 31.1519 101.225 31.3179 100.567 31.2902C100.567 31.4562 100.546 31.6222 100.524 31.8159C100.699 31.8159 100.896 31.8712 101.072 31.8989C100.611 33.1438 99.5592 33.3652 98.7043 33.8355C98.5289 33.9462 98.5728 33.8355 98.1563 33.7525C98.1782 33.4205 98.2221 33.0608 98.244 32.7289C98.1563 32.7289 98.0686 32.7289 97.9809 32.7012C97.8275 33.1992 97.7179 33.2822 97.6083 33.8632C97.2795 33.5588 97.4549 33.8632 97.3891 33.3098C95.5479 33.1992 94.5396 34.7485 93.2463 35.1911C92.9394 35.3018 92.7641 34.8315 92.2818 35.0528C91.4927 35.4401 92.2818 36.0764 90.5721 35.8828C90.4625 36.2148 90.331 36.5468 90.2214 36.8787C89.4761 36.7957 89.3665 36.9617 88.8404 37.0447C88.8404 37.2107 88.8185 37.3767 88.7966 37.5704C88.4897 37.3767 88.5774 37.4874 88.424 37.1831C88.3144 37.3491 88.1829 37.8471 88.0733 38.0131C87.9637 38.2897 86.495 39.424 86.2978 39.507C85.7717 39.756 84.9607 38.8154 84.4127 39.092C84.3469 39.258 84.3031 39.424 84.2373 39.59C83.8428 39.8943 83.3386 39.4794 82.8564 39.756C82.8564 39.8667 82.8564 39.9773 82.8344 40.088C82.5276 40.2817 82.2426 40.088 81.9796 40.337C81.9138 40.503 81.87 40.669 81.8042 40.835C81.4316 41.084 81.4097 40.586 81.1247 40.752C81.059 40.8073 80.9274 41.1946 80.8178 41.2223C80.5329 41.3053 80.226 40.918 80.1602 40.9733C80.0945 41.1393 80.0507 41.3053 79.9849 41.4713C79.5684 41.831 79.0424 41.6926 78.5601 41.9693C78.2971 42.1353 78.056 42.7439 77.7929 42.9099C77.2011 43.3249 76.0174 43.1036 75.6886 43.3249C75.4475 43.4909 75.1845 44.0442 74.9214 44.2656C74.9214 44.3762 74.9214 44.4869 74.8995 44.5976C74.8118 44.4039 74.8338 44.4316 74.8118 44.0719C72.3788 44.9019 70.1649 46.3405 67.8852 47.8621C67.8852 47.9728 67.8852 48.0835 67.8633 48.1941C68.7182 47.6961 69.0908 47.1982 70.121 47.4472C70.121 47.2258 70.1649 46.9768 70.1868 46.7555C70.8225 46.7555 70.8006 46.5618 71.4362 46.5618C71.5239 46.2022 71.502 46.2298 71.6116 46.0639C71.8965 45.9255 71.8965 46.2022 72.2911 46.1469C72.3349 46.2022 72.3788 46.2852 72.4226 46.3405C72.1596 47.0875 69.9895 48.6091 69.2662 47.8345C69.1785 47.8345 69.0908 47.8345 69.0031 47.8068C68.9812 48.0835 68.9593 48.3878 68.9374 48.6645C68.0825 48.6645 67.8852 49.4114 67.3153 49.8541C67.0961 50.0201 67.0961 49.1901 66.4824 49.9094C66.1974 49.7988 66.2193 49.8264 66.0878 49.6881C65.9782 49.3284 66.0659 49.4944 66.1536 48.9964C65.6933 49.1348 65.4521 49.4114 65.2549 49.9094C64.948 49.7158 65.0357 49.8264 64.8822 49.5221C64.7288 49.6881 64.5754 49.8264 64.4219 49.9924C64.4219 50.1584 64.4 50.3244 64.3781 50.5181C62.4053 50.6564 60.849 51.68 59.227 52.7867C59.4242 53.2847 59.227 53.0357 59.6215 53.008C59.5119 53.3677 59.49 53.4507 59.2927 53.672C59.4462 53.9763 59.3585 53.8933 59.6654 54.0593L59.205 54.6956C58.8982 54.502 58.9858 54.6126 58.8324 54.3083C58.0652 54.253 57.3857 54.585 56.9692 55.1106C56.9254 55.1106 56.8816 55.1106 56.8377 55.1106C56.9692 54.3636 57.0569 54.3913 57.4734 54.1423C57.4734 54.0317 57.4734 53.921 57.4953 53.8103C57.0788 53.921 57.1227 54.004 56.6404 54.0593C56.3774 55.3596 56.0486 54.502 55.7198 55.332C54.8649 55.4426 51.3578 57.1579 50.8098 58.1539C50.4591 57.9602 50.5029 57.9049 50.1522 57.7112C50.0426 57.9879 49.9111 58.8179 49.7577 59.0392C49.6481 59.1222 49.3193 58.9562 49.0562 59.1222C48.9686 59.1222 48.8809 59.1222 48.7932 59.0945C49.0343 58.0432 51.4893 56.2726 52.3223 56.2449L52.2565 56.0789ZM97.0384 34.1675C97.0384 34.3335 97.0165 34.4995 96.9946 34.6931C96.6658 34.3888 96.8411 34.6931 96.7754 34.1398C96.863 34.1398 96.9507 34.1398 97.0384 34.1675ZM94.2108 34.9975C94.1888 35.2741 94.1669 35.5784 94.145 35.8551C94.0135 35.8551 93.882 35.8274 93.7285 35.7998C93.6847 35.7444 93.6409 35.6614 93.597 35.6061C93.6847 35.2465 93.6628 35.2741 93.7724 35.1081C93.9258 34.9975 93.9039 35.0251 94.1888 34.9975H94.2108ZM48.1794 58.8455C48.1794 58.8455 48.2671 58.9839 48.311 59.0392C48.311 59.1499 48.311 59.2605 48.289 59.3712C48.1575 59.5372 48.2452 59.3989 48.1137 59.7032C47.5438 59.5925 47.763 59.4542 47.4123 59.7862C47.3246 59.5925 47.3465 59.6202 47.3246 59.2605C47.8507 59.1775 47.7191 59.0115 48.1794 58.8455ZM46.119 60.3118C46.3601 60.2288 46.2505 60.3118 46.404 60.1735C46.4916 60.1735 46.5793 60.1735 46.667 60.2012C46.6012 60.3118 46.5574 60.4225 46.5136 60.5332C46.382 60.5332 46.2505 60.5055 46.0971 60.4778C46.0971 60.4225 46.0971 60.3672 46.0971 60.3118H46.119ZM45.5272 60.7545C45.5272 60.7545 45.7025 60.7545 45.7902 60.7822C45.7464 60.8375 45.6806 60.8928 45.6368 60.9482C45.5929 61.0035 45.5272 61.0588 45.4833 61.1141C45.4833 61.0035 45.4833 60.8928 45.5052 60.7822L45.5272 60.7545ZM43.6859 56.4939C43.6859 56.4939 43.7736 56.4939 43.8174 56.4939C43.8394 56.8259 43.7298 56.7153 43.6421 56.8259C43.6421 56.7153 43.6421 56.6046 43.664 56.4939H43.6859ZM19.4428 79.8993L19.5743 80.093C19.5743 80.093 19.7496 80.2313 19.8373 80.3143C19.4866 80.7847 19.3112 80.7017 19.1797 81.6146C19.0482 81.6146 18.9167 81.587 18.7632 81.5593C18.9386 80.5633 19.2236 80.7017 19.4428 79.8993ZM14.2916 102.17C14.6862 101.091 14.5327 99.7359 15.4753 99.5422C15.3876 99.1272 15.4534 99.2655 15.2561 98.9889C15.9356 96.6926 17.6673 96.1116 17.9303 93.262C18.4344 93.179 18.3468 93.2067 18.5221 92.6534C18.6536 92.6534 18.7852 92.681 18.9386 92.7087C19.114 90.9381 21.021 89.4164 21.8978 88.5865C22.0512 88.3928 21.8978 88.3651 22.0731 88.0885C22.3581 87.4522 22.9061 87.6735 23.2568 87.2032C23.2568 86.9818 23.3006 86.7328 23.3225 86.5115C23.8924 85.5432 24.9007 85.2665 25.7118 84.3812C25.8871 84.1046 25.8433 83.9386 25.931 83.3576C26.5666 83.3576 26.6762 82.9703 26.7858 82.9426C26.9612 82.9426 27.1585 82.9979 27.3338 83.0256C27.3996 82.7489 27.4654 82.4723 27.5311 82.1956C27.6188 82.085 29.1312 80.923 29.2847 80.8677C29.2847 80.6463 29.3285 80.3973 29.3504 80.176C30.1615 80.176 30.9506 79.263 31.2794 78.516C31.6082 78.516 31.915 78.4884 32.2438 78.4607C32.2877 77.9904 32.3096 77.6861 32.463 77.4371C32.6165 77.2711 33.4933 76.9667 33.8659 77.1051C33.9755 76.8284 34.0193 76.7178 34.0632 76.2751C34.4577 76.3028 34.2824 76.1921 34.4796 76.3304C35.1592 76.2198 35.0276 75.9154 35.3784 75.4175C35.5318 75.3068 35.5099 75.3345 35.7948 75.3068C35.7948 75.1408 35.8167 74.9748 35.8387 74.7811C36.4524 74.7811 36.3428 74.5875 36.9566 74.5875C36.9566 74.3661 37.0004 74.1171 37.0223 73.8958C38.4471 73.8128 39.0389 72.2635 40.2226 71.8762C40.2226 71.6549 40.2664 71.4059 40.2884 71.1846C41.0336 71.2399 43.9051 68.9713 44.0805 68.5563C44.2558 68.5563 44.4531 68.6116 44.6285 68.6393C44.6285 68.4733 44.6504 68.3073 44.6723 68.1136C44.8257 68.0583 45.571 68.2243 45.7683 68.086C45.9875 67.9476 46.1409 67.256 46.404 67.1177C46.5793 67.1177 46.7766 67.173 46.9519 67.2007L47.1492 66.5367C47.6315 66.1217 48.3329 66.26 48.859 65.9004C48.9466 65.9004 49.0343 65.9004 49.122 65.928C49.0782 65.8727 49.0343 65.7897 48.9905 65.7344C49.2535 65.264 49.7138 65.2364 50.0207 64.8214C50.1084 65.0427 50.1084 65.1257 50.1084 65.5407C50.6344 65.2087 50.2399 64.9044 50.6125 64.5724C51.2044 63.9914 51.9496 63.9084 52.6291 63.4381C52.6949 63.2721 52.7387 63.1061 52.8045 62.9401C53.0895 62.9401 53.3525 62.8848 53.6374 62.8848C57.5611 59.7862 61.8573 57.3792 66.5481 55.0276C66.8769 54.8616 67.1619 54.1147 67.4688 53.921C67.8414 53.6997 68.762 53.7827 68.8497 53.755C69.047 53.6997 69.7484 53.2293 70.0114 53.0357C70.0772 52.8697 70.121 52.7037 70.1868 52.5377C70.9759 51.9844 71.8308 52.2887 72.7295 51.6524C72.8829 51.5417 72.9268 51.0991 73.0583 50.9884C73.4747 50.9331 73.8912 50.8777 74.3077 50.7947C74.5707 50.4904 74.8119 50.1584 75.0749 49.8541C75.2064 49.9371 75.3379 49.9924 75.4694 50.0754C75.7763 49.8818 76.3901 49.6051 76.4777 49.5221C76.7408 49.2731 76.6969 49.4114 76.8065 48.8581C78.5601 48.8858 79.2615 47.1428 81.059 47.3365C81.059 47.1705 81.0809 47.0045 81.1028 46.8108C84.1716 45.7042 88.2267 43.4632 90.4406 42.1353C91.3612 41.582 93.1148 41.665 93.4874 40.2817C93.882 40.2817 94.0135 39.922 94.3423 40.0327C94.4738 40.254 94.2546 40.503 94.7149 40.42C94.7588 40.42 94.8026 40.42 94.8464 40.42C94.8464 40.42 95.1971 39.8943 95.4383 39.8113C95.6136 39.8113 95.8109 39.8667 95.9863 39.8943C96.052 39.7283 96.0959 39.5623 96.1616 39.3964C96.5562 39.1474 96.7754 39.258 97.148 39.009C97.148 38.8984 97.148 38.7877 97.1699 38.677C97.5206 38.4834 99.0988 38.594 99.0988 38.594C99.1865 38.5387 99.4276 38.0131 99.5592 37.9577C100.063 37.6811 100.546 37.9024 101.094 37.6257C101.51 37.4321 102.014 36.7681 102.409 36.5744C102.738 36.5744 103.044 36.5468 103.373 36.5191C104.71 36.0488 105.609 34.4165 107.363 34.7761C107.363 34.6101 107.384 34.4441 107.406 34.2505C108.196 34.2505 107.757 34.0292 108.13 33.8355C108.196 33.7802 109.664 33.8355 110.081 33.5588C110.146 33.3928 110.19 33.2268 110.256 33.0608C110.957 32.6182 111.856 32.9778 112.514 32.4799C112.623 32.2585 112.733 32.0372 112.842 31.8159C113.763 31.2349 115.341 31.5115 116.35 31.0689C116.657 30.9306 117.095 30.2942 117.38 30.1559C117.643 30.1836 117.928 30.2389 118.191 30.2666C118.585 30.1282 119.243 29.6026 119.638 29.4089C120.098 29.3536 120.558 29.2983 121.019 29.2429C121.238 29.1323 121.457 28.5513 121.632 28.4683C121.808 28.5513 121.983 28.6343 122.158 28.7173C122.29 28.6066 122.158 28.1363 122.356 28.0533C122.772 27.8596 123.123 28.4406 123.715 28.2193C123.978 28.1086 124.394 27.583 124.613 27.4723C124.767 27.3893 126.279 27.5276 126.696 27.2233C126.805 27.1403 126.871 26.6423 127.025 26.5593C127.288 26.587 127.573 26.6423 127.836 26.67C127.945 26.587 128.011 26.089 128.164 26.006C128.34 25.923 129.721 26.0613 130.093 25.923C130.488 25.757 131.145 25.2314 131.54 25.0654L132.351 25.176C132.526 25.0654 132.987 24.3461 133.25 24.2631C133.535 24.1524 134.938 24.5121 135.464 24.2077C135.529 24.1524 135.727 23.5991 135.792 23.5437C136.231 23.2671 136.625 23.8204 136.888 23.6821C136.932 23.6821 137.108 23.2394 137.195 23.2118C137.305 23.1564 137.765 23.4884 138.138 23.3501C138.379 23.2671 138.927 22.7414 139.168 22.6031C139.387 22.6308 139.628 22.6584 139.848 22.6861C140.593 22.3818 141.272 21.8008 141.864 21.5518C142.127 21.5795 142.412 21.6348 142.675 21.6625C144.626 20.7218 146.358 20.5558 148.221 19.6152C148.593 19.6705 148.944 19.6982 149.317 19.7535C149.689 19.6152 150.413 19.1172 150.764 18.8959C150.917 18.7852 150.961 19.3662 151.29 19.3109C151.794 19.2279 152.802 18.4255 153.306 18.1765C153.591 18.0382 153.679 18.3979 153.832 18.4255C154.643 18.0106 155.849 17.6232 156.682 17.2359C157.296 16.9316 157.712 17.5956 158.172 17.4296C158.392 17.3466 158.83 16.7656 159.071 16.6826C159.619 16.4336 160.277 16.8486 160.584 16.6826C160.934 16.5166 161.658 15.9356 162.03 15.8249C162.337 15.9356 162.666 16.0186 162.973 16.1293C163.126 16.0739 163.324 15.5759 163.433 15.4929C163.762 15.2716 164.135 15.6313 164.529 15.4653C164.77 15.3823 165.187 14.7736 165.428 14.7183C165.844 14.6353 166.59 15.2163 166.918 15.078C167.62 14.829 168.497 14.082 169.439 14.5523C169.505 14.3863 169.549 14.2203 169.614 14.0543C170.36 13.6117 171.237 14.2756 172.091 14.0543C172.859 13.833 174.02 13.2797 174.788 13.0307C175.094 13.086 175.423 13.1137 175.73 13.169C175.84 13.1137 175.927 12.588 176.059 12.505C176.146 12.4497 176.322 12.8093 176.585 12.754C177.111 12.6434 177.681 12.2007 178.163 12.09C179.215 11.841 179.917 12.2837 180.793 11.924C180.837 11.924 181.1 11.4537 181.1 11.4537C181.517 11.3154 181.385 12.1177 181.889 11.8964C181.955 11.7304 181.999 11.5644 182.065 11.3984C182.284 11.4814 182.503 11.5644 182.722 11.6474C182.722 11.5367 182.722 11.426 182.744 11.3154C183.007 11.3984 183.27 11.509 183.555 11.592C183.621 11.426 183.665 11.2601 183.731 11.0941C184.279 10.9004 185.002 11.5644 185.769 11.3707C186.076 11.2877 186.317 10.7897 186.361 10.7621C186.536 10.8451 186.712 10.9281 186.887 11.0111C188.685 10.2917 191.161 9.95975 192.74 10.2087C193.09 10.2641 193.003 9.95975 193.178 9.93209C193.858 9.73842 194.559 10.2364 194.954 10.1534C195.239 10.0981 195.743 9.65543 195.962 9.60009C196.51 9.40643 198.417 9.95975 199.118 9.65543C199.294 9.57243 200.521 9.01911 200.806 9.1851C200.894 9.24044 200.85 9.76609 201.332 9.60009C203.458 8.88078 206.089 9.37877 207.886 8.71478C207.93 8.82545 207.952 8.96378 207.996 9.07444C208.719 9.29577 209.881 8.60412 210.517 8.54879C211.35 8.46579 211.919 8.99144 212.84 8.85311C212.993 8.85311 213.454 8.52112 213.695 8.60412C213.739 8.71478 213.761 8.85311 213.805 8.96378C214.681 9.21277 214.813 7.44215 216.128 9.10211C216.544 8.35513 218.188 8.21679 218.473 9.07444C218.824 8.85311 218.627 9.12977 218.78 8.60412C219.306 8.60412 220.03 8.29979 220.578 8.49345C220.622 8.60412 220.643 8.74245 220.687 8.85311C220.928 8.96378 222.024 9.12977 222.331 9.07444C222.441 9.07444 222.814 8.65945 222.923 8.63179C223.274 8.57645 223.405 8.85311 223.581 8.88078C224.37 9.10211 226.036 9.2681 226.584 9.2681C226.671 9.2681 227 8.96378 227.022 8.99144C227.921 9.10211 228.644 9.54476 229.499 9.12977C229.631 9.40643 229.74 9.54476 229.85 9.87675C229.959 9.71076 229.959 9.73842 230.025 9.37877C231.011 9.54476 231.713 9.76609 232.897 9.57243C233.138 9.54476 233.686 9.21277 234.014 9.37877C234.277 9.5171 234.957 10.1257 235.461 10.0981C235.79 10.0981 236.404 9.73842 236.842 9.93209C237.127 10.0427 237.785 10.9004 238.157 10.7897C238.355 10.7344 238.968 10.1257 239.297 10.2364C240.02 11.5367 242.651 11.1217 244.119 11.7304C244.952 12.0624 246.268 11.8964 246.837 12.09C246.991 12.505 247.342 12.5327 247.758 12.5604C248.153 12.5604 248.087 12.173 248.46 12.3114C248.503 12.422 248.525 12.5604 248.569 12.671C248.744 12.6987 249.555 12.6987 249.665 12.8093C249.687 12.9753 249.731 13.169 249.753 13.335C250.038 13.335 250.301 13.2797 250.586 13.2797C250.586 13.3903 250.586 13.501 250.564 13.6117C250.893 13.833 252.054 13.418 252.23 13.4733C252.602 13.6117 253.063 14.5246 253.501 14.6906C253.939 14.8566 253.633 14.248 254.071 14.414C254.509 14.6076 255.518 15.5206 256.044 15.5483C256.197 15.5483 256.438 15.2716 256.745 15.4653C256.811 15.6589 256.899 15.8249 256.964 16.0186C257.271 15.9356 257.622 15.6313 258.082 15.8249C259.397 16.3783 259.748 17.3742 261.787 17.5402C261.809 17.8999 261.787 17.8722 261.874 18.0659C262.094 18.4255 264.57 18.8129 264.899 19.6705C265.25 19.4492 265.118 19.6152 265.228 19.0065C265.272 19.0065 265.316 19.0065 265.36 19.0065C265.425 19.2279 265.491 19.5598 265.579 19.7258C265.579 19.7535 267.201 20.9155 267.398 20.9985C267.639 20.9708 267.858 20.9431 268.1 20.9155C268.1 21.0261 268.1 21.1368 268.078 21.2475C268.341 21.3305 268.604 21.4411 268.889 21.5241C268.889 21.6348 268.889 21.7455 268.867 21.8561C269.152 21.8561 269.415 21.8008 269.7 21.8008C269.722 21.9668 269.765 22.1604 269.787 22.3264C270.27 22.0774 270.708 22.6861 271.103 23.0181C271.19 22.5201 271.344 22.8244 271.015 22.4924C271.015 22.4371 271.015 22.3818 271.015 22.3264C271.103 22.3264 271.19 22.3264 271.278 22.3541C271.366 22.7691 271.453 23.0458 271.453 23.5991C271.782 23.5991 272.089 23.5714 272.418 23.5437C272.966 23.7651 273.558 24.7887 274.084 25.1484C274.938 25.7294 276.385 26.421 276.824 26.8913C277.393 27.4723 277.437 28.1363 278.489 28.33C278.599 29.8516 280.155 29.8516 280.901 30.7369C281.054 30.9306 280.857 31.1796 280.988 31.4562C281.186 31.8435 281.602 31.7882 281.909 32.0925C282.216 32.4245 282.347 33.1992 282.61 33.5865C282.61 33.5865 283.334 33.8078 283.421 33.8632C283.465 33.8632 283.509 33.8632 283.553 33.8632C283.728 34.0845 283.728 34.6655 283.882 34.9421C283.991 35.1635 285.328 36.2978 285.548 36.3808C285.526 36.6574 285.504 36.9617 285.482 37.2384C285.613 37.2107 285.767 37.1554 285.898 37.1277C286.096 38.1237 286.183 37.8471 286.578 38.7877C286.709 38.7877 286.841 38.8154 286.994 38.843C286.994 39.0644 286.95 39.3134 286.929 39.5347C287.433 40.1433 287.674 40.7797 287.849 41.748C288.025 41.748 288.222 41.8033 288.397 41.831C288.331 43.1313 289.559 46.3128 290.173 46.9215C290.129 47.5025 290.085 48.0558 290.041 48.6368C290.216 48.6368 290.414 48.6921 290.589 48.7198C290.414 50.9884 291.093 52.1504 291.269 53.838C291.334 54.4466 291.006 54.17 290.94 54.502C290.764 55.166 291.093 55.249 291.137 55.5809C291.181 56.1896 290.852 56.1896 290.786 56.4109C290.589 57.0749 290.94 57.1579 290.984 57.4899C291.049 58.0986 290.567 58.5412 290.458 58.9839C290.019 60.5055 290.523 62.6081 289.91 63.9637C289.712 64.1021 289.515 64.2681 289.318 64.4064C289.164 64.7937 289.537 65.4577 289.186 65.9557C289.099 66.094 288.704 66.0664 288.616 66.2324C288.507 66.426 287.981 67.505 287.959 67.5327C287.915 67.9476 287.893 68.335 287.849 68.7223C287.652 68.8606 287.455 69.0266 287.257 69.1649L287.192 70.0226C287.192 70.0226 286.687 70.7972 286.556 70.9909C286.468 70.9909 286.381 70.9909 286.293 70.9632C286.271 71.2399 286.249 71.5442 286.227 71.8209C286.161 71.9315 285.745 71.9869 285.657 72.0975C285.526 72.5402 285.394 72.9828 285.263 73.4255C285.131 73.6192 284.758 73.7575 284.671 74.0342C284.627 74.5045 284.605 74.9471 284.561 75.4175C284.342 75.8048 284.101 75.6388 283.926 76.3858C283.794 76.3858 283.663 76.3581 283.509 76.3304C283.136 77.2987 282.851 77.8797 282.106 78.2394C282.106 78.4607 282.062 78.7097 282.04 78.931C281.821 78.9864 280.331 81.0336 280.199 81.2826C280.177 81.5593 280.155 81.8636 280.133 82.1403L278.643 83.4959C278.358 83.5789 278.27 83.3299 277.963 83.4129C277.898 83.5789 277.854 84.7132 277.7 84.9345C277.415 85.0175 277.13 85.1005 276.845 85.1835C276.407 85.4879 274.719 88.3098 274.588 89.0568C274.193 89.0568 274.281 89.1674 274.04 88.9738C273.667 89.1951 273.842 89.4718 273.558 89.7761C272.637 90.8551 271.541 91.8787 270.555 92.847C270.445 93.013 270.445 92.9854 270.379 93.345C270.248 93.345 270.116 93.3173 269.963 93.2897C269.48 94.341 268.253 95.254 267.42 95.7243C267.42 95.9456 267.376 96.1946 267.354 96.4159C266.653 96.4713 265.886 97.2736 265.579 97.9099C265.403 97.9099 265.206 97.8546 265.031 97.8269C264.855 98.5462 264.702 98.2972 264.527 98.9889C264.395 98.9889 264.264 98.9612 264.11 98.9335C263.584 99.5422 263.014 99.6252 262.729 100.676C262.598 100.676 262.466 100.649 262.313 100.621C262.072 101.672 261.283 101.894 260.537 102.115C260.537 102.336 260.493 102.585 260.471 102.807C259.551 102.807 259.529 103.277 259.003 103.83C258.915 103.747 258.828 103.692 258.74 103.609C258.126 104.494 257.403 105.518 256.614 106.099C256.307 106.32 255.912 106.099 255.627 106.32C255.32 106.597 255.167 107.372 254.838 107.593C254.663 107.593 254.466 107.538 254.29 107.51C253.983 107.704 253.523 108.368 253.37 108.783C253.106 108.755 252.822 108.7 252.559 108.672C252.427 109.668 252.274 109.474 251.901 109.972C251.726 109.972 251.528 109.917 251.353 109.889C251.287 110.277 251.287 110.36 251.156 110.553C250.739 110.858 250.52 110.47 250.169 110.775C249.972 110.941 249.884 111.383 249.687 111.577C249.643 111.632 249.577 111.688 249.534 111.743C249.49 111.466 249.468 111.439 249.446 111.024C249.402 111.024 249.358 111.024 249.314 111.024C249.117 111.522 248.964 111.964 248.898 112.711C248.481 112.822 248.043 112.96 247.627 113.071C247.517 113.237 247.539 113.209 247.451 113.569C246.421 113.569 246.246 114.205 245.544 114.897C245.435 115.063 245.435 115.035 245.369 115.395C243.637 115.284 241.971 118.438 240.305 118.217C240.086 118.41 240.042 119.019 239.801 119.185C239.626 119.185 239.429 119.13 239.253 119.102C238.99 119.268 238.464 119.987 238.333 120.375C238.157 120.375 237.96 120.319 237.785 120.292C237.785 120.458 237.763 120.624 237.741 120.817C237.215 121.039 236.623 121.288 236.163 121.647C236.053 121.813 236.075 121.786 235.987 122.145C235.812 122.145 235.615 122.09 235.439 122.062C235.001 122.56 233.993 123.418 233.401 123.529C233.401 123.639 233.401 123.75 233.379 123.861C234.08 123.861 235.198 123.003 235.417 122.394C235.615 122.505 235.637 122.533 235.943 122.643C235.593 123.916 234.65 123.695 233.993 124.635C233.861 124.635 233.73 124.608 233.576 124.58C233.576 124.746 233.554 124.912 233.532 125.106C233.247 125.133 233.269 125.106 233.116 125.216C232.042 125.216 232.107 126.102 231.231 126.351C231.077 126.461 231.187 126.406 230.946 126.489C230.814 126.323 230.924 126.434 230.683 126.268C230.792 125.991 230.836 125.88 230.88 125.438C231.669 125.133 232.392 124.442 233.028 124.497C233.028 124.331 233.05 124.165 233.072 123.971C232.042 124.165 231.757 124.94 230.661 124.857C230.507 125.216 230.442 125.438 230.179 125.659C230.179 126.185 230.179 126.24 230.376 126.544C230.244 126.932 230.2 126.904 230.047 127.208C229.762 127.208 229.499 127.263 229.214 127.263C229.083 127.098 229.192 127.208 228.951 127.042C229.126 126.406 229.433 126.323 229.85 126.129C229.85 126.019 229.85 125.908 229.872 125.797C229.324 125.853 228.556 126.24 228.162 126.627C228.052 126.738 227.943 127.208 227.833 127.291C227.658 127.291 227.46 127.236 227.285 127.208C226.518 127.651 225.904 128.176 224.984 128.481C224.984 128.702 224.94 128.951 224.918 129.172C224.523 129.172 222.638 129.975 222.2 130.39C222.2 130.556 222.178 130.722 222.156 130.915C221.937 130.832 221.718 130.749 221.498 130.666C221.257 130.805 220.994 131.469 220.731 131.607C220.315 131.856 220.402 131.386 220.052 131.524C219.416 131.773 219.153 132.741 218.802 133.433C218.715 133.433 218.627 133.433 218.539 133.405C218.539 133.184 218.583 132.935 218.605 132.714C217.377 132.769 217.136 133.903 215.492 133.682C215.492 133.903 215.449 134.152 215.427 134.374C214.44 134.346 214.44 134.872 213.454 134.816C213.344 135.508 212.402 135.646 211.832 136.172C211.722 136.338 211.744 136.31 211.656 136.67C211.065 136.559 211.24 136.31 210.955 136.919C210.867 136.781 210.802 136.67 210.714 136.532C210.1 136.67 210.495 136.836 210.122 137.14C209.793 137.14 209.486 137.168 209.158 137.196C208.719 137.389 208.105 138.192 207.689 138.385C207.426 138.358 207.141 138.302 206.878 138.275C206.681 138.385 206.703 138.966 206.527 139.105C205.935 139.603 204.949 139.049 204.291 139.492C204.182 139.575 204.094 140.045 203.963 140.156C203.239 140.654 201.968 141.069 201.135 141.179C201.135 141.401 201.091 141.65 201.069 141.871C201.025 141.871 200.982 141.871 200.938 141.871C200.521 142.231 198.329 142.701 197.979 142.701C197.979 142.867 197.957 143.033 197.935 143.227C196.707 142.895 196.444 143.891 195.129 143.891C195.129 144.112 195.085 144.361 195.063 144.582C194.493 144.416 194.362 144.25 193.967 144.61C193.88 144.61 193.792 144.61 193.704 144.582C193.77 145.163 193.616 144.831 193.923 145.136C193.923 145.246 193.923 145.357 193.901 145.468C191.578 144.721 188.137 147.128 185.682 148.207C184.739 148.622 183.073 148.539 182.788 149.922C182.481 149.645 182.679 149.977 182.547 149.535C182.218 149.535 182.196 149.562 181.977 149.645C181.933 150.06 181.911 150.448 181.868 150.863C181.692 150.863 181.495 150.807 181.32 150.78C181.32 150.558 181.363 150.309 181.385 150.088C181.1 150.088 180.837 150.143 180.552 150.143C180.465 150.392 180.443 150.42 180.355 150.807C179.873 150.531 178.974 150.586 178.865 150.614C178.777 150.614 178.689 150.614 178.602 150.586C178.602 150.752 178.58 150.918 178.558 151.112C178.382 151.112 178.185 151.056 178.01 151.029C178.01 151.195 177.988 151.361 177.966 151.554C176.607 151.222 170.82 152.689 169.921 153.795C169.527 153.657 169.461 153.657 169.264 153.353C168.913 153.574 169.11 153.297 168.957 153.823C167.269 153.629 166.677 154.348 165.581 154.597C165.45 154.321 165.45 154.431 165.362 154.044C165.187 154.127 164.924 154.21 164.792 154.321C164.683 154.487 164.683 154.459 164.617 154.819C163.543 154.819 163.389 155.068 162.819 155.455C162.841 155.455 162.885 155.455 162.907 155.455C162.929 155.787 162.819 155.676 162.732 155.787C162.732 155.676 162.732 155.593 162.754 155.483C162.622 155.566 162.491 155.649 162.315 155.732L160.671 155.676C160.474 155.87 160.277 156.091 160.079 156.285C159.773 156.23 159.444 156.202 159.115 156.147C158.742 156.285 156.704 157.392 156.506 157.724C156.419 157.53 156.441 157.558 156.419 157.198C155.893 157.558 155.564 157.115 155.038 157.364C155.038 157.475 155.038 157.585 155.016 157.696C154.665 157.89 154.358 157.696 154.03 157.917C154.03 158.028 154.03 158.139 154.008 158.249C153.745 158.222 153.46 158.166 153.197 158.139C152.605 158.415 152.32 158.72 151.509 158.443C151.421 158.692 151.399 158.72 151.312 159.107C151.224 158.913 151.246 158.941 151.224 158.581C150.873 158.692 150.106 158.83 149.799 159.079C149.711 159.079 149.624 159.079 149.536 159.052C149.536 158.83 149.58 158.581 149.602 158.36C148.528 158.249 146.643 159.494 146.226 159.135C145.897 159.328 145.985 159.467 145.766 159.771C145.766 159.826 145.766 159.882 145.766 159.937C145.678 159.771 145.634 159.384 145.547 159.218C145.481 159.135 144.648 159.328 144.407 159.577C143.837 160.241 142.96 160.795 142.061 161.348C141.601 161.016 140.878 161.071 140.527 161.486C140.198 161.182 140.374 161.486 140.308 160.933C140.132 160.933 137.699 161.569 137.634 161.625C137.568 161.846 137.502 162.067 137.436 162.289C136.998 162.51 137.349 161.652 136.91 161.874C135.749 162.455 133.6 162.759 132.724 164.281C132.636 164.087 132.658 164.115 132.636 163.755C132.176 163.755 131.935 163.755 131.65 163.976C130.926 163.866 130.86 163.838 130.641 164.53C130.291 164.336 129.458 164.004 129.195 163.644C128.712 163.727 128.844 163.672 128.603 164.087C128.515 163.893 128.537 163.921 128.515 163.561C128.077 163.7 127.529 164.336 127.309 164.806C126.52 164.696 124.46 164.059 123.474 164.474C123.298 164.557 123.167 165.055 122.882 165.083C122.619 164.945 122.356 164.779 122.093 164.64C121.961 164.668 121.83 165.249 121.764 165.304C121.172 165.581 120.997 164.419 120.624 165.664C120.317 165.443 120.383 165.47 120.251 165.083C120.12 165.277 120.098 165.498 120.054 165.913C119.966 165.913 119.879 165.913 119.791 165.885C119.747 165.443 119.769 165.609 119.857 165.194C118.936 165.194 118.585 165.636 117.621 165.581C117.533 166.19 117.555 166.162 117.27 166.411C116.678 167.213 116.021 166.024 115.429 167.047C114.859 166.854 114.815 166.632 114.815 166.273C114.289 166.19 113.785 166.024 113.588 166.107C112.974 166.107 113.018 165.996 112.842 166.715C112.031 166.411 107.253 166.466 106.924 166.798C106.836 166.66 106.771 166.549 106.683 166.411C105.872 166.162 102.694 167.6 102.124 166.688C101.773 166.909 101.97 166.632 101.817 167.158C100.809 166.771 99.9756 167.13 99.2304 166.826C99.1646 166.992 99.1208 167.158 99.055 167.324C98.5728 167.13 98.0686 166.964 97.5864 166.771C97.5864 166.937 97.5645 167.103 97.5426 167.296C96.6 166.383 96.1397 167.518 95.0437 167.656C94.4957 167.711 94.6711 167.075 94.1231 167.186C93.9039 167.241 93.882 167.794 93.7943 167.849C93.597 167.932 93.1148 167.434 93.0052 167.407C92.1065 167.158 91.142 167.656 90.7255 168.32C89.6295 168.071 88.8185 167.186 87.9417 167.075C87.4157 167.02 86.232 167.269 85.8594 167.324C85.3771 167.407 85.3552 166.964 85.2018 166.881C85.1579 166.881 85.1141 166.881 85.0703 166.881C84.7195 166.798 84.325 167.158 84.0839 167.269C83.7989 167.103 83.9085 166.826 83.2728 166.992C83.229 166.992 83.1852 166.992 83.1413 166.992C82.966 167.075 82.8344 167.6 82.5495 167.6C82.1111 167.6 81.87 166.771 81.5412 166.605C81.0809 166.383 81.0151 166.771 80.8398 166.854C80.6863 166.743 80.1383 166.743 79.8972 166.549C79.8972 166.439 79.8972 166.328 79.9191 166.217C79.9191 166.217 76.675 166.217 75.5352 165.996C75.5352 166.162 75.5133 166.328 75.4914 166.522C74.768 166.134 74.0227 165.055 73.3871 165.387C73.0802 165.083 73.1679 165.277 73.1679 164.668C73.0802 164.668 72.9925 164.668 72.9048 164.64C72.9048 164.862 72.861 165.111 72.8391 165.332C71.2389 165 70.143 164.696 69.2443 163.81C69.1347 164.004 69.0689 164.142 68.9374 164.281C68.9155 164.308 66.7893 163.063 65.9782 163.534C65.9563 163.368 65.9125 163.174 65.8905 163.008C64.6411 163.285 64.6192 162.731 63.1725 162.482C63.1725 162.316 63.1944 162.15 63.2163 161.957C61.5943 162.095 61.5943 161.763 60.2572 161.044C60.0161 160.933 59.5777 161.154 59.5558 161.127L59.4681 160.601C59.0297 160.352 57.0569 160.712 56.7281 160.407C56.7062 160.241 56.6624 160.048 56.6404 159.882C56.1144 160.214 55.8513 159.743 55.5664 159.577L54.2293 159.052C54.0758 159.107 54.1416 159.494 53.7909 159.328C52.9799 158.969 51.84 158.415 51.292 157.779C51.1824 157.779 51.2044 157.724 50.9852 158.083C50.8975 157.89 50.9194 157.917 50.8975 157.558C49.2974 157.17 48.6398 156.257 47.1931 155.842C47.1931 155.676 47.215 155.51 47.2369 155.317C46.7327 155.566 46.7547 155.261 46.404 155.372C46.0752 155.068 46.2505 155.372 46.1848 154.819C46.0971 154.819 46.0094 154.819 45.9217 154.791C45.9875 155.095 45.9217 154.957 46.0313 155.151C45.9436 155.289 43.2475 153.325 42.3927 152.578C42.2831 152.606 41.2309 152.689 40.9021 152.384C38.2718 150.033 34.655 147.985 32.1123 145.329C31.0383 144.195 29.482 143.78 28.934 142.12C28.6271 142.065 28.2983 142.037 27.9695 141.982C27.9695 141.76 28.0133 141.511 28.0353 141.29C26.3913 140.82 25.8652 138.634 24.4404 138.026C24.4404 137.804 24.4843 137.555 24.5062 137.334C24.2212 137.334 23.9582 137.389 23.6733 137.389C23.5198 135.895 22.0512 134.65 21.2182 133.765C20.5168 133.018 20.3195 131.635 19.5304 130.943C19.5304 130.777 19.5524 130.611 19.5743 130.417C19.3989 130.417 19.2016 130.362 19.0263 130.334C18.9824 129.2 18.7413 129.809 18.3029 129.2C18.1056 128.923 18.2591 128.481 18.1057 128.121C18.018 127.872 17.733 127.9 17.5796 127.706C17.2508 127.236 17.3604 126.71 17.1412 126.268C16.9877 125.936 16.4178 125.631 16.2644 125.272C16.089 124.884 15.9575 123.39 15.7602 122.948C15.6945 122.809 15.3219 122.671 15.2342 122.533C15.2342 122.477 14.3574 119.821 14.3574 119.821C14.3793 119.489 14.4231 119.13 14.4451 118.798C14.3135 118.715 14.182 118.659 14.0505 118.576C14.0505 118.217 14.0067 117.885 14.0067 117.525C13.9628 117.331 13.5244 116.778 13.5244 116.778C13.5683 116.308 13.5902 115.865 13.634 115.395C13.5902 115.118 13.1956 114.731 13.1518 114.454C13.2176 114.177 13.2833 113.901 13.3491 113.624C13.2833 113.182 12.8888 112.518 12.7792 112.158C12.6257 111.632 13.0203 110.719 13.0641 110.47C12.9764 110.332 12.9107 110.221 12.823 110.083C12.4723 107.565 13.5683 103.609 14.182 101.921L14.2916 102.17ZM160.079 164.474C160.079 164.474 160.079 164.253 160.101 164.142C160.255 164.447 160.299 164.308 160.079 164.474ZM119.725 166.134C119.725 166.134 119.725 166.356 119.703 166.466C119.528 166.466 119.331 166.411 119.155 166.383C119.155 166.273 119.155 166.162 119.177 166.051C119.353 166.051 119.55 166.107 119.725 166.134ZM106.749 168.237C106.836 168.43 106.793 168.292 106.858 168.596C106.595 168.403 106.771 168.596 106.749 168.237ZM99.4934 174.24C99.4934 174.24 99.4934 174.019 99.5153 173.908C99.5592 173.908 99.603 173.908 99.6468 173.908C99.6688 174.24 99.5592 174.13 99.4715 174.24H99.4934ZM92.3914 168.596C92.3914 168.596 92.3914 168.375 92.4133 168.264C92.4572 168.264 92.501 168.264 92.5449 168.264C92.5668 168.596 92.4572 168.486 92.3695 168.596H92.3914ZM81.585 167.711C81.585 167.711 81.585 167.49 81.6069 167.379C81.6508 167.379 81.6946 167.379 81.7385 167.379C81.7604 167.711 81.6508 167.6 81.5631 167.711H81.585ZM73.7378 165.968C73.7378 165.968 73.7378 166.19 73.7159 166.3C73.6282 166.3 73.5405 166.3 73.4528 166.273C73.4528 166.162 73.4528 166.051 73.4748 165.941C73.5624 165.941 73.6501 165.941 73.7378 165.968ZM63.3479 164.945C63.3479 164.945 63.3479 164.723 63.3698 164.613C63.4136 164.613 63.4575 164.613 63.5013 164.613C63.5232 164.945 63.4136 164.834 63.3259 164.945H63.3479ZM51.292 160.933C51.0728 160.795 51.1605 160.878 51.029 160.712C50.9194 160.407 51.029 160.712 51.0728 160.186C51.292 160.49 51.2482 160.352 51.292 160.905V160.933ZM42.2392 153.823C42.2392 153.823 42.2392 153.602 42.2611 153.491C42.305 153.491 42.3488 153.491 42.3927 153.491C42.4146 153.823 42.305 153.712 42.2173 153.823H42.2392ZM39.6089 152.274C39.6089 152.274 39.6089 152.052 39.6308 151.942C39.6746 151.942 39.7185 151.942 39.7623 151.942C39.7842 152.274 39.6746 152.163 39.5869 152.274H39.6089ZM19.5743 134.844C19.5743 134.844 19.5743 134.623 19.5962 134.512C19.64 134.512 19.6839 134.512 19.7277 134.512C19.7496 134.844 19.64 134.733 19.5524 134.844H19.5743ZM8.98707 96.2499C8.98707 96.2499 8.98707 96.3606 8.98707 96.4159C8.72403 96.4436 8.81171 96.3053 8.72403 96.1946C8.81171 96.1946 8.89939 96.1946 8.98707 96.2223V96.2499ZM98.9235 181.295C99.1208 181.544 99.0769 181.433 99.1427 181.848C98.8139 181.544 98.9892 181.848 98.9235 181.295ZM158.392 166.522C158.392 166.522 158.304 166.383 158.26 166.328C158.304 166.328 158.348 166.328 158.392 166.328C158.611 165.941 158.698 165.968 159.115 165.913C159.115 165.747 159.137 165.581 159.159 165.387C158.041 165.47 157.756 166.356 156.726 166.466C156.748 166.632 156.791 166.826 156.813 166.992C156.616 166.743 156.66 166.854 156.594 166.439C156.178 166.688 155.893 167.462 155.389 167.683C154.819 167.905 154.972 167.186 154.599 167.241C154.205 167.296 153.745 167.988 153.416 168.126C153.24 168.126 153.043 168.071 152.868 168.043C152.649 168.181 152.692 168.679 152.517 168.873C152.232 169.177 151.092 169.288 150.829 169.177C150.807 169.786 150.851 170.118 150.72 170.395C150.106 170.81 148.002 170.007 147.717 170.173C147.651 170.339 147.607 170.505 147.541 170.671C147.41 170.588 147.278 170.533 147.147 170.45C147.059 170.505 146.971 170.865 146.84 170.92C146.467 171.059 146.007 170.727 145.875 170.782C145.81 170.948 145.766 171.114 145.7 171.28C145.437 171.252 145.152 171.197 144.889 171.169C144.604 171.308 144.473 171.944 144.122 172.11C143.552 171.806 143.442 171.999 143.004 172.304C142.851 172.442 142.083 171.833 142.083 171.833C141.952 171.944 141.93 172.414 141.755 172.497C141.448 172.608 140.659 172.027 140.264 172.138C140.001 172.221 139.256 172.857 138.971 172.829C138.883 172.829 138.795 172.829 138.708 172.802C138.708 172.691 138.708 172.58 138.73 172.47C138.379 172.691 138.576 172.414 138.423 172.94C138.072 172.829 137.699 172.719 137.349 172.636C137.283 173.023 137.283 173.106 137.151 173.3C136.932 173.41 136.275 173.106 136.099 172.636C135.902 172.829 135.705 173.3 135.486 173.41C135.398 173.466 135.222 173.106 134.959 173.161C134.828 173.189 134.455 173.576 134.368 173.604C134.105 173.687 133.425 173.355 133.14 173.438C132.965 173.493 132.176 173.881 132 173.991C131.781 173.964 131.54 173.936 131.321 173.908C131.211 174.13 131.102 174.351 130.992 174.572C130.685 174.462 130.356 174.379 130.049 174.268C130.049 174.379 130.049 174.489 130.028 174.6C129.129 175.015 127.441 174.434 126.696 175.043C126.477 175.209 126.411 175.845 126.192 176.011C126.148 176.066 125.622 174.96 125.096 176.039C124.767 175.734 124.942 176.039 124.876 175.485C123.956 175.983 122.684 175.347 121.676 175.762C121.325 175.9 121.479 175.568 121.435 175.375C121.435 175.375 120.361 175.541 120.317 175.568C120.251 175.79 120.186 176.011 120.12 176.232C119.44 176.675 119.287 175.679 118.848 176.592C118.476 176.371 118.388 176.232 118.235 175.817C117.972 176.066 117.752 176.315 117.599 176.786C116.92 176.288 116.24 175.956 115.67 176.703C115.407 176.564 115.495 176.398 115.013 176.26C114.903 176.758 114.903 176.841 114.662 177.09C114.443 177.173 113.895 176.537 113.456 176.592C113.325 176.592 113.04 177.035 112.996 177.062C112.667 177.201 111.988 177.007 111.746 177.062C111.483 176.371 111.483 176.592 110.826 176.592C110.826 176.426 110.848 176.26 110.87 176.066C110.103 176.343 109.335 177.311 108.568 177.339C108.371 177.339 107.363 176.564 106.99 176.426C105.96 176.066 105.127 176.703 103.943 176.537C103.877 176.979 103.833 177.118 103.746 177.367C103.746 177.367 101.773 176.896 101.707 176.924C101.707 177.035 101.707 177.145 101.685 177.256C100.918 177.643 99.7126 177.588 98.9016 177.588C98.8797 177.228 98.9016 177.256 98.8139 177.062C98.5728 176.869 98.5728 176.979 98.1344 176.979C98.1344 177.145 98.1125 177.311 98.0905 177.505C98.244 177.422 98.3755 177.311 98.5289 177.228C98.5728 177.284 98.6166 177.367 98.6605 177.422C98.6605 177.533 98.6605 177.643 98.6385 177.754C98.0248 177.671 97.8933 177.56 97.5864 177.256C97.4768 177.45 97.411 177.588 97.2795 177.726C96.9507 177.865 96.9507 177.726 96.7534 177.311C96.1835 177.394 96.2274 177.754 95.8767 177.892C95.4163 177.782 94.978 177.671 94.5176 177.533C94.5176 177.533 94.0354 178.141 93.9258 178.141C93.334 178.224 93.1148 177.394 92.7641 177.284C92.7641 177.284 90.2652 177.782 90.2433 177.809C90.1556 177.588 90.1556 177.505 90.1556 177.09C89.8268 177.256 89.8268 177.477 89.5638 177.699C89.1912 177.865 88.0513 177.699 87.3499 177.754C87.3499 177.754 86.6485 177.45 86.5389 177.477C86.4512 177.477 86.2539 177.948 86.232 177.948C85.5306 178.252 85.2895 177.201 84.7634 177.394C83.6893 177.809 82.5933 178.003 81.7604 177.007C81.7604 177.007 78.7574 177.09 78.319 177.062C77.9244 176.896 77.5299 176.73 77.1134 176.564C77.0477 176.73 77.0038 176.896 76.9381 177.062C76.8942 177.062 76.8504 177.062 76.8065 177.062C76.1928 176.841 75.7106 176.62 74.8776 176.979C74.8338 177.035 74.768 177.09 74.7242 177.145C74.2639 176.537 73.409 176.288 72.313 176.315C72.313 176.481 72.2911 176.647 72.2692 176.841C71.5677 176.122 70.8005 176.481 70.4279 175.9C70.2525 175.9 70.0553 175.845 69.8799 175.817C70.0114 176.343 69.9238 175.956 70.2526 176.205C70.143 176.481 70.2087 176.371 70.0772 176.537C69.5511 176.786 69.0031 175.928 68.6524 175.485C68.499 175.762 68.3236 176.011 68.1702 176.288C67.403 176.177 67.3592 176.177 66.5262 176.066C66.4824 175.513 66.5262 175.651 66.307 175.347C66.1755 175.181 66.2851 175.292 66.044 175.126C65.8686 175.375 65.8905 175.236 65.7371 175.596C63.7863 174.849 60.9586 174.877 58.9201 174.711C58.9201 174.489 58.9639 174.24 58.9858 174.019C58.1967 173.881 57.4953 173.41 57.1008 173.41C56.487 173.438 55.4568 173.908 54.843 173.991C54.843 173.825 54.8649 173.659 54.8869 173.466C52.5415 173.134 50.218 172.719 48.6398 172.304C48.311 172.221 46.3163 172.082 46.1848 171.972C46.1848 171.972 46.0313 171.474 45.9656 171.418C45.3299 170.976 42.0639 169.371 41.4282 169.592C41.1871 169.675 41.4063 170.007 40.5733 170.007C40.5733 169.592 40.5733 169.509 40.4856 169.288C40.4856 169.233 40.4856 169.177 40.4856 169.122C40.4418 168.762 40.3322 169.454 40.3322 169.454C40.0472 169.205 40.1568 169.177 39.9596 168.873C39.85 168.79 39.3897 168.79 38.8636 168.735C38.8636 168.569 38.8855 168.403 38.9074 168.209C38.6882 168.32 38.8197 168.624 38.469 168.486C38.3156 168.237 38.1402 167.988 37.9868 167.739C37.5484 167.434 37.0443 167.849 36.7374 167.739C36.5182 167.656 36.3867 167.103 36.1017 167.13C36.1017 167.241 36.1017 167.352 36.0798 167.462C35.751 167.158 35.9263 167.462 35.8606 166.909C35.0934 166.909 34.6769 166.356 34.2166 166.854C33.9097 166.632 33.8659 166.466 33.7344 166.107C33.2741 166.19 33.5371 165.996 33.296 166.383C32.3973 166.134 31.2794 165.194 30.7095 164.474C30.5999 164.225 30.6218 164.032 30.6437 163.589C30.293 163.81 30.4245 163.644 30.3149 164.253C30.0957 164.142 30.1176 163.893 30.0738 163.866C29.745 163.672 29.6792 164.308 29.5039 164.142C29.5039 164.032 29.5039 163.921 29.5258 163.81C29.4381 163.755 28.9997 163.561 28.9997 163.561C28.8463 163.561 28.6929 163.866 28.4298 163.672C28.0572 163.395 27.6626 162.676 26.8735 162.427C26.8735 162.206 26.9174 161.957 26.9393 161.735C25.4049 161.431 23.9582 160.933 23.2568 159.522C22.928 159.633 23.0376 159.55 22.8184 159.799C22.7745 159.799 22.7307 159.799 22.6869 159.799C22.6869 159.577 22.7307 159.328 22.7526 159.107C21.1306 158.609 17.2069 154.625 16.2206 153.214C16.1329 153.021 16.1548 153.048 16.1329 152.689C15.3876 152.606 14.3574 151.416 13.6998 150.448C13.6121 150.254 13.634 150.282 13.6121 149.922C12.5381 149.59 11.3544 147.736 11.0037 146.63C10.8722 146.63 10.7406 146.602 10.5872 146.574C10.5872 146.408 10.6091 146.242 10.631 146.049C10.4995 146.049 10.368 146.021 10.2146 145.993C9.84193 144.721 8.87747 144.029 8.70211 142.673C8.52675 142.673 8.32948 142.618 8.15412 142.59C8.11028 141.152 7.10197 140.432 6.77318 139.271C6.55398 138.468 6.70742 137.749 6.42246 136.974C6.24711 136.836 6.07175 136.698 5.89639 136.559C5.89639 136.144 5.87447 135.757 5.85255 135.342C5.74296 135.148 5.39224 135.342 5.32648 135.093C5.26072 134.844 5.5676 133.488 5.37032 132.852C5.1292 132.022 4.88809 131.081 4.75657 130.334C4.60313 129.532 5.10728 127.983 4.97577 127.595C4.84425 127.512 4.71273 127.457 4.58121 127.374C4.3401 126.544 4.80041 125.853 4.86617 125.493C4.95385 125.106 4.66889 124.967 4.64697 124.774C4.53737 123.916 5.01961 123.058 5.08536 122.754C5.17304 122.311 4.88809 122.394 4.86617 122.201C4.66889 120.9 5.21688 119.379 5.6772 119.019C5.58952 118.632 5.58952 118.742 5.458 118.466C5.458 118.466 5.89639 116.501 6.07175 116.114C6.97046 113.956 7.05814 110.858 8.39524 109.64C8.39524 109.53 8.39524 109.419 8.41716 109.308C9.07475 110 8.41715 111.992 8.65827 113.154C8.96515 114.648 8.81171 115.92 9.1405 117.221C9.2501 117.691 9.71042 118.41 9.82001 118.881C10.0173 119.711 9.79809 120.319 10.0611 121.011C10.0611 121.122 10.0611 121.232 10.0392 121.343C10.1707 121.343 10.3022 121.371 10.4557 121.398C10.3242 123.999 12.6696 127.429 13.6779 129.117C14.0286 129.698 14.0944 130.583 14.6204 130.971C14.6204 131.192 14.5766 131.441 14.5547 131.662C15.2123 131.856 15.4534 132.575 15.6726 133.212C15.8041 133.212 15.9356 133.239 16.089 133.267C16.089 133.488 16.0452 133.737 16.0233 133.959C16.1548 133.959 16.2863 133.986 16.4398 134.014C16.5932 134.54 16.6151 134.706 17.0535 134.955C17.0535 135.121 17.0316 135.287 17.0097 135.48C17.4919 135.591 17.5796 135.619 17.7988 135.923C17.8865 135.923 17.9741 135.923 18.0618 135.951C18.0399 136.283 17.9961 136.642 17.9741 136.974C19.6181 137.555 19.0701 138.8 19.9469 139.658C20.0784 139.63 20.2319 139.575 20.3634 139.547C20.4949 139.769 20.2538 140.101 20.4511 140.267C20.736 140.516 20.9552 140.045 21.2621 140.543C21.8101 141.484 21.7882 142.895 22.8622 142.839C22.9061 143.116 22.928 143.144 22.9499 143.559C23.2129 143.586 23.4979 143.642 23.7609 143.669C23.7609 144.997 25.3391 146.436 26.4132 146.63C26.3036 146.74 26.2159 146.823 26.1063 146.934C26.5447 147.515 27.4873 148.345 28.0133 148.76C28.1449 148.732 28.2983 148.677 28.4298 148.649C28.6052 148.871 28.3421 149.258 28.4956 149.535C28.6271 149.784 32.1562 152.44 32.6603 152.523C32.6603 152.689 32.6384 152.855 32.6165 153.048C34.0851 153.353 33.3398 153.574 34.1728 154.293C34.5016 154.57 35.0496 154.514 35.1153 154.597C35.1153 154.708 35.1153 154.819 35.0934 154.929C35.3784 155.317 35.2907 154.763 35.6414 155.012C35.6852 155.123 35.7072 155.261 35.751 155.372C35.9263 155.372 36.1236 155.427 36.299 155.455C36.299 155.455 36.7593 156.202 36.7812 156.202C36.9566 156.202 37.1539 156.257 37.3292 156.285C37.3292 156.396 37.3292 156.506 37.3073 156.617C37.5922 156.811 37.9649 156.396 38.4033 156.755C38.4033 156.866 38.4033 156.977 38.3814 157.087C38.8417 157.475 38.5129 156.838 38.9074 157.336C38.9074 157.392 38.9074 157.447 38.9074 157.502C39.1047 157.475 39.2801 157.447 39.4773 157.392C39.5431 157.585 39.6308 157.751 39.6965 157.945C39.9157 158.028 40.1349 158.111 40.3541 158.194C40.376 158.36 40.4199 158.554 40.4418 158.72C40.8144 158.775 41.1651 158.803 41.5378 158.858C42.831 159.882 44.5189 161.348 45.5052 160.933C45.5491 160.933 45.5929 160.933 45.6368 160.933C45.5929 160.988 45.5272 161.044 45.4833 161.099C45.7025 161.818 46.3163 161.68 46.7547 162.316C47.1054 162.095 46.9081 162.372 47.0615 161.846C47.1054 161.846 47.1492 161.846 47.1931 161.846C47.2369 162.123 47.2588 162.15 47.2807 162.565C49.933 162.953 52.3442 164.806 54.1635 165.913C54.4485 166.079 54.9526 165.885 55.2595 166.051C56.1582 166.577 57.7145 167.434 58.4379 167.683C59.0297 167.905 59.9722 167.739 60.7394 168.154C60.7394 168.154 61.0682 168.32 61.134 168.375C61.134 168.486 61.134 168.596 61.1121 168.707C61.4628 168.901 61.682 168.098 62.23 168.513C62.23 168.624 62.23 168.735 62.208 168.845C62.3834 168.845 62.5807 168.901 62.756 168.928C62.756 169.039 62.756 169.15 62.7341 169.26C63.1506 169.565 63.1725 169.094 63.304 168.984C63.3698 168.956 63.4575 169.482 63.8301 169.399C63.9397 169.371 63.8301 168.928 64.2685 169.122C64.3123 169.233 64.3343 169.371 64.3781 169.482C64.7507 169.537 65.1014 169.565 65.4741 169.62C65.8029 169.786 66.8769 170.367 67.1838 170.533C67.5126 170.533 67.8195 170.505 68.1483 170.478C68.3236 170.533 68.8059 171.059 68.9155 171.114C69.9018 171.501 71.217 170.865 72.1815 171.557C72.1815 171.667 72.1815 171.778 72.1596 171.889C72.6637 172.248 72.8829 171.501 73.2775 171.695C73.5405 171.806 74.5488 172.525 74.8557 172.608C75.1187 172.691 75.053 172.165 75.4256 172.331C75.4256 172.442 75.4256 172.553 75.4037 172.663C75.9517 173.051 77.4422 172.553 78.1436 172.857C78.2313 172.995 78.2971 173.106 78.3848 173.244C78.4944 173.134 78.582 173.051 78.6916 172.94C79.0862 172.94 79.5027 173.493 79.7438 173.604C80.2698 173.825 80.3137 173.244 80.4452 173.521C82.3741 173.466 84.8949 174.074 86.2101 173.77C86.8677 173.604 87.4157 174.351 87.6787 174.323C87.6787 174.213 87.6787 174.102 87.7006 173.991C88.8843 173.742 90.7694 174.351 91.2516 174.462C91.3393 174.462 91.427 174.462 91.5146 174.489C91.5146 174.379 91.5146 174.268 91.5366 174.157C91.975 174.268 92.4353 174.379 92.8737 174.517C93.7285 174.462 94.6272 173.825 95.4821 174.683C95.7232 174.13 95.7232 174.157 95.7232 173.493C96.7315 174.738 97.6521 173.244 99.2523 174.13C99.34 174.268 99.4057 174.379 99.4934 174.517C100.809 174.24 101.883 174.13 102.979 173.936C103.198 174.019 103.417 174.102 103.636 174.185C103.702 174.019 103.746 173.853 103.812 173.687C104.294 173.549 104.491 174.406 105.017 174.185C105.017 174.074 105.017 173.964 105.039 173.853C105.85 173.549 107.012 174.379 107.494 174.185C107.779 174.047 109.839 173.576 110.146 173.659C111.44 174.019 114.771 173.051 116.415 172.912C117.796 172.802 119.396 173.189 120.558 172.774C120.734 172.719 120.909 172.165 121.019 172.138C121.435 172.027 121.282 172.746 121.676 172.58C124.92 171.225 129.37 171.778 132.877 170.229C133.206 170.284 133.513 170.312 133.842 170.367C134.806 170.146 135.047 169.98 135.705 169.565C136.099 169.897 138.839 169.15 139.606 169.039C139.869 169.122 140.132 169.233 140.417 169.316C140.483 169.15 140.527 168.984 140.593 168.818C140.922 168.818 141.228 168.79 141.557 168.762C141.711 168.596 141.864 168.458 142.018 168.292C142.105 168.347 143.464 168.375 143.815 168.181C143.815 168.071 143.815 167.96 143.837 167.849C143.99 167.766 144.495 167.6 144.538 167.6C144.801 167.683 145.064 167.794 145.349 167.877C145.415 167.711 145.459 167.545 145.525 167.379C146.117 167.075 147.366 167.656 147.717 167.49C149.01 166.854 150.522 166.134 152.342 166.522C152.342 166.356 152.364 166.19 152.386 165.996C153.503 166.356 153.482 165.885 154.49 165.415C154.863 165.47 155.213 165.498 155.586 165.553C155.674 165.498 155.915 164.972 156.046 164.917C156.353 164.806 156.419 165.111 156.572 165.166C157.581 164.696 158.479 164.557 159.685 164.198C159.882 164.64 160.079 164.889 160.43 165.166C160.167 165.858 159.685 166.162 159.334 166.771C158.94 166.715 158.589 166.688 158.392 166.466V166.522ZM147.476 5.50553C147.476 5.50553 147.366 5.61619 147.322 5.67153C147.388 5.97585 147.322 5.83752 147.432 6.03118C148.045 6.5845 148.593 5.78219 149.251 5.58853C149.558 5.50553 150.194 5.78219 150.61 5.75452C150.457 5.33953 149.974 5.22887 149.558 5.09054C149.098 5.50553 148.221 5.58853 147.454 5.50553H147.476ZM146.314 6.22484C146.314 6.22484 146.314 6.11418 146.314 6.05885C146.358 6.00352 146.423 5.94819 146.467 5.89285C146.38 5.89285 146.292 5.89285 146.204 5.86519C146.27 6.16951 146.204 6.03118 146.314 6.22484ZM145.722 6.5015C145.722 6.5015 145.722 6.28018 145.744 6.16951C145.569 6.16951 145.371 6.11418 145.196 6.08651C145.196 6.19718 145.196 6.30784 145.174 6.41851C145.349 6.41851 145.547 6.47384 145.722 6.5015ZM145.875 6.52917C145.875 6.52917 146.051 6.52917 146.138 6.55684C146.138 6.44617 146.138 6.33551 146.16 6.22484C146.073 6.22484 145.985 6.22484 145.897 6.19718C145.897 6.30784 145.897 6.41851 145.875 6.52917ZM144.056 6.80583C144.056 6.80583 144.056 6.69517 144.056 6.63983C143.968 6.63983 143.881 6.63983 143.793 6.61217C143.925 6.77816 143.815 6.6675 144.056 6.8335V6.80583ZM137.765 7.8848C137.765 7.8848 137.853 7.8848 137.897 7.8848C137.765 7.74647 137.787 7.74647 137.502 7.66348C137.502 7.77414 137.502 7.8848 137.48 7.99547C137.721 7.91247 137.612 7.99547 137.765 7.85714V7.8848ZM153.876 12.7817C154.03 12.5327 153.81 12.4774 153.767 12.422C153.482 12.422 153.723 12.671 153.876 12.7817ZM130.466 9.71076C130.466 9.71076 130.466 9.60009 130.466 9.54476C130.378 9.54476 130.291 9.54476 130.203 9.5171C130.334 9.68309 130.225 9.57243 130.466 9.73842V9.71076ZM149.383 13.9437C149.383 13.9437 149.207 13.9437 149.12 13.916C148.966 14.082 149.141 14.1096 149.251 14.1096C149.295 14.0543 149.361 13.999 149.405 13.9437H149.383ZM142.083 15.5759C142.083 15.7419 142.061 15.9079 142.04 16.1016C142.127 16.1016 142.215 16.1016 142.303 16.1293C142.215 15.7143 142.281 15.8526 142.083 15.5759ZM116.262 13.2243C116.262 13.2243 116.087 13.2243 115.999 13.1967C116.196 13.4457 116.087 13.501 116.262 13.2243ZM115.341 14.331C115.341 14.331 115.451 14.2203 115.495 14.165C115.429 13.584 115.582 13.916 115.276 13.6117C115.034 14.1373 114.881 13.9437 115.363 14.331H115.341ZM286.074 38.0131C286.074 38.0131 285.898 38.0131 285.811 37.9854C285.942 38.1514 285.833 38.0407 286.074 38.2067C286.074 38.1514 286.074 38.0961 286.074 38.0407V38.0131ZM101.028 19.0342C100.852 19.0342 100.655 18.9789 100.48 18.9512C100.48 19.0619 100.48 19.1725 100.458 19.2832C101.444 19.2832 101.773 18.6192 102.716 18.5362C102.716 18.3702 102.738 18.2042 102.759 18.0106C102.102 18.1489 101.861 18.5085 101.072 18.4809C101.072 18.6469 101.05 18.8129 101.028 19.0065V19.0342ZM98.6166 20.1132C98.6166 20.1132 98.792 20.1132 98.8797 20.1408C98.9235 20.0855 98.9893 20.0302 99.0331 19.9748C99.0112 19.6152 99.0331 19.6428 98.9454 19.4492C98.792 19.7258 98.7481 19.6982 98.6166 20.1132ZM97.2138 20.4452C97.2138 20.4452 97.1261 20.3068 97.0822 20.2515C96.9288 19.8088 97.148 20.1408 96.8411 19.8642C96.9069 20.1685 96.8411 20.0302 96.9507 20.2238C96.9507 20.2792 96.9507 20.3345 96.9507 20.3898C97.0384 20.3898 97.1261 20.3898 97.2138 20.4175V20.4452ZM93.0709 22.1604C93.2463 22.1604 93.4436 22.2158 93.6189 22.2434C93.6189 22.1328 93.6189 22.0221 93.6408 21.9115C93.4216 21.7731 93.5093 21.8561 93.3778 21.6901C93.0271 21.9115 93.2244 21.6348 93.0709 22.1604ZM88.4897 24.3461C89.0816 24.3461 89.0596 24.1801 89.6076 24.1524C89.6076 23.9864 89.6295 23.8204 89.6515 23.6267C89.2788 23.6267 88.9281 23.6544 88.6651 23.8481C88.5555 24.0141 88.5555 23.9864 88.4897 24.3461ZM88.1609 24.8164C88.1609 24.8164 88.2486 24.8164 88.2924 24.8164C88.3363 24.761 88.402 24.7057 88.4459 24.6504C88.2924 24.2077 88.5116 24.5397 88.2048 24.2631C88.2048 24.4291 88.1828 24.5951 88.1609 24.7887V24.8164ZM82.5057 26.67C82.3961 26.9467 82.4618 26.836 82.3303 27.002C82.3303 27.168 82.3084 27.334 82.2865 27.5276C82.6152 27.417 83.0317 27.3617 83.2728 27.1403C83.3605 27.1403 83.4482 27.1403 83.5359 27.168C83.5359 27.002 83.5578 26.836 83.5797 26.6423C83.2509 26.6423 83.1852 26.6423 83.0098 26.753C82.8344 26.753 82.6372 26.6977 82.4618 26.67H82.5057ZM104.666 30.1282C104.666 30.1282 104.666 30.0176 104.666 29.9623C104.447 29.9346 104.206 29.9069 103.987 29.8793C103.987 30.0453 103.965 30.2112 103.943 30.4049C104.118 30.4049 104.316 30.4602 104.491 30.4879C104.601 30.2112 104.535 30.3219 104.666 30.1559V30.1282ZM80.8398 28.3853C80.8398 28.3853 81.3439 28.1916 81.5631 27.9703C81.8042 27.8873 81.6946 27.9703 81.8481 27.832C81.6289 27.6936 81.4316 27.6106 81.037 27.5553C80.7959 27.8043 80.5329 28.081 80.2918 28.33C80.6206 28.496 80.511 28.413 80.8398 28.413V28.3853ZM79.9191 28.081C79.9191 28.081 79.7438 28.081 79.6561 28.0533C79.7876 28.2193 79.678 28.1086 79.9191 28.2746C79.9191 28.2193 79.9191 28.164 79.9191 28.1086V28.081ZM100.524 31.8435C100.524 31.8435 100.524 31.7329 100.524 31.6775C100.436 31.6775 100.348 31.6775 100.261 31.6499C100.392 31.8159 100.283 31.7052 100.524 31.8712V31.8435ZM77.8368 29.8793C77.8368 29.8793 77.9244 29.8793 77.9683 29.8793C78.0121 29.8239 78.0779 29.7686 78.1217 29.7133C77.9683 29.2706 78.1875 29.6026 77.8806 29.3259C77.8806 29.4919 77.8587 29.6579 77.8368 29.8516V29.8793ZM98.5509 32.4522C98.5509 32.4522 98.5509 32.6735 98.5289 32.7842C98.5728 32.7842 98.6166 32.7842 98.6605 32.7842C98.5947 32.4799 98.6605 32.6182 98.5509 32.4245V32.4522ZM77.6833 31.5945C77.6833 31.3732 77.7272 31.1242 77.7491 30.9029C77.3545 31.0412 77.4422 31.1242 76.8942 31.1519C76.8942 31.3179 76.8723 31.4839 76.8504 31.6775C77.1353 31.6775 77.3984 31.6222 77.6833 31.6222V31.5945ZM75.4037 32.5352C75.4037 32.5352 75.4914 32.5352 75.5352 32.5352C75.4037 32.3969 75.4256 32.3969 75.1406 32.3139C75.1406 32.4245 75.1406 32.5352 75.1187 32.6459C75.3598 32.5629 75.2502 32.6459 75.4037 32.5075V32.5352ZM74.2639 33.0608C74.3954 33.0608 74.5269 33.0885 74.6803 33.1162C74.6803 33.0608 74.6803 33.0055 74.6803 32.9502C74.5488 32.8672 74.4173 32.8118 74.2858 32.7289C74.2858 32.8395 74.2858 32.9502 74.2639 33.0608ZM63.7863 49.9371C63.7863 49.9371 63.6109 49.9371 63.5232 49.9094C63.5232 50.0201 63.5232 50.1308 63.5013 50.2414C63.589 50.2414 63.6767 50.2414 63.7643 50.2691C63.7643 50.1584 63.7643 50.0478 63.7863 49.9371ZM58.5913 52.7313C58.0652 52.8973 58.1529 53.2017 57.583 53.2847C57.583 53.4507 57.5611 53.6167 57.5391 53.8103C58.0214 53.672 57.9775 53.4783 58.5255 53.423C58.5255 53.2017 58.5694 52.9527 58.5913 52.7313ZM29.8546 67.0347C30.1176 66.8963 30.0957 66.841 30.4245 66.758C30.2492 66.3153 30.4683 66.5643 30.0519 66.3707C29.9642 66.6197 29.9423 66.6473 29.8546 67.0347ZM29.5258 67.837C29.5258 67.837 29.6135 67.837 29.6573 67.837C29.7012 67.7816 29.7669 67.7263 29.8108 67.671C29.6573 67.2283 29.8765 67.5603 29.5696 67.2837C29.5696 67.4497 29.5477 67.6156 29.5258 67.8093V67.837ZM165.888 154.127C165.888 154.127 165.888 154.348 165.866 154.459C165.91 154.459 165.954 154.459 165.998 154.459C165.932 154.155 165.998 154.293 165.888 154.1V154.127ZM162.995 155.704C162.995 155.704 163.017 155.704 163.039 155.676C163.039 155.676 163.017 155.676 162.995 155.676C162.995 155.676 162.995 155.676 162.995 155.704ZM150.807 158.388C150.654 157.945 150.873 158.277 150.566 158C150.369 158.249 150.457 158.194 150.128 158.277C150.128 158.332 150.128 158.388 150.128 158.443C150.457 158.443 150.522 158.443 150.676 158.332C150.72 158.332 150.764 158.332 150.807 158.332V158.388ZM95.0875 177.477C95.0875 177.477 95.2629 177.477 95.3506 177.505C95.3506 177.394 95.3506 177.284 95.3725 177.173C95.2848 177.173 95.1971 177.173 95.1095 177.145C95.1095 177.256 95.1095 177.367 95.0875 177.477Z" fill="#FF9D9D" fill-opacity="0.8"/>
</svg>
