<svg width="31" height="45" viewBox="0 0 31 45" fill="none" xmlns="http://www.w3.org/2000/svg">
<g clip-path="url(#clip0_98_782)">
<path d="M1.46419 20.5009C1.04585 20.5224 0.676384 20.618 0.406614 20.8347C-0.0195427 21.1803 -0.13097 21.8558 0.164211 22.3185C0.711569 23.1755 3.2255 22.8241 4.12278 22.8924C5.9838 23.033 7.84481 23.1736 9.70583 23.2946C14.8549 23.6284 20.004 23.9349 25.153 24.2512C26.0738 24.3078 27.188 24.2864 28.1107 24.1595C28.2476 24.1399 28.3883 24.1165 28.5076 24.0443C28.8164 23.8549 28.8516 23.3883 28.6659 23.074C28.4822 22.7616 28.1616 22.5293 27.8156 22.4219C26.0093 21.8597 22.0722 21.7796 19.4234 21.6527C16.237 21.4985 13.0486 21.3618 9.86222 21.2037C8.14782 21.1198 6.42755 21.0475 4.7151 20.9206C3.89993 20.8601 2.52763 20.4443 1.46419 20.5009Z" fill="white"/>
<path d="M27.6474 35.4399C25.9076 35.9846 24.0095 37.1892 22.3146 37.8705C19.4117 39.036 16.5009 40.182 13.5979 41.3514C12.685 41.7185 10.4545 42.6751 10.6168 43.9519C10.7224 44.7835 11.7917 45.1271 12.6147 44.9612C14.1512 44.6508 16.0337 43.3525 17.4998 42.7005C19.4469 41.8336 21.3822 40.9473 23.3272 40.0766C24.6624 39.4772 29.5612 37.7749 29.4127 36.4376C29.3384 35.764 28.6601 35.1666 28.0032 35.3384C27.8859 35.3697 27.7667 35.4028 27.6474 35.4399Z" fill="white"/>
<path d="M10.8181 1.35877C11.2365 1.68871 11.6216 2.13969 12.1103 2.35248C17.6797 4.77916 23.2647 7.16875 28.8458 9.5681C29.6922 9.93123 30.7107 10.4837 30.9922 9.10151C31.0762 8.68177 30.265 7.83253 29.6844 7.56702C24.3731 5.13643 19.0129 2.80736 13.684 0.411919C12.5384 -0.103482 11.5434 -0.443178 10.8181 1.36073V1.35877Z" fill="white"/>
</g>
<defs>
<clipPath id="clip0_98_782">
<rect width="31" height="45" fill="white" transform="matrix(-1 0 0 1 31 0)"/>
</clipPath>
</defs>
</svg>
