<svg width="31" height="45" viewBox="0 0 31 45" fill="none" xmlns="http://www.w3.org/2000/svg">
<g clip-path="url(#clip0_98_778)">
<path d="M29.5358 20.5009C29.9541 20.5224 30.3236 20.618 30.5934 20.8347C31.0195 21.1803 31.131 21.8558 30.8358 22.3185C30.2884 23.1755 27.7745 22.8241 26.8772 22.8924C25.0162 23.033 23.1552 23.1736 21.2942 23.2946C16.1451 23.6284 10.996 23.9349 5.84695 24.2512C4.92622 24.3078 3.81195 24.2864 2.88926 24.1595C2.75242 24.1399 2.61168 24.1165 2.49243 24.0443C2.18356 23.8549 2.14838 23.3883 2.33409 23.074C2.51784 22.7616 2.83844 22.5293 3.18445 22.4219C4.99073 21.8597 8.92779 21.7796 11.5766 21.6527C14.763 21.4985 17.9514 21.3618 21.1378 21.2037C22.8522 21.1198 24.5725 21.0475 26.2849 20.9206C27.1001 20.8601 28.4724 20.4443 29.5358 20.5009Z" fill="white"/>
<path d="M3.35257 35.4399C5.09238 35.9846 6.99054 37.1892 8.6854 37.8705C11.5883 39.036 14.4991 40.182 17.4021 41.3514C18.315 41.7185 20.5455 42.6751 20.3832 43.9519C20.2777 44.7835 19.2083 45.1271 18.3854 44.9612C16.8488 44.6508 14.9663 43.3525 13.5002 42.7005C11.5532 41.8336 9.61786 40.9473 7.67278 40.0766C6.33762 39.4772 1.43877 37.7749 1.58734 36.4376C1.66162 35.764 2.33995 35.1666 2.99678 35.3384C3.11408 35.3697 3.23332 35.4028 3.35257 35.4399Z" fill="white"/>
<path d="M20.1819 1.35877C19.7635 1.68871 19.3784 2.13969 18.8897 2.35248C13.3203 4.77916 7.73534 7.16875 2.15424 9.5681C1.30779 9.93123 0.289317 10.4837 0.00781858 9.10151C-0.0762399 8.68177 0.735023 7.83253 1.31561 7.56702C6.62694 5.13643 11.9871 2.80736 17.3161 0.411919C18.4616 -0.103482 19.4566 -0.443178 20.1819 1.36073V1.35877Z" fill="white"/>
</g>
<defs>
<clipPath id="clip0_98_778">
<rect width="31" height="45" fill="white"/>
</clipPath>
</defs>
</svg>
